<?xml version="1.0" encoding="utf-8"?>
<!-- Generator: Adobe Illustrator 22.0.1, SVG Export Plug-In . SVG Version: 6.00 Build 0)  -->
<svg version="1.1" id="Layer_1" xmlns="http://www.w3.org/2000/svg" xmlns:xlink="http://www.w3.org/1999/xlink" x="0px" y="0px"
	 viewBox="0 0 103 76.8" style="enable-background:new 0 0 103 76.8;" xml:space="preserve">
<style type="text/css">
	.st0{fill:#9BD6D9;}
	.st1{fill:none;}                                                                            
	.st2{clip-path:url(#SVGID_2_);}
	.st3{fill:#69C1C6;}
	.st4{opacity:0.62;fill:#1D8989;}
</style>
<g id="Page_1" transform="translate(0 -0.099)">
	<path id="Fill_1" class="st0" d="M81.5,52c-6.5,16.3-25,24.3-41.4,17.7c-0.2-0.1-0.3-0.1-0.5-0.2c-16.4-7.1-24.1-26-17.3-42.5
		C29,10.7,47.5,2.8,63.8,9.3c0.2,0.1,0.3,0.1,0.5,0.2C80.7,16.6,88.4,35.5,81.5,52"/>
	<g id="Group_5" transform="translate(20 7)">
		<path id="Clip_4-2" class="st1" d="M2.5,20c-6.8,16.5,0.9,35.3,17.2,42.4l0,0c16.2,6.8,34.8-0.9,41.6-17.1
			c0.1-0.2,0.1-0.3,0.2-0.5l0,0c6.8-16.5-0.9-35.3-17.2-42.4l0,0C40.3,0.9,36.2,0,32,0l0,0C19,0.1,7.3,8,2.5,20z"/>
		<g>
			<defs>
				<path id="SVGID_1_" d="M2.5,20c-6.8,16.5,0.9,35.3,17.2,42.4l0,0c16.2,6.8,34.8-0.9,41.6-17.1c0.1-0.2,0.1-0.3,0.2-0.5l0,0
					c6.8-16.5-0.9-35.3-17.2-42.4l0,0C40.3,0.9,36.2,0,32,0l0,0C19,0.1,7.3,8,2.5,20z"/>
			</defs>
			<clipPath id="SVGID_2_">
				<use xlink:href="#SVGID_1_"  style="overflow:visible;"/>
			</clipPath>
			<g id="Group_5-2" class="st2">
				<path id="Fill_3" class="st3" d="M55.9,10.7c0,0,6.2,9,2.4,22.9c-3.8,13.7-20.4,32-48,22.5l15.8,20.6L69,91l21.3-39.6L83.3,24
					L55.9,10.7z"/>
			</g>
		</g>
	</g>
	<g id="Group_14">
		<path id="Fill_6" class="st3" d="M26.1,18.8L25,20.3c0,0,18.9,25.4,41.9,45.5l1.4-0.7L26.1,18.8z"/>
		<path id="Fill_8" class="st3" d="M74,58.3c-0.7,0.9-1.5,1.9-2.3,2.7c0.2,0.2,0.4,0.5,0.6,0.7c2.5,3.4,4.2,5.9,5.5,7.9
			c-1.8-1.4-4.2-3.4-7.3-6.2c-0.2-0.2-0.4-0.4-0.7-0.6c-2.1-1.9-4.4-4.1-6.7-6.3c-3.7-3.7-7.7-7.7-11.7-12c-1.3-1.4-2.6-2.8-3.9-4.3
			c-4.1-4.5-8.1-9.1-11.8-13.5c-3.1-3.7-6-7.3-8.4-10.6c-0.3-0.3-0.5-0.7-0.8-1c-2.5-3.4-4.2-5.9-5.5-7.9c1.8,1.4,4.2,3.4,7.3,6.2
			c0.3,0.3,0.6,0.6,1,0.9c0.9-0.8,1.9-1.5,2.9-2.1C22.8,3.7,16-1,14.5,0.3s2.6,8.5,10.2,18.5c1.2,1.6,2.6,3.4,4,5.2
			C33,29.4,38,35.3,43.5,41.4c0.4,0.4,0.8,0.9,1.2,1.3c5.4,5.9,10.7,11.4,15.6,16.2c2.3,2.2,4.5,4.3,6.6,6.2
			C75.9,73.4,82.6,78,84,76.7S81.4,68.2,74,58.3"/>
		<path id="Fill_10" class="st4" d="M22.3,48.3l0.5,1.8c0,0,31.4,0.7,61.2-5l0.3-1.6L22.3,48.3z"/>
		<path id="Fill_12" class="st3" d="M82.3,33.7c0.3,1.2,0.5,2.3,0.7,3.5l0.9,0c4.2,0.1,7.3,0.3,9.6,0.5c-2.2,0.6-5.2,1.3-9.4,2
			l-0.9,0.2c-2.8,0.5-5.9,1-9.1,1.4C69,42,63.3,42.7,57.5,43.2c-1.9,0.2-3.8,0.3-5.8,0.5c-6.1,0.5-12.2,0.8-17.9,1
			c-4.9,0.2-9.4,0.2-13.6,0.1c-0.4,0-0.9,0-1.3,0c-4.2-0.1-7.3-0.3-9.6-0.5c2.2-0.6,10.9-2.1,10.9-2.1c0.5-0.1,0-1.5,0-2.9
			C7.9,41.3-0.2,42.9,0,45c0.2,2,8.4,3.2,20.9,3.3c2.1,0,4.3,0,6.5,0c6.9-0.1,14.6-0.4,22.9-1c0.6,0,1.1-0.1,1.7-0.1
			c8-0.6,15.6-1.4,22.3-2.3c3.2-0.4,6.2-0.9,9-1.4C95.4,41.4,103.1,39,103,37s-5.4-3.2-17.8-3.3"/>
	</g>
</g>
</svg>
