<?xml version="1.0" encoding="utf-8"?>
<!-- Generator: Adobe Illustrator 21.1.0, SVG Export Plug-In . SVG Version: 6.00 Build 0)  -->
<svg version="1.1" xmlns="http://www.w3.org/2000/svg" xmlns:xlink="http://www.w3.org/1999/xlink" x="0px" y="0px"
	 viewBox="0 0 400 124.7" style="enable-background:new 0 0 400 124.7;" xml:space="preserve">
<g id="carousel2">
	<g>
		<g>
			<g>
				<path style="fill:#92D8F7;" d="M177.6,65.8c0,0,17.6,34,1.6,34.3c0,0-1,1.6-3.3,0.7c0,0-2-0.7-1.6-2.6c0,0-2.9,1.3-1.6-4.2
					L177.6,65.8z"/>
				<path style="fill:#92D8F7;" d="M114.3,71.7c0,0-15.7,20.6,0,34.6c0,0,1.6,1.6,3.6-0.7c0,0,3.9,0.7,3.3-3.6c0,0,0,0,0.1,0
					c0.6,0.2,1.2-0.4,1-1L114.3,71.7z"/>
				
					<linearGradient id="SVGID_1_" gradientUnits="userSpaceOnUse" x1="180.0999" y1="43.7946" x2="173.2384" y2="45.6332" gradientTransform="matrix(1 0 0 -1 0 126)">
					<stop  offset="0.3436" style="stop-color:#071630;stop-opacity:0"/>
					<stop  offset="0.9903" style="stop-color:#071630"/>
				</linearGradient>
				<path style="fill:url(#SVGID_1_);" d="M177.6,65.8l1,2c0.7,1.6,1,1.6,1.6,4.9c0.2,1,0,3.3-1.3,8.2c-2.3,8.5-4.8,12.8-6.6,15
					l2.6-27.4L177.6,65.8z"/>
				
					<linearGradient id="SVGID_2_" gradientUnits="userSpaceOnUse" x1="-1928.2756" y1="139.61" x2="-1935.1627" y2="142.2228" gradientTransform="matrix(-1.2779 -7.225536e-02 4.912957e-02 -1.0978 -2360.1143 98.6588)">
					<stop  offset="0.2901" style="stop-color:#071630;stop-opacity:0"/>
					<stop  offset="0.9903" style="stop-color:#071630"/>
				</linearGradient>
				<path style="fill:url(#SVGID_2_);" d="M116.4,67.9l-1.3,2.1c-0.9,1.7-1.8,3-2.3,6.6c-0.3,2.5,0.3,7,1,9.6
					c2.1,7.2,4.6,9.4,6.5,11c0.6,0.5,1.6,0.2,1.4-0.4l-5.3-27.5L116.4,67.9z"/>
				<path style="fill:#A5A5A5;" d="M144.6,13.2C99.1,15.4,114.4,76,120.1,94c0.7,2.3,2.1,4.3,4,5.8c0.8,2.3,2.6,6.6,4.7,8.9
					c0,0-4.6,1.3-2.9,5.6c0,0,10.4,1.6,20.2,0l-1.5-9.3c1.6,0,3.1,0,4.6-0.1l-1.5,9.3c9.8,1.6,20.2,0,20.2,0
					c1.6-4.2-2.9-5.6-2.9-5.6c2.1-2.3,3.9-6.7,4.7-9c1.5-1.1,2.7-2.6,3.5-4.3c0.3-0.6,0.6-1.3,0.7-2
					C197.2,7.4,144.6,13.2,144.6,13.2z"/>
				<path style="fill:#92D8F7;" d="M143.3,33.8c0,0-21.2,1-20.6,23.5c0,0-1.6,21.5,20.6,22.5c0,0,30.4,2.9,24.2-28.4
					C167.5,51.4,164.2,32.2,143.3,33.8z"/>
			</g>
			<g>
				<g>
					<circle style="fill:#FFFFFF;" cx="145.6" cy="48.1" r="7.7"/>
				</g>
				<path style="fill:#323232;" d="M145.8,48.1L149,46c0.4,0.6,0.6,1.3,0.6,2.1c0,2.1-1.7,3.8-3.8,3.8s-3.8-1.7-3.8-3.8
					s1.7-3.8,3.8-3.8c0.9,0,1.7,0.3,2.4,0.9L145.8,48.1z"/>
			</g>
			<g>
				<path style="fill:#6F0F00;" d="M152.8,61.4h-8.5h-1h-1.7h-1.2h-2.9c-1.4,0-2.3,1.3-2,2.6c0.6,2.1,1.8,3.9,3.4,5.2l0,0
					c1-1.2,2.7-2.5,5-1.9l0,0c0,0,1,0.8,1.4,1.7l0,0c0.5-1.2,1.4-1.7,1.4-1.7l0,0c2.2-0.5,3.8,0.6,4.8,1.8l0,0c1.5-1.3,2.7-3,3.2-5
					C155.1,62.7,154.1,61.4,152.8,61.4z M142.4,64.8c0.1,0,0.3,0,0.4,0C142.7,64.7,142.5,64.8,142.4,64.8z"/>
				<path style="fill:#FF4747;" d="M146.7,67.3c-0.1,0-0.4,0.2-0.8,0.6c-0.3,0.4-0.9,0.4-1.2,0c-0.3-0.3-0.5-0.5-0.7-0.6h-0.1
					c-2.6-0.8-4,0.7-5,1.9l0,0c1.7,1.4,3.9,2.2,6.2,2.2c0.2,0,0.4,0,0.6,0l0,0v-1.1c0-1.1,0.9-2,2-2c1,0.1,1.8,0.9,1.8,1.9v0.2l0,0
					c0.7-0.4,1.4-0.8,2-1.3l0,0C150.5,67.9,149.3,66.3,146.7,67.3L146.7,67.3z"/>
				<path style="fill:#FF4747;" d="M149.5,70.2c0-1-0.9-1.9-1.9-1.9s-1.9,0.9-1.9,1.9v1.2c1.4-0.1,2.6-0.4,3.8-1V70.2z"/>
			</g>
		</g>
	</g>
	<g>
		<g>
			<path style="fill:#92D8F7;" d="M285.3,67.2c0,0,17.6,34,1.6,34.3c0,0-1,1.6-3.3,0.7c0,0-2-0.7-1.6-2.6c0,0-2.9,1.3-1.6-4.2
				L285.3,67.2z"/>
			<path style="fill:#92D8F7;" d="M222,73.1c0,0-15.7,20.6,0,34.6c0,0,1.6,1.6,3.6-0.7c0,0,3.9,0.7,3.3-3.6c0,0,0,0,0.1,0
				c0.6,0.2,1.2-0.4,1-1L222,73.1z"/>
			
				<linearGradient id="SVGID_3_" gradientUnits="userSpaceOnUse" x1="287.842" y1="42.3588" x2="280.9805" y2="44.1974" gradientTransform="matrix(1 0 0 -1 0 126)">
				<stop  offset="0.3436" style="stop-color:#071630;stop-opacity:0"/>
				<stop  offset="0.9903" style="stop-color:#071630"/>
			</linearGradient>
			<path style="fill:url(#SVGID_3_);" d="M285.3,67.2l1,2c0.7,1.6,1,1.6,1.6,4.9c0.2,1,0,3.3-1.3,8.2c-2.3,8.5-4.8,12.8-6.6,15
				l2.6-27.4L285.3,67.2z"/>
			
				<linearGradient id="SVGID_4_" gradientUnits="userSpaceOnUse" x1="-2012.4247" y1="143.8406" x2="-2019.3119" y2="146.4534" gradientTransform="matrix(-1.2779 -7.225536e-02 4.912957e-02 -1.0978 -2360.1143 98.6588)">
				<stop  offset="0.2901" style="stop-color:#071630;stop-opacity:0"/>
				<stop  offset="0.9903" style="stop-color:#071630"/>
			</linearGradient>
			<path style="fill:url(#SVGID_4_);" d="M224.1,69.3l-1.3,2.1c-0.9,1.7-1.8,3-2.3,6.6c-0.3,2.5,0.3,7,1,9.6c2.1,7.2,4.6,9.4,6.5,11
				c0.6,0.5,1.6,0.2,1.4-0.4l-5.3-27.5L224.1,69.3z"/>
			<path style="fill:#F8B441;" d="M252.3,14.6c-45.5,2.2-30.2,62.8-24.5,80.8c0.7,2.3,2.1,4.3,4,5.8c0.8,2.3,2.6,6.6,4.7,8.9
				c0,0-4.6,1.3-2.9,5.6c0,0,10.4,1.6,20.2,0l-1.5-9.3c1.6,0,3.1,0,4.6-0.1l-1.5,9.3c9.8,1.6,20.2,0,20.2,0c1.6-4.2-2.9-5.6-2.9-5.6
				c2.1-2.3,3.9-6.7,4.7-9c1.5-1.1,2.7-2.6,3.5-4.3c0.3-0.6,0.6-1.3,0.7-2C304.9,8.8,252.3,14.6,252.3,14.6z"/>
			<path style="fill:#92D8F7;" d="M251,35.2c0,0-21.2,1-20.6,23.5c0,0-1.6,21.5,20.6,22.5c0,0,30.4,2.9,24.2-28.4
				C275.2,52.8,271.9,33.6,251,35.2z"/>
		</g>
		<g>
			<g>
				<circle style="fill:#FFFFFF;" cx="253.3" cy="49.5" r="7.7"/>
			</g>
			<path style="fill:#323232;" d="M253.5,49.5l3.2-2.1c0.4,0.6,0.6,1.3,0.6,2.1c0,2.1-1.7,3.8-3.8,3.8s-3.8-1.7-3.8-3.8
				s1.7-3.8,3.8-3.8c0.9,0,1.7,0.3,2.4,0.9L253.5,49.5z"/>
		</g>
		<g>
			<path style="fill:#6F0F00;" d="M260.5,62.8H252h-1h-1.7h-1.2h-2.9c-1.4,0-2.3,1.3-2,2.6c0.6,2.1,1.8,3.9,3.4,5.2l0,0
				c1-1.2,2.7-2.5,5-1.9l0,0c0,0,1,0.8,1.4,1.7l0,0c0.5-1.2,1.4-1.7,1.4-1.7l0,0c2.2-0.5,3.8,0.6,4.8,1.8l0,0c1.5-1.3,2.7-3,3.2-5
				C262.8,64.1,261.8,62.8,260.5,62.8z M250.1,66.2c0.1,0,0.3,0,0.4,0C250.4,66.1,250.2,66.2,250.1,66.2z"/>
			<path style="fill:#FF4747;" d="M254.4,68.7c-0.1,0-0.4,0.2-0.8,0.6c-0.3,0.4-0.9,0.4-1.2,0c-0.3-0.3-0.5-0.5-0.7-0.6h-0.1
				c-2.6-0.8-4,0.7-5,1.9l0,0c1.7,1.4,3.9,2.2,6.2,2.2c0.2,0,0.4,0,0.6,0l0,0v-1.1c0-1.1,0.9-2,2-2c1,0.1,1.8,0.9,1.8,1.9v0.2l0,0
				c0.7-0.4,1.4-0.8,2-1.3l0,0C258.2,69.3,257,67.7,254.4,68.7L254.4,68.7z"/>
			<path style="fill:#FF4747;" d="M257.2,71.6c0-1-0.9-1.9-1.9-1.9s-1.9,0.9-1.9,1.9v1.2c1.4-0.1,2.6-0.4,3.8-1V71.6z"/>
		</g>
	</g>
</g>
</svg>
