<?xml version="1.0" encoding="utf-8"?>
<!-- Generator: Adobe Illustrator 22.0.1, SVG Export Plug-In . SVG Version: 6.00 Build 0)  -->
<svg version="1.1" id="Layer_1" xmlns="http://www.w3.org/2000/svg" xmlns:xlink="http://www.w3.org/1999/xlink" x="0px" y="0px"
	 viewBox="0 0 58.9 58.9" style="enable-background:new 0 0 58.9 58.9;" xml:space="preserve">
<style type="text/css">
	.st0{fill:#A7CB58;}
	.st1{fill:none;}
	.st2{clip-path:url(#SVGID_2_);}
	.st3{fill:#91B248;}
	.st4{fill:#527132;}
</style>
<g id="Page_1_Copy" transform="translate(0 9.587) rotate(-11)">
	<path id="Fill_1" class="st0" d="M50.2,25.1C50.2,39,39,50.2,25.1,50.2S0,39,0,25.1C0,11.2,11.2,0,25.1,0C39,0,50.2,11.2,50.2,25.1
		"/>
	<g id="Group_5">
		<path id="Clip_4-2" class="st1" d="M25.1,0.1C11.3,0.1,0,11.3,0,25.1l0,0C0,39,11.3,50.2,25.1,50.2l0,0C39,50.2,50.2,39,50.2,25.1
			l0,0C50.2,11.3,39,0.1,25.1,0.1z"/>
		<g>
			<defs>
				<path id="SVGID_1_" d="M25.1,0.1C11.3,0.1,0,11.3,0,25.1l0,0C0,39,11.3,50.2,25.1,50.2l0,0C39,50.2,50.2,39,50.2,25.1l0,0
					C50.2,11.3,39,0.1,25.1,0.1z"/>
			</defs>
			<clipPath id="SVGID_2_">
				<use xlink:href="#SVGID_1_"  style="overflow:visible;"/>
			</clipPath>
			<g id="Group_5-2" class="st2">
				<path id="Fill_3" class="st3" d="M36.1,2.4c0,0,7.2,4.6,8.6,15.6C46,29,39.4,47,16.5,48.6l17.6,9.9l35.3-2.7l3.7-34.6L59.9,3.7
					L36.1,2.4z"/>
			</g>
		</g>
	</g>
	<g id="Group_14" transform="translate(2.791 4.652)">
		<path id="Fill_6" class="st4" d="M25.2,1.6c0,0.9-0.7,1.6-1.6,1.6c-0.9,0-1.6-0.7-1.6-1.6c0-0.9,0.7-1.6,1.6-1.6
			C24.5,0.1,25.2,0.7,25.2,1.6"/>
		<path id="Fill_8" class="st4" d="M20.4,35.2c0,1.6-1.4,2.9-3,2.9c-1.6,0-3-1.3-3-2.9c0-1.6,1.4-2.9,3-2.9
			C19,32.3,20.3,33.6,20.4,35.2"/>
		<path id="Fill_10" class="st4" d="M35.4,14.1c0,1.2-1,2.2-2.3,2.2c-1.2,0-2.3-1-2.3-2.2c0-1.2,1-2.2,2.3-2.2
			C34.3,11.8,35.3,12.8,35.4,14.1"/>
		<path id="Fill_12" class="st4" d="M2.8,17.6c0,0.8-0.6,1.4-1.4,1.4C0.6,19,0,18.4,0,17.6c0-0.8,0.6-1.4,1.4-1.4
			C2.2,16.3,2.8,16.9,2.8,17.6"/>
	</g>
</g>
</svg>
