<?xml version="1.0" encoding="utf-8"?>
<!-- Generator: Adobe Illustrator 22.0.1, SVG Export Plug-In . SVG Version: 6.00 Build 0)  -->
<svg version="1.1" id="planet1" xmlns="http://www.w3.org/2000/svg" xmlns:xlink="http://www.w3.org/1999/xlink" x="0px" y="0px"
	 viewBox="0 0 67.1 67.1" style="enable-background:new 0 0 67.1 67.1;" xml:space="preserve">
<style type="text/css">
	.st0{fill:#F6B3C0;}
	.st1{fill:#ED6881;}
	.st2{opacity:0.4;fill:#ED6881;}
</style>
<path id="bg" class="st0" d="M58.5,33.1c0,13.8-11.2,25-25,25s-25-11.2-25-25s11.2-25,25-25S58.5,19.3,58.5,33.1"/>
<path id="land2" class="st1" d="M51.3,15.9h-12c-0.8,0-1.4,0.6-1.4,1.4V18c0,0.8,0.6,1.4,1.4,1.4h-7.6c-0.8,0-1.4,0.6-1.4,1.4v0.7
	c0,0.8,0.6,1.4,1.4,1.4h8.5c-0.3,0.3-0.5,0.6-0.5,1v0.7c0,0.4,0.2,0.8,0.5,1H29.7c-0.8,0-1.4,0.6-1.4,1.4v0.7c0,0.8,0.6,1.4,1.4,1.4
	h28.4C57.2,24.2,54.9,19.5,51.3,15.9z"/>
<path id="land1" class="st1" d="M30.6,41.6l-8.5,0c0.3-0.3,0.5-0.6,0.5-1v-0.7c0-0.8-0.6-1.4-1.4-1.4h7.6c0.8,0,1.4-0.6,1.4-1.4
	v-0.7c0-0.8-0.6-1.4-1.4-1.4H8.8c0.4,5,2.3,9.6,5.2,13.3h5c0.8,0,1.4-0.6,1.4-1.4v-0.7c0-0.4-0.2-0.8-0.5-1h10.6
	c0.8,0,1.4-0.6,1.4-1.4V43C32,42.3,31.4,41.6,30.6,41.6z"/>
<path id="shadow" class="st2" d="M24.3,56.2c3,1.3,6.3,2,9.7,2c13.6,0,24.5-11,24.5-24.5c0-9.4-5.3-17.6-13.1-21.7
	c1.9,2.7,3.9,6.6,4.5,12C51.3,34.9,45.2,52.6,24.3,56.2z"/>
</svg>
