<?xml version="1.0" encoding="utf-8"?>
<!-- Generator: Adobe Illustrator 22.0.1, SVG Export Plug-In . SVG Version: 6.00 Build 0)  -->
<svg version="1.1" id="planet3" xmlns="http://www.w3.org/2000/svg" xmlns:xlink="http://www.w3.org/1999/xlink" x="0px" y="0px"
	 viewBox="0 0 110 75" style="enable-background:new 0 0 110 75;" xml:space="preserve">
<style type="text/css">
	.st0{fill:#6F41A3;}
	.st1{fill:#8C67B5;}
	.st2{opacity:0.172;fill:#6F40A3;enable-background:new    ;}
	.st3{fill:#6F40A3;}
	.st4{opacity:0.255;fill:#447182;enable-background:new    ;}
	.st5{fill:#69C1C6;}
</style>
<g id="planet">
	<circle id="bg" class="st0" cx="55.3" cy="37.5" r="37.5"/>
	<path class="st1" d="M66.2,2.2C64.3,2.7,60.5,3,56.2,3C50,3,45,2.3,44.8,1.5C39,3.2,33.7,6.3,29.5,10.3h44.2
		C70.7,6.4,67.7,3.5,66.2,2.2z"/>
	<path class="st1" d="M81.5,30.5h-63c-0.4,2.3-0.7,4.6-0.7,7c0,1.8,0.1,3.5,0.4,5.2H81C81.7,38.6,81.9,34.4,81.5,30.5z"/>
	<path class="st1" d="M73.5,58.6H24.3c2.7,3.9,6,7.3,9.9,9.9h26C65.9,66,70.3,62.5,73.5,58.6z"/>
	<path class="st2" d="M55.3,75c7.8,0,15-2.4,21.1-6.5H60.2c-4.7,2.1-10.4,3.7-17.1,4.4C46.9,74.3,51,75,55.3,75z"/>
	<path class="st2" d="M92.4,42.7H81c-1.1,5.6-3.4,11.2-7.4,15.9h12.8C89.5,54,91.6,48.5,92.4,42.7z"/>
	<path class="st2" d="M81.1,10.3h-7.5c1.9,2.6,3.8,5.8,5.2,9.3c1.3,3.2,2.2,6.9,2.6,10.8h10.7C90.6,22.6,86.7,15.6,81.1,10.3z"/>
	<path class="st1" d="M67,1.9c-0.2,0.1-0.5,0.2-0.9,0.3c1.5,1.3,4.6,4.2,7.5,8.2h7.5C77.2,6.6,72.4,3.6,67,1.9z"/>
	<path class="st2" d="M67,1.9c-0.2,0.1-0.5,0.2-0.9,0.3c1.5,1.3,4.6,4.2,7.5,8.2h7.5C77.2,6.6,72.4,3.6,67,1.9z"/>
	<path class="st1" d="M92.8,37.5c0-2.4-0.2-4.8-0.7-7H81.5c0.4,3.9,0.3,8.1-0.5,12.2h11.5C92.7,41,92.8,39.3,92.8,37.5z"/>
	<path class="st2" d="M92.8,37.5c0-2.4-0.2-4.8-0.7-7H81.5c0.4,3.9,0.3,8.1-0.5,12.2h11.5C92.7,41,92.8,39.3,92.8,37.5z"/>
	<path class="st1" d="M86.3,58.6H73.5c-3.3,3.9-7.6,7.3-13.3,9.9h16.1C80.3,65.9,83.6,62.5,86.3,58.6z"/>
	<path class="st2" d="M86.3,58.6H73.5c-3.3,3.9-7.6,7.3-13.3,9.9h16.1C80.3,65.9,83.6,62.5,86.3,58.6z"/>
	<path class="st3" d="M56.2,3c4.3,0,8.1-0.3,10-0.8C66.5,2.1,66.8,2,67,1.9C63.3,0.7,59.4,0,55.3,0c-3.6,0-7.1,0.5-10.5,1.5
		C45,2.3,50,3,56.2,3z"/>
</g>
<g id="rings" transform="translate(0 11)">
	<path id="ring2" class="st4" d="M19.5,16.6L19,18.7c0,0,31.9,19.3,65.9,31l1.2-1.4L19.5,16.6z"/>
	<path id="ring1" class="st5" d="M90.8,37.5c-0.4,1.4-0.8,2.7-1.3,4c0.3,0.2,0.6,0.4,0.9,0.6c4.2,2.6,7.3,4.6,9.5,6.2
		c-2.6-0.7-6.1-1.8-10.7-3.4l-1-0.4C85,43.3,81.6,42,78,40.6c-5.7-2.3-11.8-5-18.1-7.8c-2.1-0.9-4.1-1.9-6.2-2.9
		c-6.5-3.1-12.9-6.3-18.8-9.5c-5-2.7-9.8-5.3-13.9-7.8c-0.4-0.3-0.9-0.5-1.3-0.8c-4.2-2.6-7.3-4.6-9.5-6.2c2.6,0.7,6.1,1.8,10.7,3.4
		c0.5,0.2,1,0.3,1.4,0.5c0.7-1.2,1.4-2.5,2.2-3.6C10.7,0.8,1.2-1.3,0.2,0.9s6.7,8.2,19.4,15.7c2.1,1.2,4.3,2.5,6.7,3.8
		c7,3.9,15.2,8.1,23.9,12.4c0.6,0.3,1.2,0.6,1.8,0.9c8.5,4.1,16.7,7.7,24.1,10.7c3.5,1.4,6.8,2.7,9.9,3.8c13.6,5,22.9,7,23.8,4.9
		S103.4,44.9,90.8,37.5"/>
</g>
</svg>
