<?xml version="1.0" encoding="utf-8"?>
<!-- Generator: Adobe Illustrator 22.0.1, SVG Export Plug-In . SVG Version: 6.00 Build 0)  -->
<svg version="1.1" id="Layer_1" xmlns="http://www.w3.org/2000/svg" xmlns:xlink="http://www.w3.org/1999/xlink" x="0px" y="0px"
	 width="100px" height="65px" viewBox="0 0 100 65" style="enable-background:new 0 0 100 65;" xml:space="preserve">
<style type="text/css">
	.st0{fill:#A7CB58;}
	.st1{fill:none;}
	.st2{clip-path:url(#SVGID_2_);}
	.st3{fill:#91B248;}
	.st4{fill:#527132;}
</style>
<g id="Page_1_Copy" transform="translate(0 9.587) rotate(-11)">
	<path id="Fill_1" class="st0" d="M67.8,31.7c0,13.9-11.2,25.1-25.1,25.1S17.6,45.6,17.6,31.7S28.8,6.6,42.7,6.6
		S67.8,17.8,67.8,31.7"/>
	<g id="Group_5">
		<path id="Clip_4-2" class="st1" d="M42.7,6.7c-13.8,0-25.1,11.2-25.1,25l0,0c0,13.9,11.3,25.1,25.1,25.1l0,0
			c13.9,0,25.1-11.2,25.1-25.1l0,0C67.8,17.9,56.6,6.7,42.7,6.7z"/>
		<g>
			<g>
				<defs>
					<path id="SVGID_1_" d="M42.7,6.7c-13.8,0-25.1,11.2-25.1,25l0,0c0,13.9,11.3,25.1,25.1,25.1l0,0c13.9,0,25.1-11.2,25.1-25.1
						l0,0C67.8,17.9,56.6,6.7,42.7,6.7z"/>
				</defs>
				<clipPath id="SVGID_2_">
					<use xlink:href="#SVGID_1_"  style="overflow:visible;"/>
				</clipPath>
				<g id="Group_5-2" class="st2">
					<path id="Fill_3" class="st3" d="M53.7,9c0,0,7.2,4.6,8.6,15.6c1.3,11-5.3,29-28.2,30.6l17.6,9.9L87,62.4l3.7-34.6L77.5,10.3
						L53.7,9z"/>
				</g>
			</g>
		</g>
	</g>
	<g id="Group_14" transform="translate(2.791 4.652)">
		<path id="Fill_6" class="st4" d="M42.8,8.2c0,0.9-0.7,1.6-1.6,1.6c-0.9,0-1.6-0.7-1.6-1.6s0.7-1.6,1.6-1.6
			C42.1,6.7,42.8,7.3,42.8,8.2"/>
		<path id="Fill_8" class="st4" d="M38,41.8c0,1.6-1.4,2.9-3,2.9c-1.6,0-3-1.3-3-2.9c0-1.6,1.4-2.9,3-2.9
			C36.6,38.9,37.9,40.2,38,41.8"/>
		<path id="Fill_10" class="st4" d="M53,20.7c0,1.2-1,2.2-2.3,2.2c-1.2,0-2.3-1-2.3-2.2c0-1.2,1-2.2,2.3-2.2
			C51.9,18.4,52.9,19.4,53,20.7"/>
		<path id="Fill_12" class="st4" d="M20.4,24.2c0,0.8-0.6,1.4-1.4,1.4c-0.8,0-1.4-0.6-1.4-1.4s0.6-1.4,1.4-1.4
			C19.8,22.9,20.4,23.5,20.4,24.2"/>
	</g>
</g>
</svg>
