<svg version="1.1" id="planet1" xmlns="http://www.w3.org/2000/svg" xmlns:xlink="http://www.w3.org/1999/xlink" x="0px" y="0px"
	 width="100px" height="65px" viewBox="0 0 100 65" style="enable-background:new 0 0 100 65;" xml:space="preserve">
<style type="text/css">
	.st0{fill:#F6B3C0;}
	.st1{fill:#ED6881;}
	.st2{opacity:0.4;fill:#ED6881;enable-background:new    ;}
</style>
<path id="bg" class="st0" d="M71.1,32.5c0,10.7-8.7,19.3-19.3,19.3s-19.3-8.7-19.3-19.3s8.7-19.3,19.3-19.3S71.1,21.8,71.1,32.5"/>
<path id="land2" class="st1" d="M65.5,19.2h-9.3c-0.6,0-1.1,0.5-1.1,1.1v0.5c0,0.6,0.5,1.1,1.1,1.1h-5.9c-0.6,0-1.1,0.5-1.1,1.1v0.5
	c0,0.6,0.5,1.1,1.1,1.1H57c-0.2,0.2-0.4,0.5-0.4,0.8v0.5c0,0.3,0.2,0.6,0.4,0.8h-8.1c-0.6,0-1.1,0.5-1.1,1.1v0.5
	c0,0.6,0.5,1.1,1.1,1.1h22C70.1,25.6,68.3,21.9,65.5,19.2z"/>
<path id="land1" class="st1" d="M49.5,39h-6.6c0.2-0.2,0.4-0.5,0.4-0.8v-0.5c0-0.6-0.5-1.1-1.1-1.1h5.9c0.6,0,1.1-0.5,1.1-1.1V35
	c0-0.6-0.5-1.1-1.1-1.1H32.7c0.3,3.9,1.8,7.4,4,10.3h3.9c0.6,0,1.1-0.5,1.1-1.1v-0.5c0-0.3-0.2-0.6-0.4-0.8h8.2
	c0.6,0,1.1-0.5,1.1-1.1v-0.6C50.6,39.6,50.1,39,49.5,39z"/>
<path id="shadow" class="st2" d="M44.7,50.3c2.3,1,4.9,1.5,7.5,1.5c10.5,0,19-8.5,19-19c0-7.3-4.1-13.6-10.1-16.8
	c1.5,2.1,3,5.1,3.5,9.3C65.5,33.9,60.8,47.5,44.7,50.3z"/>
</svg>
