<?xml version="1.0" encoding="utf-8"?>
<!-- Generator: Adobe Illustrator 22.0.1, SVG Export Plug-In . SVG Version: 6.00 Build 0)  -->
<svg version="1.1" id="Page_1" xmlns="http://www.w3.org/2000/svg" xmlns:xlink="http://www.w3.org/1999/xlink" x="0px" y="0px"
	 viewBox="0 0 105 105.9" style="enable-background:new 0 0 105 105.9;" xml:space="preserve">
<style type="text/css">
	.st0{fill:#9BD6D9;}
	.st1{fill:none;}
	.st2{clip-path:url(#SVGID_2_);}
	.st3{fill:#69C1C6;}
</style>
<path id="Fill_1" class="st0" d="M105,52.5c0,29-23.5,52.5-52.5,52.5S0,81.5,0,52.5S23.5,0,52.5,0S105,23.5,105,52.5"/>
<g id="Group_5">
	<path id="Clip_4-2" class="st1" d="M52.5,0.1C23.4,0.3-0.1,23.9,0,53c0,0,0,0,0,0l0,0c-0.1,29.1,23.4,52.8,52.5,52.9c0,0,0,0,0,0
		l0,0c29.1-0.1,52.6-23.8,52.5-52.9c0,0,0,0,0,0l0,0C105.1,23.9,81.6,0.3,52.5,0.1C52.5,0.1,52.5,0.1,52.5,0.1z"/>
	<g>
		<defs>
			<path id="SVGID_1_" d="M52.5,0.1C23.4,0.3-0.1,23.9,0,53c0,0,0,0,0,0l0,0c-0.1,29.1,23.4,52.8,52.5,52.9c0,0,0,0,0,0l0,0
				c29.1-0.1,52.6-23.8,52.5-52.9c0,0,0,0,0,0l0,0C105.1,23.9,81.6,0.3,52.5,0.1C52.5,0.1,52.5,0.1,52.5,0.1z"/>
		</defs>
		<clipPath id="SVGID_2_">
			<use xlink:href="#SVGID_1_"  style="overflow:visible;"/>
		</clipPath>
		<g id="Group_5-2" class="st2">
			<path id="Fill_3" class="st3" d="M75.4,5.1c0,0,15.1,9.6,17.9,32.9c2.8,23.1-11.1,61.2-58.8,64.5l36.8,20.9l73.8-5.8l7.7-73.1
				L125.3,7.7L75.4,5.1z"/>
		</g>
	</g>
</g>
<g id="Group_14" transform="translate(7 11)">
	<path id="Fill_6" class="st3" d="M52.1,3.5c0,1.8-1.5,3.3-3.3,3.3c-1.8,0-3.3-1.5-3.3-3.3c0-1.8,1.5-3.3,3.3-3.3
		C50.6,0.1,52.1,1.6,52.1,3.5"/>
	<path id="Fill_8" class="st3" d="M42,75.7c0,3.4-2.8,6.2-6.3,6.2c-3.4,0-6.2-2.8-6.2-6.3c0-3.4,2.8-6.2,6.2-6.2
		C39.3,69.4,42,72.2,42,75.7C42,75.7,42,75.7,42,75.7"/>
	<path id="Fill_10" class="st3" d="M73,30.2c0,2.6-2.1,4.7-4.8,4.7c-2.6,0-4.7-2.1-4.7-4.8c0-2.6,2.1-4.7,4.7-4.7
		C70.9,25.5,73,27.6,73,30.2C73,30.2,73,30.2,73,30.2"/>
	<path id="Fill_12" class="st3" d="M5.8,37.9c0,1.6-1.3,2.9-2.9,2.9c-1.6,0-2.9-1.3-2.9-2.9C0,36.3,1.3,35,2.9,35
		C4.5,35,5.8,36.3,5.8,37.9C5.8,37.9,5.8,37.9,5.8,37.9"/>
</g>
</svg>
