<?xml version="1.0" encoding="utf-8"?>
<!-- Generator: Adobe Illustrator 22.0.1, SVG Export Plug-In . SVG Version: 6.00 Build 0)  -->
<svg version="1.1" id="Layer_1" xmlns="http://www.w3.org/2000/svg" xmlns:xlink="http://www.w3.org/1999/xlink" x="0px" y="0px"
	 width="551px" height="862px" viewBox="0 0 551 862" style="enable-background:new 0 0 551 862;" xml:space="preserve">
<g style="opacity:0.38;">
	<path style="fill:#FFFFFF;" d="M275.5,606.5l-20.1-20.1v-15.1l14.7,14.7v-29.5h10.7V586l14.7-14.7v15.1L275.5,606.5z"/>
</g>
<path style="opacity:0.38;fill:#FFFFFF;" d="M275.5,279.5l20.1,20.1v15.1L280.9,300v29.5h-10.7V300l-14.7,14.7v-15.1L275.5,279.5z"
	/>
<g>
	<path style="opacity:0.54;fill:#FFFFFF;" d="M242.6,343.5l-2.3,2.2c-1-1-2-1.4-3.1-1.4c-1.5,0-2.1,0.6-2.1,1.6
		c0,1.2,1.1,1.4,2.8,1.8c2.1,0.5,5.1,1.2,5.1,4.6c0,3.1-2.4,4.9-5.8,4.9c-2.8,0-4.7-1.2-6-3l2.5-1.9c1,1.4,2.1,2.1,3.5,2.1
		c1.5,0,2.5-0.6,2.5-1.8c0-1.3-1.1-1.4-3.4-2c-2-0.6-4.4-1.5-4.4-4.5c0-2.8,2.1-4.5,5.4-4.5C239.5,341.4,241.3,342.1,242.6,343.5z"
		/>
	<path style="opacity:0.54;fill:#FFFFFF;" d="M257.8,356.7h-3.5l-2.1-6.9l-2.1,6.9h-3.5l-3.6-10.2h3.2l2.2,7.2l2.1-7.2h3.4l2.1,7.1
		l2-7.1h3L257.8,356.7z"/>
	<path style="opacity:0.54;fill:#FFFFFF;" d="M265.6,342.8c0,1.2-0.8,1.7-1.7,1.7s-1.7-0.5-1.7-1.7c0-1.1,0.7-1.7,1.7-1.7
		C264.8,341.1,265.6,341.7,265.6,342.8z M262.4,356.7v-10.2h3v10.2H262.4z"/>
	<path style="opacity:0.54;fill:#FFFFFF;" d="M278.6,351.6c0,3.2-1.9,5.4-4.9,5.4c-1.2,0-2.1-0.4-2.8-1.1v5.9h-3v-15.2h2.9v0.9
		c0.7-0.8,1.6-1.2,2.9-1.2C276.6,346.2,278.6,348.4,278.6,351.6z M270.9,349.8v3.5c0.4,0.8,1.2,1.2,2.2,1.2c1.6,0,2.5-1.2,2.5-3
		s-1-3-2.5-3C272.1,348.6,271.3,349,270.9,349.8z"/>
	<path style="opacity:0.54;fill:#FFFFFF;" d="M290.5,352.4H283c0.3,1.5,1.3,2.3,2.7,2.3c1.1,0,2-0.4,2.6-1.2l2.1,1.3
		c-1,1.4-2.6,2.2-4.7,2.2c-3.6,0-5.6-2.2-5.6-5.5c0-3.1,2-5.3,5.3-5.3s5.2,2.2,5.2,5.2C290.6,351.8,290.6,352.1,290.5,352.4z
		 M283,350.3h4.6c-0.3-1.2-1-1.9-2.3-1.9C284.1,348.4,283.3,349.3,283,350.3z"/>
	<path style="opacity:0.54;fill:#FFFFFF;" d="M304,356.7v-1c-0.7,0.8-1.7,1.3-3,1.3c-2.8,0-4.4-1.9-4.4-5.1v-5.4h3v5.1
		c0,1.7,0.8,2.7,2.1,2.7c1,0,1.8-0.5,2.2-1.2v-6.6h3v10.2H304z"/>
	<path style="opacity:0.54;fill:#FFFFFF;" d="M320,351.6c0,3.2-1.9,5.4-4.9,5.4c-1.2,0-2.1-0.4-2.8-1.1v5.9h-3v-15.2h2.9v0.9
		c0.7-0.8,1.6-1.2,2.9-1.2C318.1,346.2,320,348.4,320,351.6z M312.3,349.8v3.5c0.4,0.8,1.2,1.2,2.2,1.2c1.6,0,2.5-1.2,2.5-3
		s-1-3-2.5-3C313.5,348.6,312.8,349,312.3,349.8z"/>
</g>
<g>
	<path style="opacity:0.54;fill:#FFFFFF;" d="M227.5,530.1l-2.3,2.2c-1-1-2-1.4-3.1-1.4c-1.5,0-2.1,0.6-2.1,1.6
		c0,1.2,1.1,1.4,2.8,1.8c2.1,0.5,5.1,1.2,5.1,4.6c0,3.1-2.4,4.9-5.8,4.9c-2.8,0-4.7-1.2-6-3l2.5-1.9c1,1.4,2.1,2.1,3.5,2.1
		c1.5,0,2.5-0.6,2.5-1.8c0-1.3-1.1-1.4-3.4-2c-2-0.6-4.4-1.5-4.4-4.5c0-2.8,2.1-4.5,5.4-4.5C224.4,528,226.2,528.8,227.5,530.1z"/>
	<path style="opacity:0.54;fill:#FFFFFF;" d="M242.7,543.3h-3.5l-2.1-6.9l-2.1,6.9h-3.5l-3.6-10.2h3.2l2.2,7.2l2.1-7.2h3.4l2.1,7.1
		l2-7.1h3L242.7,543.3z"/>
	<path style="opacity:0.54;fill:#FFFFFF;" d="M250.4,529.5c0,1.2-0.8,1.7-1.7,1.7s-1.7-0.5-1.7-1.7c0-1.1,0.7-1.7,1.7-1.7
		C249.7,527.8,250.4,528.3,250.4,529.5z M247.3,543.3v-10.2h3v10.2H247.3z"/>
	<path style="opacity:0.54;fill:#FFFFFF;" d="M263.4,538.2c0,3.2-1.9,5.4-4.9,5.4c-1.2,0-2.1-0.4-2.8-1.1v5.9h-3v-15.2h2.9v0.9
		c0.7-0.8,1.6-1.2,2.9-1.2C261.5,532.9,263.4,535,263.4,538.2z M255.7,536.5v3.5c0.4,0.8,1.2,1.2,2.2,1.2c1.6,0,2.5-1.2,2.5-3
		s-1-3-2.5-3C257,535.3,256.2,535.7,255.7,536.5z"/>
	<path style="opacity:0.54;fill:#FFFFFF;" d="M275.4,539.1h-7.6c0.3,1.5,1.3,2.3,2.7,2.3c1.1,0,2-0.4,2.6-1.2l2.1,1.3
		c-1,1.4-2.6,2.2-4.7,2.2c-3.6,0-5.6-2.2-5.6-5.5c0-3.1,2-5.3,5.3-5.3s5.2,2.2,5.2,5.2C275.5,538.4,275.5,538.8,275.4,539.1z
		 M267.9,537h4.6c-0.3-1.2-1-1.9-2.3-1.9C269,535.1,268.2,535.9,267.9,537z"/>
	<path style="opacity:0.54;fill:#FFFFFF;" d="M288.9,543.3v-0.9c-0.7,0.8-1.6,1.2-2.9,1.2c-3,0-4.9-2.2-4.9-5.4s2-5.4,4.9-5.4
		c1.2,0,2.1,0.4,2.8,1.1v-6h3v15.3H288.9z M284.1,538.2c0,1.8,1,3,2.5,3c1,0,1.7-0.4,2.2-1.2v-3.5c-0.4-0.8-1.2-1.2-2.2-1.2
		C285,535.3,284.1,536.4,284.1,538.2z"/>
	<path style="opacity:0.54;fill:#FFFFFF;" d="M304.5,538.2c0,3.2-2,5.4-5.5,5.4c-3.5,0-5.5-2.2-5.5-5.4s2-5.4,5.5-5.4
		C302.6,532.9,304.5,535.1,304.5,538.2z M296.6,538.2c0,1.8,1,3,2.5,3s2.5-1.2,2.5-3s-1-3-2.5-3S296.6,536.4,296.6,538.2z"/>
	<path style="opacity:0.54;fill:#FFFFFF;" d="M319.8,543.3h-3.5l-2.1-6.9l-2.1,6.9h-3.5l-3.6-10.2h3.2l2.2,7.2l2.1-7.2h3.4l2.1,7.1
		l2-7.1h3L319.8,543.3z"/>
	<path style="opacity:0.54;fill:#FFFFFF;" d="M334.9,537.9v5.4h-3v-5.1c0-1.7-0.8-2.7-2.3-2.7c-1,0-1.8,0.5-2.2,1.2v6.5h-3v-10.2
		h2.9v1.1c0.7-0.8,1.7-1.3,3.1-1.3C333.3,532.9,334.9,534.7,334.9,537.9z"/>
</g>
</svg>
