<?xml version="1.0" encoding="utf-8"?>
<!-- Generator: Adobe Illustrator 22.0.1, SVG Export Plug-In . SVG Version: 6.00 Build 0)  -->
<svg version="1.1" id="Stars" xmlns="http://www.w3.org/2000/svg" xmlns:xlink="http://www.w3.org/1999/xlink" x="0px" y="0px"
	 width="7500px" height="1000px" viewBox="0 0 7500 1000" style="enable-background:new 0 0 7500 1000;" xml:space="preserve">
<g style="opacity:0.6;">
	<path style="fill:#FFFFFF;" d="M3313.7,214.7c0.3,0,2.9,0.5,2.9,0.5c0,0,0.1,0.6,0.2,1.4c0.1,0.8,0.2,1.4,0.2,1.5l0,0l0,0
		c0,0,0.1-0.7,0.2-1.5c0.1-0.8,0.2-1.4,0.2-1.4c0,0,0.6-0.1,1.4-0.2s1.4-0.2,1.5-0.2l0,0l0,0c0,0-0.7-0.1-1.5-0.2
		c-0.8-0.1-1.4-0.2-1.4-0.2c0,0-0.4-2.7-0.5-2.9c0,0,0,0,0,0c0,0.3-0.5,2.9-0.5,2.9C3316.6,214.2,3314,214.6,3313.7,214.7
		C3313.7,214.7,3313.7,214.7,3313.7,214.7z"/>
	<path style="fill:#FFFFFF;" d="M3149.4,144.3c0.2,0.2,1.9,2.7,1.9,2.7c0,0-0.4,0.6-1,1.3c-0.5,0.7-1,1.3-1,1.4l0,0l0,0
		c0,0,0.6-0.5,1.4-1c0.7-0.5,1.3-1,1.3-1c0,0,0.6,0.4,1.3,1c0.7,0.5,1.3,1,1.4,1l0,0l0,0c0,0-0.5-0.6-1-1.4c-0.5-0.7-1-1.3-1-1.3
		c0,0,1.8-2.5,1.9-2.7c0,0,0,0,0,0c-0.2,0.2-2.7,1.9-2.7,1.9C3152.1,146.3,3149.6,144.5,3149.4,144.3
		C3149.4,144.3,3149.4,144.3,3149.4,144.3z"/>
	<path style="fill:#FFFFFF;" d="M3180.5,127.7c0.1,0.1,1.1,1.6,1.1,1.6c0,0-0.3,0.4-0.6,0.8c-0.3,0.4-0.6,0.8-0.6,0.8l0,0l0,0
		c0,0,0.4-0.3,0.8-0.6c0.4-0.3,0.8-0.6,0.8-0.6c0,0,0.4,0.3,0.8,0.6c0.4,0.3,0.8,0.6,0.8,0.6l0,0l0,0c0,0-0.3-0.4-0.6-0.8
		c-0.3-0.4-0.6-0.8-0.6-0.8c0,0,1-1.5,1.1-1.6c0,0,0,0,0,0c-0.1,0.1-1.6,1.1-1.6,1.1C3182.1,128.9,3180.7,127.8,3180.5,127.7
		C3180.5,127.7,3180.5,127.7,3180.5,127.7z"/>
	<path style="fill:#FFFFFF;" d="M3624.4,245.3c0.2,0.2,1.9,2.7,1.9,2.7c0,0-0.4,0.6-1,1.3c-0.5,0.7-1,1.3-1,1.4l0,0l0,0
		c0,0,0.6-0.5,1.4-1c0.7-0.5,1.3-1,1.3-1c0,0,0.6,0.4,1.3,1c0.7,0.5,1.3,1,1.4,1l0,0l0,0c0,0-0.5-0.6-1-1.4c-0.5-0.7-1-1.3-1-1.3
		c0,0,1.8-2.5,1.9-2.7c0,0,0,0,0,0c-0.2,0.2-2.7,1.9-2.7,1.9C3627.1,247.3,3624.6,245.5,3624.4,245.3
		C3624.4,245.3,3624.4,245.3,3624.4,245.3z"/>
	<path style="fill:#FFFFFF;" d="M3402.5,131.1c0.1,0.1,1.1,1.6,1.1,1.6c0,0-0.2,0.4-0.6,0.8c-0.3,0.4-0.6,0.8-0.6,0.8l0,0l0,0
		c0,0,0.4-0.3,0.8-0.6c0.4-0.3,0.8-0.6,0.8-0.6c0,0,0.4,0.2,0.8,0.6c0.4,0.3,0.8,0.6,0.8,0.6l0,0l0,0c0,0-0.3-0.4-0.6-0.8
		c-0.3-0.4-0.6-0.8-0.6-0.8c0,0,1-1.4,1.1-1.6c0,0,0,0,0,0c-0.1,0.1-1.6,1.1-1.6,1.1C3404.1,132.3,3402.7,131.2,3402.5,131.1
		C3402.5,131.1,3402.5,131.1,3402.5,131.1z"/>
	<path style="fill:#FFFFFF;" d="M3041.7,527.7c0.3,0,2.9,0.5,2.9,0.5c0,0,0.1,0.6,0.2,1.4c0.1,0.8,0.2,1.4,0.2,1.5l0,0l0,0
		c0,0,0.1-0.7,0.2-1.5s0.2-1.4,0.2-1.4c0,0,0.6-0.1,1.4-0.2c0.8-0.1,1.4-0.2,1.5-0.2l0,0l0,0c0,0-0.7-0.1-1.5-0.2
		c-0.8-0.1-1.4-0.2-1.4-0.2c0,0-0.4-2.7-0.5-2.9c0,0,0,0,0,0c0,0.3-0.5,2.9-0.5,2.9C3044.6,527.2,3042,527.6,3041.7,527.7
		C3041.7,527.7,3041.7,527.7,3041.7,527.7z"/>
	<path style="fill:#FFFFFF;" d="M3130.5,444.1c0.1,0.1,1.1,1.6,1.1,1.6c0,0-0.2,0.4-0.6,0.8c-0.3,0.4-0.6,0.8-0.6,0.8l0,0l0,0
		c0,0,0.4-0.3,0.8-0.6c0.4-0.3,0.8-0.6,0.8-0.6c0,0,0.4,0.2,0.8,0.6c0.4,0.3,0.8,0.6,0.8,0.6l0,0l0,0c0,0-0.3-0.4-0.6-0.8
		c-0.3-0.4-0.6-0.8-0.6-0.8c0,0,1-1.4,1.1-1.6c0,0,0,0,0,0c-0.1,0.1-1.6,1.1-1.6,1.1S3130.7,444.2,3130.5,444.1
		C3130.5,444.1,3130.5,444.1,3130.5,444.1z"/>
	<path style="fill:#FFFFFF;" d="M3745.7,458.3c-0.2,0.2-1.9,2.7-1.9,2.7c0,0,0.4,0.6,1,1.3c0.5,0.7,1,1.3,1,1.4l0,0l0,0
		c0,0-0.6-0.5-1.4-1s-1.3-1-1.3-1c0,0-0.6,0.4-1.3,1c-0.7,0.5-1.3,1-1.4,1l0,0l0,0c0,0,0.5-0.6,1-1.4c0.5-0.7,1-1.3,1-1.3
		c0,0-1.8-2.5-1.9-2.7c0,0,0,0,0,0c0.2,0.2,2.7,1.9,2.7,1.9S3745.5,458.5,3745.7,458.3C3745.7,458.3,3745.7,458.3,3745.7,458.3z"/>
	<path style="fill:#FFFFFF;" d="M3602.6,441.7c-0.1,0.1-1.1,1.6-1.1,1.6c0,0,0.3,0.4,0.6,0.8c0.3,0.4,0.6,0.8,0.6,0.8l0,0l0,0
		c0,0-0.4-0.3-0.8-0.6s-0.8-0.6-0.8-0.6c0,0-0.4,0.3-0.8,0.6c-0.4,0.3-0.8,0.6-0.8,0.6l0,0l0,0c0,0,0.3-0.4,0.6-0.8
		c0.3-0.4,0.6-0.8,0.6-0.8c0,0-1-1.5-1.1-1.6c0,0,0,0,0,0c0.1,0.1,1.6,1.1,1.6,1.1S3602.4,441.8,3602.6,441.7
		C3602.6,441.7,3602.6,441.7,3602.6,441.7z"/>
	<path style="fill:#FFFFFF;" d="M3277.5,396.1c-0.1,0.1-1.1,1.6-1.1,1.6c0,0,0.2,0.4,0.6,0.8c0.3,0.4,0.6,0.8,0.6,0.8l0,0l0,0
		c0,0-0.4-0.3-0.8-0.6c-0.4-0.3-0.8-0.6-0.8-0.6c0,0-0.4,0.2-0.8,0.6c-0.4,0.3-0.8,0.6-0.8,0.6l0,0l0,0c0,0,0.3-0.4,0.6-0.8
		c0.3-0.4,0.6-0.8,0.6-0.8c0,0-1-1.4-1.1-1.6c0,0,0,0,0,0c0.1,0.1,1.6,1.1,1.6,1.1S3277.4,396.2,3277.5,396.1
		C3277.5,396.1,3277.5,396.1,3277.5,396.1z"/>
	<path style="fill:#FFFFFF;" d="M3325.9,75.1c0.1,0.1,0.6,0.9,0.6,0.9c0,0-0.1,0.2-0.3,0.4c-0.2,0.2-0.3,0.4-0.3,0.4l0,0l0,0
		c0,0,0.2-0.1,0.4-0.3c0.2-0.2,0.4-0.3,0.4-0.3c0,0,0.2,0.1,0.4,0.3c0.2,0.2,0.4,0.3,0.4,0.3l0,0l0,0c0,0-0.1-0.2-0.3-0.4
		c-0.2-0.2-0.3-0.4-0.3-0.4c0,0,0.6-0.8,0.6-0.9c0,0,0,0,0,0c-0.1,0.1-0.9,0.6-0.9,0.6C3326.8,75.8,3326,75.2,3325.9,75.1
		C3325.9,75.1,3325.9,75.1,3325.9,75.1z"/>
	<path style="fill:#FFFFFF;" d="M3200.7,298.9c0,0,0.8,0.4,1.8,0.9c1,0.5,1.9,0.9,1.9,0.9l0,0l0,0c0,0-0.7-0.7-1.5-1.5
		c-0.8-0.8-1.4-1.5-1.4-1.5c0,0,0.4-0.8,0.9-1.8c0.5-1,0.9-1.9,0.9-1.9l0,0l0,0c0,0-0.7,0.7-1.5,1.5s-1.5,1.4-1.5,1.4
		c0,0-3.4-1.7-3.8-1.9c0.3,0.3,2.9,3,2.9,3s-1.7,3.4-1.9,3.8C3198,301.5,3200.7,298.9,3200.7,298.9z"/>
	<path style="fill:#FFFFFF;" d="M3500.1,176.2c0,0,0.6,0.3,1.4,0.7s1.4,0.7,1.4,0.7l0,0l0,0c0,0-0.5-0.5-1.1-1.1s-1.1-1.1-1.1-1.1
		c0,0,0.3-0.6,0.7-1.4s0.7-1.4,0.7-1.4l0,0l0,0c0,0-0.5,0.5-1.1,1.1c-0.6,0.6-1.1,1.1-1.1,1.1c0,0-2.5-1.3-2.8-1.4
		c0.2,0.2,2.2,2.2,2.2,2.2s-1.3,2.5-1.4,2.8C3498,178.2,3500.1,176.2,3500.1,176.2z"/>
	<path style="fill:#FFFFFF;" d="M3068.1,302.2c0,0,0.6,0.3,1.4,0.7c0.7,0.4,1.4,0.7,1.4,0.7l0,0l0,0c0,0-0.5-0.5-1.1-1.1
		c-0.6-0.6-1.1-1.1-1.1-1.1c0,0,0.3-0.6,0.7-1.4c0.4-0.7,0.7-1.4,0.7-1.4l0,0l0,0c0,0-0.5,0.5-1.1,1.1c-0.6,0.6-1.1,1.1-1.1,1.1
		c0,0-2.5-1.3-2.8-1.4c0.2,0.2,2.2,2.2,2.2,2.2c0,0-1.3,2.5-1.4,2.8C3066,304.2,3068.1,302.2,3068.1,302.2z"/>
	<path style="fill:#FFFFFF;" d="M2964.1,169.2c0,0,0.6,0.3,1.4,0.7s1.4,0.7,1.4,0.7l0,0l0,0c0,0-0.5-0.5-1.1-1.1s-1.1-1.1-1.1-1.1
		c0,0,0.3-0.6,0.7-1.4s0.7-1.4,0.7-1.4l0,0l0,0c0,0-0.5,0.5-1.1,1.1c-0.6,0.6-1.1,1.1-1.1,1.1c0,0-2.5-1.3-2.8-1.4
		c0.2,0.2,2.2,2.2,2.2,2.2s-1.3,2.5-1.4,2.8C2962,171.2,2964.1,169.2,2964.1,169.2z"/>
	<path style="fill:#FFFFFF;" d="M3431.5,283c0.2,0,2.7,0,2.7,0c0,0,0.2,0.6,0.4,1.2c0.2,0.7,0.4,1.3,0.4,1.3l0,0v0c0,0,0-0.6,0-1.3
		c0-0.7,0-1.3,0-1.3s0.6-0.2,1.2-0.4s1.3-0.4,1.3-0.4l0,0l0,0c0,0-0.6,0-1.3,0c-0.7,0-1.3,0-1.3,0c0,0-0.8-2.3-0.9-2.5c0,0,0,0,0,0
		c0,0.2,0,2.7,0,2.7C3434,282.1,3431.7,282.9,3431.5,283C3431.5,283,3431.5,283,3431.5,283z"/>
	<path style="fill:#FFFFFF;" d="M3564.4,680.9c0.2,0,2.5,0.4,2.5,0.4c0,0,0.1,0.6,0.2,1.2c0.1,0.7,0.2,1.3,0.2,1.3l0,0l0,0
		c0,0,0.1-0.6,0.2-1.3c0.1-0.7,0.2-1.2,0.2-1.2c0,0,0.6-0.1,1.2-0.2s1.3-0.2,1.3-0.2l0,0l0,0c0,0-0.6-0.1-1.3-0.2
		c-0.7-0.1-1.2-0.2-1.2-0.2c0,0-0.4-2.3-0.4-2.5c0,0,0,0,0,0c0,0.2-0.4,2.5-0.4,2.5C3566.9,680.5,3564.6,680.9,3564.4,680.9
		C3564.4,680.9,3564.4,680.9,3564.4,680.9z"/>
	<path style="fill:#FFFFFF;" d="M3602.3,765.8c0.2,0,2.3,0,2.3,0c0,0,0.2,0.5,0.4,1.1c0.2,0.6,0.4,1.1,0.4,1.1l0,0l0,0
		c0,0,0-0.5,0-1.2s0-1.1,0-1.1c0,0,0.5-0.2,1.1-0.4c0.6-0.2,1.1-0.4,1.1-0.4l0,0l0,0c0,0-0.5,0-1.2,0s-1.1,0-1.1,0
		c0,0-0.7-2-0.7-2.2c0,0,0,0,0,0c0,0.2,0,2.3,0,2.3C3604.5,765,3602.5,765.7,3602.3,765.8C3602.3,765.8,3602.3,765.8,3602.3,765.8z"
		/>
	<path style="fill:#FFFFFF;" d="M3673,736.8c0.2-0.2,2.1-2,2.1-2c0,0,0.6,0.3,1.3,0.6c0.7,0.4,1.3,0.6,1.3,0.7l0,0l0,0
		c0,0-0.5-0.5-1-1c-0.6-0.6-1-1-1-1c0,0,0.3-0.6,0.6-1.3c0.4-0.7,0.6-1.3,0.7-1.3l0,0l0,0c0,0-0.5,0.5-1,1c-0.6,0.6-1,1-1,1
		c0,0-2.4-1.2-2.6-1.3c0,0,0,0,0,0c0.2,0.2,2,2.1,2,2.1S3673.1,736.6,3673,736.8C3673,736.8,3673,736.8,3673,736.8z"/>
	<path style="fill:#FFFFFF;" d="M3589.9,339c0.1-0.1,1.1-1.1,1.1-1.1c0,0,0.3,0.2,0.7,0.4c0.4,0.2,0.7,0.4,0.7,0.4l0,0l0,0
		c0,0-0.3-0.3-0.6-0.6s-0.6-0.6-0.6-0.6c0,0,0.2-0.3,0.4-0.7c0.2-0.4,0.4-0.7,0.4-0.7l0,0l0,0c0,0-0.3,0.3-0.6,0.6
		c-0.3,0.3-0.6,0.6-0.6,0.6c0,0-1.3-0.7-1.4-0.7c0,0,0,0,0,0c0.1,0.1,1.1,1.1,1.1,1.1C3590.6,337.6,3589.9,338.9,3589.9,339
		C3589.9,339,3589.9,339,3589.9,339z"/>
	<path style="fill:#FFFFFF;" d="M3359.5,785c0.2,0,2.7,0,2.7,0c0,0,0.2,0.6,0.4,1.2c0.2,0.7,0.4,1.3,0.4,1.3l0,0v0c0,0,0-0.6,0-1.3
		c0-0.7,0-1.3,0-1.3s0.6-0.2,1.2-0.4s1.3-0.4,1.3-0.4l0,0l0,0c0,0-0.6,0-1.3,0c-0.7,0-1.3,0-1.3,0c0,0-0.8-2.3-0.9-2.5c0,0,0,0,0,0
		c0,0.2,0,2.7,0,2.7C3362,784.1,3359.7,784.9,3359.5,785C3359.5,785,3359.5,785,3359.5,785z"/>
	<path style="fill:#FFFFFF;" d="M3238.8,648.7c0.2-0.2,2.4-2.4,2.4-2.4c0,0,0.7,0.3,1.5,0.7c0.8,0.4,1.5,0.7,1.5,0.8l0,0l0,0
		c0,0-0.5-0.6-1.2-1.2c-0.6-0.6-1.2-1.2-1.2-1.2c0,0,0.3-0.7,0.7-1.5c0.4-0.8,0.7-1.5,0.8-1.5l0,0l0,0c0,0-0.6,0.5-1.2,1.2
		c-0.6,0.6-1.2,1.2-1.2,1.2c0,0-2.7-1.4-3-1.5c0,0,0,0,0,0c0.2,0.2,2.4,2.4,2.4,2.4C3240.3,645.7,3238.9,648.4,3238.8,648.7
		C3238.8,648.7,3238.8,648.7,3238.8,648.7z"/>
	<path style="fill:#FFFFFF;" d="M3362.3,472.9c0.2,0,2.3,0.4,2.3,0.4c0,0,0.1,0.5,0.2,1.1c0.1,0.6,0.2,1.1,0.2,1.1l0,0l0,0
		c0,0,0.1-0.5,0.2-1.1c0.1-0.6,0.2-1.1,0.2-1.1c0,0,0.5-0.1,1.1-0.2c0.6-0.1,1.1-0.2,1.1-0.2l0,0l0,0c0,0-0.5-0.1-1.1-0.2
		c-0.6-0.1-1.1-0.2-1.1-0.2c0,0-0.3-2.1-0.4-2.3c0,0,0,0,0,0c0,0.2-0.4,2.3-0.4,2.3C3364.5,472.6,3362.5,472.9,3362.3,472.9
		C3362.2,472.9,3362.2,472.9,3362.3,472.9z"/>
	<path style="fill:#FFFFFF;" d="M3397.6,598.5c0.2,0,2.6,0,2.6,0c0,0,0.2,0.5,0.4,1.2c0.2,0.7,0.4,1.2,0.4,1.2l0,0v0
		c0,0,0-0.6,0-1.3c0-0.7,0-1.3,0-1.3c0,0,0.5-0.2,1.2-0.4s1.2-0.4,1.2-0.4l0,0l0,0c0,0-0.6,0-1.3,0s-1.3,0-1.3,0
		c0,0-0.8-2.3-0.8-2.5c0,0,0,0,0,0c0,0.2,0,2.6,0,2.6C3400,597.7,3397.8,598.4,3397.6,598.5C3397.5,598.5,3397.5,598.5,3397.6,598.5
		z"/>
	<path style="fill:#FFFFFF;" d="M3461.4,571.9c0.2-0.2,1.9-1.8,1.9-1.8c0,0,0.5,0.3,1.1,0.6s1.2,0.6,1.2,0.6l0,0l0,0
		c0,0-0.4-0.4-0.9-0.9c-0.5-0.5-0.9-0.9-0.9-0.9c0,0,0.3-0.5,0.6-1.1c0.3-0.6,0.6-1.2,0.6-1.2l0,0l0,0c0,0-0.4,0.4-0.9,0.9
		c-0.5,0.5-0.9,0.9-0.9,0.9c0,0-2.1-1.1-2.3-1.2c0,0,0,0,0,0c0.2,0.2,1.8,1.9,1.8,1.9C3462.5,569.6,3461.5,571.7,3461.4,571.9
		C3461.4,571.9,3461.4,571.9,3461.4,571.9z"/>
</g>
<g style="opacity:0.6;">
	<path style="fill:#FFFFFF;" d="M4068.7,42.7c0.3,0,2.9,0.5,2.9,0.5c0,0,0.1,0.6,0.2,1.4c0.1,0.8,0.2,1.4,0.2,1.5l0,0l0,0
		c0,0,0.1-0.7,0.2-1.5s0.2-1.4,0.2-1.4c0,0,0.6-0.1,1.4-0.2s1.4-0.2,1.5-0.2l0,0l0,0c0,0-0.7-0.1-1.5-0.2c-0.8-0.1-1.4-0.2-1.4-0.2
		c0,0-0.4-2.7-0.5-2.9c0,0,0,0,0,0c0,0.3-0.5,2.9-0.5,2.9C4071.6,42.2,4069,42.6,4068.7,42.7C4068.7,42.7,4068.7,42.7,4068.7,42.7z"
		/>
	<path style="fill:#FFFFFF;" d="M4379.4,73.3c0.2,0.2,1.9,2.7,1.9,2.7c0,0-0.4,0.6-1,1.3c-0.5,0.7-1,1.3-1,1.4l0,0l0,0
		c0,0,0.6-0.5,1.4-1c0.7-0.5,1.3-1,1.3-1c0,0,0.6,0.4,1.3,1c0.7,0.5,1.3,1,1.4,1l0,0l0,0c0,0-0.5-0.6-1-1.4c-0.5-0.7-1-1.3-1-1.3
		c0,0,1.8-2.5,1.9-2.7c0,0,0,0,0,0c-0.2,0.2-2.7,1.9-2.7,1.9C4382.1,75.3,4379.6,73.5,4379.4,73.3
		C4379.4,73.3,4379.4,73.3,4379.4,73.3z"/>
	<path style="fill:#FFFFFF;" d="M4445.5,4.7c0.1,0.1,1.1,1.6,1.1,1.6c0,0-0.3,0.4-0.6,0.8c-0.3,0.4-0.6,0.8-0.6,0.8l0,0l0,0
		c0,0,0.4-0.3,0.8-0.6c0.4-0.3,0.8-0.6,0.8-0.6c0,0,0.4,0.3,0.8,0.6c0.4,0.3,0.8,0.6,0.8,0.6l0,0l0,0c0,0-0.3-0.4-0.6-0.8
		c-0.3-0.4-0.6-0.8-0.6-0.8c0,0,1-1.5,1.1-1.6c0,0,0,0,0,0c-0.1,0.1-1.6,1.1-1.6,1.1C4447.1,5.9,4445.7,4.8,4445.5,4.7
		C4445.5,4.7,4445.5,4.7,4445.5,4.7z"/>
	<path style="fill:#FFFFFF;" d="M3796.7,355.7c0.3,0,2.9,0.5,2.9,0.5c0,0,0.1,0.6,0.2,1.4c0.1,0.8,0.2,1.4,0.2,1.5l0,0l0,0
		c0,0,0.1-0.7,0.2-1.5c0.1-0.8,0.2-1.4,0.2-1.4c0,0,0.6-0.1,1.4-0.2c0.8-0.1,1.4-0.2,1.5-0.2l0,0l0,0c0,0-0.7-0.1-1.5-0.2
		c-0.8-0.1-1.4-0.2-1.4-0.2c0,0-0.4-2.7-0.5-2.9c0,0,0,0,0,0c0,0.3-0.5,2.9-0.5,2.9C3799.6,355.2,3797,355.6,3796.7,355.7
		C3796.7,355.7,3796.7,355.7,3796.7,355.7z"/>
	<path style="fill:#FFFFFF;" d="M3885.5,272.1c0.1,0.1,1.1,1.6,1.1,1.6c0,0-0.2,0.4-0.6,0.8c-0.3,0.4-0.6,0.8-0.6,0.8l0,0l0,0
		c0,0,0.4-0.3,0.8-0.6c0.4-0.3,0.8-0.6,0.8-0.6c0,0,0.4,0.2,0.8,0.6c0.4,0.3,0.8,0.6,0.8,0.6l0,0l0,0c0,0-0.3-0.4-0.6-0.8
		c-0.3-0.4-0.6-0.8-0.6-0.8c0,0,1-1.4,1.1-1.6c0,0,0,0,0,0c-0.1,0.1-1.6,1.1-1.6,1.1S3885.7,272.2,3885.5,272.1
		C3885.5,272.1,3885.5,272.1,3885.5,272.1z"/>
	<path style="fill:#FFFFFF;" d="M4500.7,286.3c-0.2,0.2-1.9,2.7-1.9,2.7c0,0,0.4,0.6,1,1.3c0.5,0.7,1,1.3,1,1.4l0,0l0,0
		c0,0-0.6-0.5-1.4-1s-1.3-1-1.3-1c0,0-0.6,0.4-1.3,1c-0.7,0.5-1.3,1-1.4,1l0,0l0,0c0,0,0.5-0.6,1-1.4c0.5-0.7,1-1.3,1-1.3
		c0,0-1.8-2.5-1.9-2.7c0,0,0,0,0,0c0.2,0.2,2.7,1.9,2.7,1.9S4500.5,286.5,4500.7,286.3C4500.7,286.3,4500.7,286.3,4500.7,286.3z"/>
	<path style="fill:#FFFFFF;" d="M4357.6,269.7c-0.1,0.1-1.1,1.6-1.1,1.6c0,0,0.3,0.4,0.6,0.8s0.6,0.8,0.6,0.8l0,0l0,0
		c0,0-0.4-0.3-0.8-0.6s-0.8-0.6-0.8-0.6c0,0-0.4,0.3-0.8,0.6c-0.4,0.3-0.8,0.6-0.8,0.6l0,0l0,0c0,0,0.3-0.4,0.6-0.8
		c0.3-0.4,0.6-0.8,0.6-0.8c0,0-1-1.5-1.1-1.6c0,0,0,0,0,0c0.1,0.1,1.6,1.1,1.6,1.1C4356,270.9,4357.4,269.8,4357.6,269.7
		C4357.6,269.7,4357.6,269.7,4357.6,269.7z"/>
	<path style="fill:#FFFFFF;" d="M4032.5,224.1c-0.1,0.1-1.1,1.6-1.1,1.6c0,0,0.2,0.4,0.6,0.8c0.3,0.4,0.6,0.8,0.6,0.8l0,0l0,0
		c0,0-0.4-0.3-0.8-0.6c-0.4-0.3-0.8-0.6-0.8-0.6c0,0-0.4,0.2-0.8,0.6c-0.4,0.3-0.8,0.6-0.8,0.6l0,0l0,0c0,0,0.3-0.4,0.6-0.8
		c0.3-0.4,0.6-0.8,0.6-0.8c0,0-1-1.4-1.1-1.6c0,0,0,0,0,0c0.1,0.1,1.6,1.1,1.6,1.1C4031,225.3,4032.4,224.2,4032.5,224.1
		C4032.5,224.1,4032.5,224.1,4032.5,224.1z"/>
	<path style="fill:#FFFFFF;" d="M3955.7,126.9c0,0,0.8,0.4,1.8,0.9c1,0.5,1.9,0.9,1.9,0.9l0,0l0,0c0,0-0.7-0.7-1.5-1.5
		c-0.8-0.8-1.4-1.5-1.4-1.5c0,0,0.4-0.8,0.9-1.8c0.5-1,0.9-1.9,0.9-1.9l0,0l0,0c0,0-0.7,0.7-1.5,1.5c-0.8,0.8-1.5,1.4-1.5,1.4
		c0,0-3.4-1.7-3.8-1.9c0.3,0.3,2.9,3,2.9,3c0,0-1.7,3.4-1.9,3.8C3953,129.5,3955.7,126.9,3955.7,126.9z"/>
	<path style="fill:#FFFFFF;" d="M4255.1,4.2c0,0,0.6,0.3,1.4,0.7c0.7,0.4,1.4,0.7,1.4,0.7l0,0l0,0c0,0-0.5-0.5-1.1-1.1
		c-0.6-0.6-1.1-1.1-1.1-1.1c0,0,0.3-0.6,0.7-1.4c0.4-0.7,0.7-1.4,0.7-1.4l0,0l0,0c0,0-0.5,0.5-1.1,1.1c-0.6,0.6-1.1,1.1-1.1,1.1
		c0,0-2.5-1.3-2.8-1.4c0.2,0.2,2.2,2.2,2.2,2.2c0,0-1.3,2.5-1.4,2.8C4253,6.2,4255.1,4.2,4255.1,4.2z"/>
	<path style="fill:#FFFFFF;" d="M3823.1,130.2c0,0,0.6,0.3,1.4,0.7s1.4,0.7,1.4,0.7l0,0l0,0c0,0-0.5-0.5-1.1-1.1s-1.1-1.1-1.1-1.1
		c0,0,0.3-0.6,0.7-1.4c0.4-0.7,0.7-1.4,0.7-1.4l0,0l0,0c0,0-0.5,0.5-1.1,1.1c-0.6,0.6-1.1,1.1-1.1,1.1c0,0-2.5-1.3-2.8-1.4
		c0.2,0.2,2.2,2.2,2.2,2.2s-1.3,2.5-1.4,2.8C3821,132.2,3823.1,130.2,3823.1,130.2z"/>
	<path style="fill:#FFFFFF;" d="M4199.7,107c0.2-0.2,2.4-2.4,2.4-2.4c0,0,0.7,0.3,1.5,0.7c0.8,0.4,1.5,0.7,1.5,0.8l0,0l0,0
		c0,0-0.5-0.6-1.2-1.2s-1.2-1.2-1.2-1.2c0,0,0.3-0.7,0.7-1.5c0.4-0.8,0.7-1.5,0.8-1.5l0,0l0,0c0,0-0.6,0.5-1.2,1.2
		c-0.6,0.6-1.2,1.2-1.2,1.2c0,0-2.7-1.4-3-1.5c0,0,0,0,0,0c0.2,0.2,2.4,2.4,2.4,2.4C4201.2,104,4199.8,106.7,4199.7,107
		C4199.7,107,4199.7,107,4199.7,107z"/>
	<path style="fill:#FFFFFF;" d="M4319.4,508.9c0.2,0,2.5,0.4,2.5,0.4c0,0,0.1,0.6,0.2,1.2c0.1,0.7,0.2,1.3,0.2,1.3l0,0l0,0
		c0,0,0.1-0.6,0.2-1.3c0.1-0.7,0.2-1.2,0.2-1.2c0,0,0.6-0.1,1.2-0.2c0.7-0.1,1.3-0.2,1.3-0.2l0,0l0,0c0,0-0.6-0.1-1.3-0.2
		c-0.7-0.1-1.2-0.2-1.2-0.2c0,0-0.4-2.3-0.4-2.5c0,0,0,0,0,0c0,0.2-0.4,2.5-0.4,2.5S4319.6,508.9,4319.4,508.9
		C4319.4,508.9,4319.4,508.9,4319.4,508.9z"/>
	<path style="fill:#FFFFFF;" d="M4357.3,593.8c0.2,0,2.3,0,2.3,0c0,0,0.2,0.5,0.4,1.1c0.2,0.6,0.4,1.1,0.4,1.1l0,0v0
		c0,0,0-0.5,0-1.2s0-1.1,0-1.1c0,0,0.5-0.2,1.1-0.4c0.6-0.2,1.1-0.4,1.1-0.4l0,0l0,0c0,0-0.5,0-1.2,0c-0.6,0-1.1,0-1.1,0
		c0,0-0.7-2-0.7-2.2c0,0,0,0,0,0c0,0.2,0,2.3,0,2.3C4359.5,593,4357.5,593.7,4357.3,593.8C4357.3,593.8,4357.3,593.8,4357.3,593.8z"
		/>
	<path style="fill:#FFFFFF;" d="M4428,564.8c0.2-0.2,2.1-2,2.1-2c0,0,0.6,0.3,1.3,0.6c0.7,0.4,1.3,0.6,1.3,0.7l0,0l0,0
		c0,0-0.5-0.5-1-1c-0.6-0.6-1-1-1-1c0,0,0.3-0.6,0.6-1.3c0.4-0.7,0.6-1.3,0.7-1.3l0,0l0,0c0,0-0.5,0.5-1,1c-0.6,0.6-1,1-1,1
		c0,0-2.4-1.2-2.6-1.3c0,0,0,0,0,0c0.2,0.2,2,2.1,2,2.1S4428.1,564.6,4428,564.8C4428,564.8,4428,564.8,4428,564.8z"/>
	<path style="fill:#FFFFFF;" d="M4344.9,167c0.1-0.1,1.1-1.1,1.1-1.1c0,0,0.3,0.2,0.7,0.4c0.4,0.2,0.7,0.4,0.7,0.4l0,0l0,0
		c0,0-0.3-0.3-0.6-0.6c-0.3-0.3-0.6-0.6-0.6-0.6c0,0,0.2-0.3,0.4-0.7c0.2-0.4,0.4-0.7,0.4-0.7l0,0l0,0c0,0-0.3,0.3-0.6,0.6
		s-0.6,0.6-0.6,0.6c0,0-1.3-0.7-1.4-0.7c0,0,0,0,0,0c0.1,0.1,1.1,1.1,1.1,1.1S4344.9,166.9,4344.9,167
		C4344.9,167,4344.9,167,4344.9,167z"/>
	<path style="fill:#FFFFFF;" d="M4114.5,613c0.2,0,2.7,0,2.7,0c0,0,0.2,0.6,0.4,1.2c0.2,0.7,0.4,1.3,0.4,1.3l0,0v0c0,0,0-0.6,0-1.3
		c0-0.7,0-1.3,0-1.3s0.6-0.2,1.2-0.4s1.3-0.4,1.3-0.4l0,0l0,0c0,0-0.6,0-1.3,0s-1.3,0-1.3,0c0,0-0.8-2.3-0.9-2.5c0,0,0,0,0,0
		c0,0.2,0,2.7,0,2.7C4117,612.1,4114.7,612.9,4114.5,613C4114.5,613,4114.5,613,4114.5,613z"/>
	<path style="fill:#FFFFFF;" d="M3993.8,476.7c0.2-0.2,2.4-2.4,2.4-2.4c0,0,0.7,0.3,1.5,0.7c0.8,0.4,1.5,0.7,1.5,0.8l0,0l0,0
		c0,0-0.5-0.6-1.2-1.2c-0.6-0.6-1.2-1.2-1.2-1.2c0,0,0.3-0.7,0.7-1.5c0.4-0.8,0.7-1.5,0.8-1.5l0,0l0,0c0,0-0.6,0.5-1.2,1.2
		c-0.6,0.6-1.2,1.2-1.2,1.2c0,0-2.7-1.4-3-1.5c0,0,0,0,0,0c0.2,0.2,2.4,2.4,2.4,2.4S3993.9,476.4,3993.8,476.7
		C3993.8,476.7,3993.8,476.7,3993.8,476.7z"/>
	<path style="fill:#FFFFFF;" d="M4117.3,300.9c0.2,0,2.3,0.4,2.3,0.4c0,0,0.1,0.5,0.2,1.1c0.1,0.6,0.2,1.1,0.2,1.1l0,0l0,0
		c0,0,0.1-0.5,0.2-1.1c0.1-0.6,0.2-1.1,0.2-1.1c0,0,0.5-0.1,1.1-0.2c0.6-0.1,1.1-0.2,1.1-0.2l0,0l0,0c0,0-0.5-0.1-1.1-0.2
		c-0.6-0.1-1.1-0.2-1.1-0.2c0,0-0.3-2.1-0.4-2.3c0,0,0,0,0,0c0,0.2-0.4,2.3-0.4,2.3C4119.5,300.6,4117.5,300.9,4117.3,300.9
		C4117.2,300.9,4117.2,300.9,4117.3,300.9z"/>
	<path style="fill:#FFFFFF;" d="M4152.6,426.5c0.2,0,2.6,0,2.6,0c0,0,0.2,0.5,0.4,1.2s0.4,1.2,0.4,1.2l0,0l0,0c0,0,0-0.6,0-1.3
		c0-0.7,0-1.3,0-1.3c0,0,0.5-0.2,1.2-0.4s1.2-0.4,1.2-0.4l0,0l0,0c0,0-0.6,0-1.3,0s-1.3,0-1.3,0c0,0-0.8-2.3-0.8-2.5c0,0,0,0,0,0
		c0,0.2,0,2.6,0,2.6C4155,425.7,4152.8,426.4,4152.6,426.5C4152.5,426.5,4152.5,426.5,4152.6,426.5z"/>
	<path style="fill:#FFFFFF;" d="M4216.4,399.9c0.2-0.2,1.9-1.8,1.9-1.8c0,0,0.5,0.3,1.1,0.6c0.6,0.3,1.2,0.6,1.2,0.6l0,0l0,0
		c0,0-0.4-0.4-0.9-0.9c-0.5-0.5-0.9-0.9-0.9-0.9c0,0,0.3-0.5,0.6-1.1c0.3-0.6,0.6-1.2,0.6-1.2l0,0l0,0c0,0-0.4,0.4-0.9,0.9
		c-0.5,0.5-0.9,0.9-0.9,0.9c0,0-2.1-1.1-2.3-1.2c0,0,0,0,0,0c0.2,0.2,1.8,1.9,1.8,1.9C4217.5,397.6,4216.5,399.7,4216.4,399.9
		C4216.4,399.9,4216.4,399.9,4216.4,399.9z"/>
</g>
<g style="opacity:0.6;">
	<path style="fill:#FFFFFF;" d="M4873.7,457.6c0.3,0,2.9-0.5,2.9-0.5c0,0,0.1-0.6,0.2-1.4c0.1-0.8,0.2-1.4,0.2-1.5l0,0l0,0
		c0,0,0.1,0.7,0.2,1.5c0.1,0.8,0.2,1.4,0.2,1.4c0,0,0.6,0.1,1.4,0.2c0.8,0.1,1.4,0.2,1.5,0.2l0,0l0,0c0,0-0.7,0.1-1.5,0.2
		c-0.8,0.1-1.4,0.2-1.4,0.2c0,0-0.4,2.6-0.5,2.9c0,0,0,0,0,0c0-0.3-0.5-2.9-0.5-2.9C4876.6,458,4874,457.6,4873.7,457.6
		C4873.7,457.6,4873.7,457.6,4873.7,457.6z"/>
	<path style="fill:#FFFFFF;" d="M4709.4,527.7c0.2-0.2,1.9-2.7,1.9-2.7c0,0-0.4-0.6-1-1.3c-0.5-0.7-1-1.3-1-1.4l0,0l0,0
		c0,0,0.6,0.5,1.4,1c0.7,0.5,1.3,1,1.3,1c0,0,0.6-0.4,1.3-1c0.7-0.5,1.3-1,1.4-1l0,0l0,0c0,0-0.5,0.6-1,1.4c-0.5,0.7-1,1.3-1,1.3
		c0,0,1.8,2.5,1.9,2.7c0,0,0,0,0,0c-0.2-0.2-2.7-1.9-2.7-1.9S4709.6,527.5,4709.4,527.7C4709.4,527.7,4709.4,527.7,4709.4,527.7z"/>
	<path style="fill:#FFFFFF;" d="M4740.5,544.2c0.1-0.1,1.1-1.6,1.1-1.6c0,0-0.3-0.4-0.6-0.8c-0.3-0.4-0.6-0.8-0.6-0.8l0,0l0,0
		c0,0,0.4,0.3,0.8,0.6c0.4,0.3,0.8,0.6,0.8,0.6c0,0,0.4-0.3,0.8-0.6c0.4-0.3,0.8-0.6,0.8-0.6l0,0l0,0c0,0-0.3,0.4-0.6,0.8
		c-0.3,0.4-0.6,0.8-0.6,0.8c0,0,1,1.5,1.1,1.6c0,0,0,0,0,0c-0.1-0.1-1.6-1.1-1.6-1.1C4742.1,543,4740.7,544.1,4740.5,544.2
		C4740.5,544.2,4740.5,544.2,4740.5,544.2z"/>
	<path style="fill:#FFFFFF;" d="M5184.4,427.1c0.2-0.2,1.9-2.7,1.9-2.7c0,0-0.4-0.6-1-1.3c-0.5-0.7-1-1.3-1-1.4l0,0l0,0
		c0,0,0.6,0.5,1.4,1c0.7,0.5,1.3,1,1.3,1c0,0,0.6-0.4,1.3-1c0.7-0.5,1.3-1,1.4-1l0,0l0,0c0,0-0.5,0.6-1,1.4c-0.5,0.7-1,1.3-1,1.3
		c0,0,1.8,2.5,1.9,2.7c0,0,0,0,0,0c-0.2-0.2-2.7-1.9-2.7-1.9C5187.1,425.1,5184.6,426.9,5184.4,427.1
		C5184.4,427.1,5184.4,427.1,5184.4,427.1z"/>
	<path style="fill:#FFFFFF;" d="M4962.5,540.8c0.1-0.1,1.1-1.6,1.1-1.6c0,0-0.2-0.3-0.5-0.8s-0.6-0.8-0.6-0.8l0,0l0,0
		c0,0,0.4,0.3,0.8,0.6c0.4,0.3,0.8,0.5,0.8,0.5c0,0,0.4-0.2,0.8-0.5c0.4-0.3,0.8-0.6,0.8-0.6l0,0l0,0c0,0-0.3,0.4-0.6,0.8
		c-0.3,0.4-0.5,0.8-0.5,0.8c0,0,1,1.4,1.1,1.6c0,0,0,0,0,0c-0.1-0.1-1.6-1.1-1.6-1.1C4964.1,539.6,4962.7,540.7,4962.5,540.8
		C4962.5,540.8,4962.5,540.8,4962.5,540.8z"/>
	<path style="fill:#FFFFFF;" d="M4601.7,145.8c0.3,0,2.9-0.5,2.9-0.5c0,0,0.1-0.6,0.2-1.4c0.1-0.8,0.2-1.4,0.2-1.5l0,0l0,0
		c0,0,0.1,0.7,0.2,1.5c0.1,0.8,0.2,1.4,0.2,1.4c0,0,0.6,0.1,1.4,0.2c0.8,0.1,1.4,0.2,1.5,0.2l0,0l0,0c0,0-0.7,0.1-1.5,0.2
		c-0.8,0.1-1.4,0.2-1.4,0.2c0,0-0.4,2.6-0.5,2.9c0,0,0,0,0,0c0-0.3-0.5-2.9-0.5-2.9S4602,145.9,4601.7,145.8
		C4601.7,145.8,4601.7,145.8,4601.7,145.8z"/>
	<path style="fill:#FFFFFF;" d="M4690.5,229c0.1-0.1,1.1-1.6,1.1-1.6c0,0-0.2-0.3-0.5-0.8c-0.3-0.4-0.6-0.8-0.6-0.8l0,0l0,0
		c0,0,0.4,0.3,0.8,0.6c0.4,0.3,0.8,0.5,0.8,0.5c0,0,0.4-0.2,0.8-0.5c0.4-0.3,0.8-0.6,0.8-0.6l0,0l0,0c0,0-0.3,0.4-0.6,0.8
		c-0.3,0.4-0.5,0.8-0.5,0.8c0,0,1,1.4,1.1,1.6c0,0,0,0,0,0c-0.1-0.1-1.6-1.1-1.6-1.1C4692.1,227.9,4690.7,228.9,4690.5,229
		C4690.5,229,4690.5,229,4690.5,229z"/>
	<path style="fill:#FFFFFF;" d="M5305.7,214.9c-0.2-0.2-1.9-2.7-1.9-2.7c0,0,0.4-0.6,1-1.3c0.5-0.7,1-1.3,1-1.4l0,0l0,0
		c0,0-0.6,0.5-1.4,1s-1.3,1-1.3,1c0,0-0.6-0.4-1.3-1c-0.7-0.5-1.3-1-1.4-1l0,0l0,0c0,0,0.5,0.6,1,1.4c0.5,0.7,1,1.3,1,1.3
		c0,0-1.8,2.5-1.9,2.7c0,0,0,0,0,0c0.2-0.2,2.7-1.9,2.7-1.9S5305.5,214.7,5305.7,214.9C5305.7,214.9,5305.7,214.9,5305.7,214.9z"/>
	<path style="fill:#FFFFFF;" d="M5162.6,231.4c-0.1-0.1-1.1-1.6-1.1-1.6c0,0,0.3-0.4,0.6-0.8c0.3-0.4,0.6-0.8,0.6-0.8l0,0l0,0
		c0,0-0.4,0.3-0.8,0.6s-0.8,0.6-0.8,0.6c0,0-0.4-0.3-0.8-0.6c-0.4-0.3-0.8-0.6-0.8-0.6l0,0l0,0c0,0,0.3,0.4,0.6,0.8
		c0.3,0.4,0.6,0.8,0.6,0.8c0,0-1,1.5-1.1,1.6c0,0,0,0,0,0c0.1-0.1,1.6-1.1,1.6-1.1C5161,230.3,5162.4,231.3,5162.6,231.4
		C5162.6,231.4,5162.6,231.4,5162.6,231.4z"/>
	<path style="fill:#FFFFFF;" d="M4837.5,276.8c-0.1-0.1-1.1-1.6-1.1-1.6c0,0,0.2-0.3,0.5-0.8c0.3-0.4,0.6-0.8,0.6-0.8l0,0l0,0
		c0,0-0.4,0.3-0.8,0.6c-0.4,0.3-0.8,0.5-0.8,0.5c0,0-0.4-0.2-0.8-0.5c-0.4-0.3-0.8-0.6-0.8-0.6l0,0l0,0c0,0,0.3,0.4,0.6,0.8
		c0.3,0.4,0.5,0.8,0.5,0.8c0,0-1,1.4-1.1,1.6c0,0,0,0,0,0c0.1-0.1,1.6-1.1,1.6-1.1C4836,275.7,4837.4,276.7,4837.5,276.8
		C4837.5,276.8,4837.5,276.8,4837.5,276.8z"/>
	<path style="fill:#FFFFFF;" d="M4885.9,596.5c0.1-0.1,0.6-0.9,0.6-0.9c0,0-0.1-0.2-0.3-0.4c-0.2-0.2-0.3-0.4-0.3-0.4l0,0l0,0
		c0,0,0.2,0.1,0.4,0.3c0.2,0.2,0.4,0.3,0.4,0.3c0,0,0.2-0.1,0.4-0.3c0.2-0.2,0.4-0.3,0.4-0.3l0,0l0,0c0,0-0.1,0.2-0.3,0.4
		s-0.3,0.4-0.3,0.4c0,0,0.6,0.8,0.6,0.9c0,0,0,0,0,0c-0.1-0.1-0.9-0.6-0.9-0.6S4886,596.5,4885.9,596.5
		C4885.9,596.5,4885.9,596.5,4885.9,596.5z"/>
	<path style="fill:#FFFFFF;" d="M4760.7,373.7c0,0,0.8-0.4,1.8-0.9c1-0.5,1.9-0.9,1.9-0.9l0,0l0,0c0,0-0.7,0.7-1.5,1.5
		c-0.8,0.8-1.4,1.5-1.4,1.5c0,0,0.4,0.8,0.9,1.8c0.5,1,0.9,1.8,0.9,1.9l0,0l0,0c0,0-0.7-0.7-1.5-1.5s-1.5-1.4-1.5-1.4
		c0,0-3.4,1.7-3.8,1.9c0.3-0.3,2.9-3,2.9-3c0,0-1.7-3.4-1.9-3.7C4758,371.1,4760.7,373.7,4760.7,373.7z"/>
	<path style="fill:#FFFFFF;" d="M5060.1,495.9c0,0,0.6-0.3,1.4-0.7c0.7-0.4,1.4-0.7,1.4-0.7l0,0l0,0c0,0-0.5,0.5-1.1,1.1
		s-1.1,1.1-1.1,1.1c0,0,0.3,0.6,0.7,1.4s0.7,1.4,0.7,1.4l0,0l0,0c0,0-0.5-0.5-1.1-1.1s-1.1-1.1-1.1-1.1c0,0-2.5,1.3-2.8,1.4
		c0.2-0.2,2.2-2.2,2.2-2.2c0,0-1.3-2.5-1.4-2.8C5058,493.9,5060.1,495.9,5060.1,495.9z"/>
	<path style="fill:#FFFFFF;" d="M4628.1,370.4c0,0,0.6-0.3,1.4-0.7s1.4-0.7,1.4-0.7l0,0l0,0c0,0-0.5,0.5-1.1,1.1
		c-0.6,0.6-1.1,1.1-1.1,1.1c0,0,0.3,0.6,0.7,1.4s0.7,1.4,0.7,1.4l0,0l0,0c0,0-0.5-0.5-1.1-1.1s-1.1-1.1-1.1-1.1c0,0-2.5,1.3-2.8,1.4
		c0.2-0.2,2.2-2.2,2.2-2.2c0,0-1.3-2.5-1.4-2.8C4626,368.4,4628.1,370.4,4628.1,370.4z"/>
	<path style="fill:#FFFFFF;" d="M4524.1,502.8c0,0,0.6-0.3,1.4-0.7c0.7-0.4,1.4-0.7,1.4-0.7l0,0l0,0c0,0-0.5,0.5-1.1,1.1
		c-0.6,0.6-1.1,1.1-1.1,1.1c0,0,0.3,0.6,0.7,1.4s0.7,1.4,0.7,1.4l0,0l0,0c0,0-0.5-0.5-1.1-1.1c-0.6-0.6-1.1-1.1-1.1-1.1
		c0,0-2.5,1.3-2.8,1.4c0.2-0.2,2.2-2.2,2.2-2.2c0,0-1.3-2.5-1.4-2.8C4522,500.9,4524.1,502.8,4524.1,502.8z"/>
	<path style="fill:#FFFFFF;" d="M4991.5,389.6c0.2,0,2.7,0,2.7,0c0,0,0.2-0.6,0.4-1.2c0.2-0.7,0.4-1.3,0.4-1.3l0,0v0
		c0,0,0,0.6,0,1.3c0,0.7,0,1.3,0,1.3s0.6,0.2,1.2,0.4c0.7,0.2,1.3,0.4,1.3,0.4l0,0l0,0c0,0-0.6,0-1.3,0c-0.7,0-1.3,0-1.3,0
		c0,0-0.8,2.3-0.9,2.5c0,0,0,0,0,0c0-0.2,0-2.7,0-2.7S4991.7,389.6,4991.5,389.6C4991.5,389.6,4991.5,389.6,4991.5,389.6z"/>
	<path style="fill:#FFFFFF;" d="M5149.9,333.7c0.1,0.1,1.1,1.1,1.1,1.1c0,0,0.3-0.2,0.7-0.4c0.4-0.2,0.7-0.4,0.7-0.4l0,0l0,0
		c0,0-0.3,0.3-0.6,0.6c-0.3,0.3-0.6,0.6-0.6,0.6s0.2,0.3,0.4,0.7c0.2,0.4,0.4,0.7,0.4,0.7l0,0l0,0c0,0-0.3-0.3-0.6-0.6
		c-0.3-0.3-0.6-0.6-0.6-0.6c0,0-1.3,0.7-1.4,0.7c0,0,0,0,0,0c0.1-0.1,1.1-1.1,1.1-1.1C5150.6,335.2,5149.9,333.9,5149.9,333.7
		C5149.9,333.7,5149.9,333.7,5149.9,333.7z"/>
	<path style="fill:#FFFFFF;" d="M4798.8,25.3c0.2,0.2,2.4,2.3,2.4,2.3c0,0,0.7-0.3,1.5-0.7c0.8-0.4,1.5-0.7,1.5-0.7l0,0l0,0
		c0,0-0.5,0.6-1.2,1.2c-0.6,0.6-1.2,1.2-1.2,1.2c0,0,0.3,0.7,0.7,1.5c0.4,0.8,0.7,1.5,0.8,1.5l0,0l0,0c0,0-0.6-0.5-1.2-1.2
		c-0.6-0.6-1.2-1.1-1.2-1.1c0,0-2.7,1.4-3,1.5c0,0,0,0,0,0c0.2-0.2,2.4-2.4,2.4-2.4C4800.3,28.3,4798.9,25.6,4798.8,25.3
		C4798.8,25.3,4798.8,25.3,4798.8,25.3z"/>
	<path style="fill:#FFFFFF;" d="M4922.3,200.4c0.2,0,2.3-0.4,2.3-0.4c0,0,0.1-0.5,0.2-1.1c0.1-0.6,0.2-1.1,0.2-1.1l0,0l0,0
		c0,0,0.1,0.5,0.2,1.1c0.1,0.6,0.2,1.1,0.2,1.1c0,0,0.5,0.1,1.1,0.2s1.1,0.2,1.1,0.2l0,0l0,0c0,0-0.5,0.1-1.1,0.2
		c-0.6,0.1-1.1,0.2-1.1,0.2c0,0-0.3,2.1-0.4,2.3c0,0,0,0,0,0c0-0.2-0.4-2.2-0.4-2.3C4924.5,200.7,4922.5,200.4,4922.3,200.4
		C4922.2,200.4,4922.2,200.4,4922.3,200.4z"/>
	<path style="fill:#FFFFFF;" d="M4957.6,75.3c0.2,0,2.6,0,2.6,0c0,0,0.2-0.5,0.4-1.2s0.4-1.2,0.4-1.2l0,0l0,0c0,0,0,0.6,0,1.3
		c0,0.7,0,1.3,0,1.3c0,0,0.5,0.2,1.2,0.4s1.2,0.4,1.2,0.4l0,0l0,0c0,0-0.6,0-1.3,0s-1.3,0-1.3,0c0,0-0.8,2.2-0.8,2.5c0,0,0,0,0,0
		c0-0.2,0-2.6,0-2.6C4960,76.1,4957.8,75.4,4957.6,75.3C4957.5,75.3,4957.5,75.3,4957.6,75.3z"/>
	<path style="fill:#FFFFFF;" d="M5021.4,101.8c0.2,0.2,1.9,1.8,1.9,1.8c0,0,0.5-0.3,1.1-0.6c0.6-0.3,1.2-0.6,1.2-0.6l0,0l0,0
		c0,0-0.4,0.4-0.9,0.9c-0.5,0.5-0.9,0.9-0.9,0.9s0.3,0.5,0.6,1.1s0.6,1.1,0.6,1.2l0,0l0,0c0,0-0.4-0.4-0.9-0.9
		c-0.5-0.5-0.9-0.9-0.9-0.9c0,0-2.1,1.1-2.3,1.2c0,0,0,0,0,0c0.2-0.2,1.8-1.8,1.8-1.9C5022.5,104.1,5021.5,102,5021.4,101.8
		C5021.4,101.8,5021.4,101.8,5021.4,101.8z"/>
</g>
<g style="opacity:0.6;">
	<path style="fill:#FFFFFF;" d="M5611.7,540.6c0.3,0,2.9-0.5,2.9-0.5c0,0,0.1-0.6,0.2-1.4c0.1-0.8,0.2-1.4,0.2-1.5l0,0l0,0
		c0,0,0.1,0.7,0.2,1.5c0.1,0.8,0.2,1.4,0.2,1.4c0,0,0.6,0.1,1.4,0.2c0.8,0.1,1.4,0.2,1.5,0.2l0,0l0,0c0,0-0.7,0.1-1.5,0.2
		c-0.8,0.1-1.4,0.2-1.4,0.2c0,0-0.4,2.6-0.5,2.9c0,0,0,0,0,0c0-0.3-0.5-2.9-0.5-2.9S5612,540.6,5611.7,540.6
		C5611.7,540.6,5611.7,540.6,5611.7,540.6z"/>
	<path style="fill:#FFFFFF;" d="M5447.4,610.7c0.2-0.2,1.9-2.7,1.9-2.7c0,0-0.4-0.6-1-1.3c-0.5-0.7-1-1.3-1-1.4l0,0l0,0
		c0,0,0.6,0.5,1.4,1c0.7,0.5,1.3,1,1.3,1c0,0,0.6-0.4,1.3-1c0.7-0.5,1.3-1,1.4-1l0,0l0,0c0,0-0.5,0.6-1,1.4c-0.5,0.7-1,1.3-1,1.3
		c0,0,1.8,2.5,1.9,2.7c0,0,0,0,0,0c-0.2-0.2-2.7-1.9-2.7-1.9S5447.6,610.5,5447.4,610.7C5447.4,610.7,5447.4,610.7,5447.4,610.7z"/>
	<path style="fill:#FFFFFF;" d="M5478.5,627.2c0.1-0.1,1.1-1.6,1.1-1.6c0,0-0.3-0.4-0.6-0.8c-0.3-0.4-0.6-0.8-0.6-0.8l0,0l0,0
		c0,0,0.4,0.3,0.8,0.6c0.4,0.3,0.8,0.6,0.8,0.6c0,0,0.4-0.3,0.8-0.6c0.4-0.3,0.8-0.6,0.8-0.6l0,0l0,0c0,0-0.3,0.4-0.6,0.8
		c-0.3,0.4-0.6,0.8-0.6,0.8c0,0,1,1.5,1.1,1.6c0,0,0,0,0,0c-0.1-0.1-1.6-1.1-1.6-1.1C5480.1,626,5478.7,627.1,5478.5,627.2
		C5478.5,627.2,5478.5,627.2,5478.5,627.2z"/>
	<path style="fill:#FFFFFF;" d="M5922.4,510.1c0.2-0.2,1.9-2.7,1.9-2.7c0,0-0.4-0.6-1-1.3c-0.5-0.7-1-1.3-1-1.4l0,0l0,0
		c0,0,0.6,0.5,1.4,1c0.7,0.5,1.3,1,1.3,1c0,0,0.6-0.4,1.3-1c0.7-0.5,1.3-1,1.4-1l0,0l0,0c0,0-0.5,0.6-1,1.4c-0.5,0.7-1,1.3-1,1.3
		c0,0,1.8,2.5,1.9,2.7c0,0,0,0,0,0c-0.2-0.2-2.7-1.9-2.7-1.9C5925.1,508.1,5922.6,509.9,5922.4,510.1
		C5922.4,510.1,5922.4,510.1,5922.4,510.1z"/>
	<path style="fill:#FFFFFF;" d="M5988.5,578.4c0.1-0.1,1.1-1.6,1.1-1.6c0,0-0.3-0.4-0.6-0.8c-0.3-0.4-0.6-0.8-0.6-0.8l0,0l0,0
		c0,0,0.4,0.3,0.8,0.6c0.4,0.3,0.8,0.6,0.8,0.6c0,0,0.4-0.3,0.8-0.6c0.4-0.3,0.8-0.6,0.8-0.6l0,0l0,0c0,0-0.3,0.4-0.6,0.8
		c-0.3,0.4-0.6,0.8-0.6,0.8c0,0,1,1.5,1.1,1.6c0,0,0,0,0,0c-0.1-0.1-1.6-1.1-1.6-1.1C5990.1,577.2,5988.7,578.3,5988.5,578.4
		C5988.5,578.4,5988.5,578.4,5988.5,578.4z"/>
	<path style="fill:#FFFFFF;" d="M5700.5,623.8c0.1-0.1,1.1-1.6,1.1-1.6c0,0-0.2-0.3-0.5-0.8s-0.6-0.8-0.6-0.8l0,0l0,0
		c0,0,0.4,0.3,0.8,0.6c0.4,0.3,0.8,0.5,0.8,0.5c0,0,0.4-0.2,0.8-0.5c0.4-0.3,0.8-0.6,0.8-0.6l0,0l0,0c0,0-0.3,0.4-0.6,0.8
		c-0.3,0.4-0.5,0.8-0.5,0.8c0,0,1,1.4,1.1,1.6c0,0,0,0,0,0c-0.1-0.1-1.6-1.1-1.6-1.1C5702.1,622.6,5700.7,623.7,5700.5,623.8
		C5700.5,623.8,5700.5,623.8,5700.5,623.8z"/>
	<path style="fill:#FFFFFF;" d="M5339.7,228.8c0.3,0,2.9-0.5,2.9-0.5c0,0,0.1-0.6,0.2-1.4c0.1-0.8,0.2-1.4,0.2-1.5l0,0l0,0
		c0,0,0.1,0.7,0.2,1.5c0.1,0.8,0.2,1.4,0.2,1.4c0,0,0.6,0.1,1.4,0.2c0.8,0.1,1.4,0.2,1.5,0.2l0,0l0,0c0,0-0.7,0.1-1.5,0.2
		c-0.8,0.1-1.4,0.2-1.4,0.2c0,0-0.4,2.6-0.5,2.9c0,0,0,0,0,0c0-0.3-0.5-2.9-0.5-2.9S5340,228.9,5339.7,228.8
		C5339.7,228.8,5339.7,228.8,5339.7,228.8z"/>
	<path style="fill:#FFFFFF;" d="M5428.5,312c0.1-0.1,1.1-1.6,1.1-1.6c0,0-0.2-0.3-0.5-0.8c-0.3-0.4-0.6-0.8-0.6-0.8l0,0l0,0
		c0,0,0.4,0.3,0.8,0.6c0.4,0.3,0.8,0.5,0.8,0.5c0,0,0.4-0.2,0.8-0.5s0.8-0.6,0.8-0.6l0,0l0,0c0,0-0.3,0.4-0.6,0.8
		c-0.3,0.4-0.5,0.8-0.5,0.8c0,0,1,1.4,1.1,1.6c0,0,0,0,0,0c-0.1-0.1-1.6-1.1-1.6-1.1C5430.1,310.9,5428.7,311.9,5428.5,312
		C5428.5,312,5428.5,312,5428.5,312z"/>
	<path style="fill:#FFFFFF;" d="M6043.7,297.9c-0.2-0.2-1.9-2.7-1.9-2.7c0,0,0.4-0.6,1-1.3c0.5-0.7,1-1.3,1-1.4l0,0l0,0
		c0,0-0.6,0.5-1.4,1s-1.3,1-1.3,1c0,0-0.6-0.4-1.3-1c-0.7-0.5-1.3-1-1.4-1l0,0l0,0c0,0,0.5,0.6,1,1.4c0.5,0.7,1,1.3,1,1.3
		c0,0-1.8,2.5-1.9,2.7c0,0,0,0,0,0c0.2-0.2,2.7-1.9,2.7-1.9S6043.5,297.7,6043.7,297.9C6043.7,297.9,6043.7,297.9,6043.7,297.9z"/>
	<path style="fill:#FFFFFF;" d="M5900.6,314.4c-0.1-0.1-1.1-1.6-1.1-1.6c0,0,0.3-0.4,0.6-0.8s0.6-0.8,0.6-0.8l0,0l0,0
		c0,0-0.4,0.3-0.8,0.6c-0.4,0.3-0.8,0.6-0.8,0.6c0,0-0.4-0.3-0.8-0.6c-0.4-0.3-0.8-0.6-0.8-0.6l0,0l0,0c0,0,0.3,0.4,0.6,0.8
		c0.3,0.4,0.6,0.8,0.6,0.8c0,0-1,1.5-1.1,1.6c0,0,0,0,0,0c0.1-0.1,1.6-1.1,1.6-1.1C5899,313.3,5900.4,314.3,5900.6,314.4
		C5900.6,314.4,5900.6,314.4,5900.6,314.4z"/>
	<path style="fill:#FFFFFF;" d="M5575.5,359.8c-0.1-0.1-1.1-1.6-1.1-1.6c0,0,0.2-0.3,0.5-0.8c0.3-0.4,0.6-0.8,0.6-0.8l0,0l0,0
		c0,0-0.4,0.3-0.8,0.6c-0.4,0.3-0.8,0.5-0.8,0.5c0,0-0.4-0.2-0.8-0.5c-0.4-0.3-0.8-0.6-0.8-0.6l0,0l0,0c0,0,0.3,0.4,0.6,0.8
		c0.3,0.4,0.5,0.8,0.5,0.8c0,0-1,1.4-1.1,1.6c0,0,0,0,0,0c0.1-0.1,1.6-1.1,1.6-1.1C5574,358.7,5575.4,359.7,5575.5,359.8
		C5575.5,359.8,5575.5,359.8,5575.5,359.8z"/>
	<path style="fill:#FFFFFF;" d="M5623.9,679.5c0.1-0.1,0.6-0.9,0.6-0.9c0,0-0.1-0.2-0.3-0.4c-0.2-0.2-0.3-0.4-0.3-0.4l0,0l0,0
		c0,0,0.2,0.1,0.4,0.3c0.2,0.2,0.4,0.3,0.4,0.3c0,0,0.2-0.1,0.4-0.3c0.2-0.2,0.4-0.3,0.4-0.3l0,0l0,0c0,0-0.1,0.2-0.3,0.4
		s-0.3,0.4-0.3,0.4c0,0,0.6,0.8,0.6,0.9c0,0,0,0,0,0c-0.1-0.1-0.9-0.6-0.9-0.6S5624,679.5,5623.9,679.5
		C5623.9,679.5,5623.9,679.5,5623.9,679.5z"/>
	<path style="fill:#FFFFFF;" d="M5498.7,456.7c0,0,0.8-0.4,1.8-0.9c1-0.5,1.9-0.9,1.9-0.9l0,0l0,0c0,0-0.7,0.7-1.5,1.5
		c-0.8,0.8-1.4,1.5-1.4,1.5c0,0,0.4,0.8,0.9,1.8c0.5,1,0.9,1.8,0.9,1.9l0,0l0,0c0,0-0.7-0.7-1.5-1.5s-1.5-1.4-1.5-1.4
		c0,0-3.4,1.7-3.8,1.9c0.3-0.3,2.9-3,2.9-3c0,0-1.7-3.4-1.9-3.7C5496,454.1,5498.7,456.7,5498.7,456.7z"/>
	<path style="fill:#FFFFFF;" d="M5798.1,578.9c0,0,0.6-0.3,1.4-0.7s1.4-0.7,1.4-0.7l0,0l0,0c0,0-0.5,0.5-1.1,1.1s-1.1,1.1-1.1,1.1
		c0,0,0.3,0.6,0.7,1.4s0.7,1.4,0.7,1.4l0,0l0,0c0,0-0.5-0.5-1.1-1.1s-1.1-1.1-1.1-1.1c0,0-2.5,1.3-2.8,1.4c0.2-0.2,2.2-2.2,2.2-2.2
		c0,0-1.3-2.5-1.4-2.8C5796,576.9,5798.1,578.9,5798.1,578.9z"/>
	<path style="fill:#FFFFFF;" d="M5366.1,453.4c0,0,0.6-0.3,1.4-0.7s1.4-0.7,1.4-0.7l0,0l0,0c0,0-0.5,0.5-1.1,1.1
		c-0.6,0.6-1.1,1.1-1.1,1.1c0,0,0.3,0.6,0.7,1.4s0.7,1.4,0.7,1.4l0,0l0,0c0,0-0.5-0.5-1.1-1.1s-1.1-1.1-1.1-1.1c0,0-2.5,1.3-2.8,1.4
		c0.2-0.2,2.2-2.2,2.2-2.2c0,0-1.3-2.5-1.4-2.8C5364,451.4,5366.1,453.4,5366.1,453.4z"/>
	<path style="fill:#FFFFFF;" d="M5262.1,585.8c0,0,0.6-0.3,1.4-0.7s1.4-0.7,1.4-0.7l0,0l0,0c0,0-0.5,0.5-1.1,1.1
		c-0.6,0.6-1.1,1.1-1.1,1.1c0,0,0.3,0.6,0.7,1.4c0.4,0.7,0.7,1.4,0.7,1.4l0,0l0,0c0,0-0.5-0.5-1.1-1.1c-0.6-0.6-1.1-1.1-1.1-1.1
		c0,0-2.5,1.3-2.8,1.4c0.2-0.2,2.2-2.2,2.2-2.2c0,0-1.3-2.5-1.4-2.8C5260,583.9,5262.1,585.8,5262.1,585.8z"/>
	<path style="fill:#FFFFFF;" d="M5742.7,476.5c0.2,0.2,2.4,2.3,2.4,2.3c0,0,0.7-0.3,1.5-0.7c0.8-0.4,1.5-0.7,1.5-0.7l0,0l0,0
		c0,0-0.5,0.6-1.2,1.2c-0.6,0.6-1.2,1.2-1.2,1.2c0,0,0.3,0.7,0.7,1.5c0.4,0.8,0.7,1.5,0.8,1.5l0,0l0,0c0,0-0.6-0.5-1.2-1.2
		c-0.6-0.6-1.2-1.1-1.2-1.1c0,0-2.7,1.4-3,1.5c0,0,0,0,0,0c0.2-0.2,2.4-2.4,2.4-2.4C5744.2,479.5,5742.8,476.8,5742.7,476.5
		C5742.7,476.5,5742.7,476.5,5742.7,476.5z"/>
	<path style="fill:#FFFFFF;" d="M5862.4,76.2c0.2,0,2.5-0.4,2.5-0.4c0,0,0.1-0.6,0.2-1.2c0.1-0.7,0.2-1.2,0.2-1.3l0,0l0,0
		c0,0,0.1,0.6,0.2,1.3c0.1,0.7,0.2,1.2,0.2,1.2c0,0,0.6,0.1,1.2,0.2c0.7,0.1,1.3,0.2,1.3,0.2l0,0l0,0c0,0-0.6,0.1-1.3,0.2
		c-0.7,0.1-1.2,0.2-1.2,0.2c0,0-0.4,2.3-0.4,2.5c0,0,0,0,0,0c0-0.2-0.4-2.5-0.4-2.5C5864.9,76.6,5862.6,76.2,5862.4,76.2
		C5862.4,76.2,5862.4,76.2,5862.4,76.2z"/>
	<path style="fill:#FFFFFF;" d="M5971,20.5c0.2,0.2,2.1,2,2.1,2c0,0,0.6-0.3,1.3-0.6c0.7-0.3,1.3-0.6,1.3-0.7l0,0l0,0
		c0,0-0.5,0.5-1,1c-0.6,0.6-1,1-1,1c0,0,0.3,0.6,0.6,1.3c0.4,0.7,0.6,1.3,0.7,1.3l0,0l0,0c0,0-0.5-0.5-1-1c-0.6-0.5-1-1-1-1
		c0,0-2.4,1.2-2.6,1.3c0,0,0,0,0,0c0.2-0.2,2-2.1,2-2.1C5972.3,23.1,5971.1,20.7,5971,20.5C5971,20.5,5971,20.5,5971,20.5z"/>
	<path style="fill:#FFFFFF;" d="M5887.9,416.7c0.1,0.1,1.1,1.1,1.1,1.1c0,0,0.3-0.2,0.7-0.4c0.4-0.2,0.7-0.4,0.7-0.4l0,0l0,0
		c0,0-0.3,0.3-0.6,0.6c-0.3,0.3-0.6,0.6-0.6,0.6s0.2,0.3,0.4,0.7c0.2,0.4,0.4,0.7,0.4,0.7l0,0l0,0c0,0-0.3-0.3-0.6-0.6
		c-0.3-0.3-0.6-0.6-0.6-0.6c0,0-1.3,0.7-1.4,0.7c0,0,0,0,0,0c0.1-0.1,1.1-1.1,1.1-1.1C5888.6,418.2,5887.9,416.9,5887.9,416.7
		C5887.9,416.7,5887.9,416.7,5887.9,416.7z"/>
	<path style="fill:#FFFFFF;" d="M5536.8,108.3c0.2,0.2,2.4,2.3,2.4,2.3c0,0,0.7-0.3,1.5-0.7c0.8-0.4,1.5-0.7,1.5-0.7l0,0l0,0
		c0,0-0.5,0.6-1.2,1.2c-0.6,0.6-1.2,1.2-1.2,1.2c0,0,0.3,0.7,0.7,1.5c0.4,0.8,0.7,1.5,0.8,1.5l0,0l0,0c0,0-0.6-0.5-1.2-1.2
		c-0.6-0.6-1.2-1.1-1.2-1.1c0,0-2.7,1.4-3,1.5c0,0,0,0,0,0c0.2-0.2,2.4-2.4,2.4-2.4C5538.3,111.3,5536.9,108.6,5536.8,108.3
		C5536.8,108.3,5536.8,108.3,5536.8,108.3z"/>
	<path style="fill:#FFFFFF;" d="M5660.3,283.4c0.2,0,2.3-0.4,2.3-0.4c0,0,0.1-0.5,0.2-1.1c0.1-0.6,0.2-1.1,0.2-1.1l0,0l0,0
		c0,0,0.1,0.5,0.2,1.1c0.1,0.6,0.2,1.1,0.2,1.1c0,0,0.5,0.1,1.1,0.2c0.6,0.1,1.1,0.2,1.1,0.2l0,0l0,0c0,0-0.5,0.1-1.1,0.2
		c-0.6,0.1-1.1,0.2-1.1,0.2c0,0-0.3,2.1-0.4,2.3c0,0,0,0,0,0c0-0.2-0.4-2.2-0.4-2.3C5662.5,283.7,5660.5,283.4,5660.3,283.4
		C5660.2,283.4,5660.2,283.4,5660.3,283.4z"/>
	<path style="fill:#FFFFFF;" d="M5695.6,158.3c0.2,0,2.6,0,2.6,0c0,0,0.2-0.5,0.4-1.2s0.4-1.2,0.4-1.2l0,0l0,0c0,0,0,0.6,0,1.3
		s0,1.3,0,1.3c0,0,0.5,0.2,1.2,0.4s1.2,0.4,1.2,0.4l0,0l0,0c0,0-0.6,0-1.3,0c-0.7,0-1.3,0-1.3,0c0,0-0.8,2.2-0.8,2.5c0,0,0,0,0,0
		c0-0.2,0-2.6,0-2.6C5698,159.1,5695.8,158.4,5695.6,158.3C5695.5,158.3,5695.5,158.3,5695.6,158.3z"/>
	<path style="fill:#FFFFFF;" d="M5759.4,184.8c0.2,0.2,1.9,1.8,1.9,1.8c0,0,0.5-0.3,1.1-0.6c0.6-0.3,1.2-0.6,1.2-0.6l0,0l0,0
		c0,0-0.4,0.4-0.9,0.9c-0.5,0.5-0.9,0.9-0.9,0.9c0,0,0.3,0.5,0.6,1.1c0.3,0.6,0.6,1.1,0.6,1.2l0,0l0,0c0,0-0.4-0.4-0.9-0.9
		c-0.5-0.5-0.9-0.9-0.9-0.9c0,0-2.1,1.1-2.3,1.2c0,0,0,0,0,0c0.2-0.2,1.8-1.8,1.8-1.9C5760.5,187.1,5759.5,185,5759.4,184.8
		C5759.4,184.8,5759.4,184.8,5759.4,184.8z"/>
</g>
<g style="opacity:0.6;">
	<path style="fill:#FFFFFF;" d="M6398.7,214.7c0.3,0,2.9,0.5,2.9,0.5c0,0,0.1,0.6,0.2,1.4c0.1,0.8,0.2,1.4,0.2,1.5l0,0l0,0
		c0,0,0.1-0.7,0.2-1.5c0.1-0.8,0.2-1.4,0.2-1.4c0,0,0.6-0.1,1.4-0.2c0.8-0.1,1.4-0.2,1.5-0.2l0,0l0,0c0,0-0.7-0.1-1.5-0.2
		c-0.8-0.1-1.4-0.2-1.4-0.2c0,0-0.4-2.7-0.5-2.9c0,0,0,0,0,0c0,0.3-0.5,2.9-0.5,2.9C6401.6,214.2,6399,214.6,6398.7,214.7
		C6398.7,214.7,6398.7,214.7,6398.7,214.7z"/>
	<path style="fill:#FFFFFF;" d="M6234.4,144.3c0.2,0.2,1.9,2.7,1.9,2.7c0,0-0.4,0.6-1,1.3c-0.5,0.7-1,1.3-1,1.4l0,0l0,0
		c0,0,0.6-0.5,1.4-1c0.7-0.5,1.3-1,1.3-1c0,0,0.6,0.4,1.3,1c0.7,0.5,1.3,1,1.4,1l0,0l0,0c0,0-0.5-0.6-1-1.4c-0.5-0.7-1-1.3-1-1.3
		c0,0,1.8-2.5,1.9-2.7c0,0,0,0,0,0c-0.2,0.2-2.7,1.9-2.7,1.9C6237.1,146.3,6234.6,144.5,6234.4,144.3
		C6234.4,144.3,6234.4,144.3,6234.4,144.3z"/>
	<path style="fill:#FFFFFF;" d="M6265.5,127.7c0.1,0.1,1.1,1.6,1.1,1.6c0,0-0.3,0.4-0.6,0.8c-0.3,0.4-0.6,0.8-0.6,0.8l0,0l0,0
		c0,0,0.4-0.3,0.8-0.6c0.4-0.3,0.8-0.6,0.8-0.6c0,0,0.4,0.3,0.8,0.6c0.4,0.3,0.8,0.6,0.8,0.6l0,0l0,0c0,0-0.3-0.4-0.6-0.8
		c-0.3-0.4-0.6-0.8-0.6-0.8c0,0,1-1.5,1.1-1.6c0,0,0,0,0,0c-0.1,0.1-1.6,1.1-1.6,1.1C6267.1,128.9,6265.7,127.8,6265.5,127.7
		C6265.5,127.7,6265.5,127.7,6265.5,127.7z"/>
	<path style="fill:#FFFFFF;" d="M6709.4,245.3c0.2,0.2,1.9,2.7,1.9,2.7c0,0-0.4,0.6-1,1.3c-0.5,0.7-1,1.3-1,1.4l0,0l0,0
		c0,0,0.6-0.5,1.4-1c0.7-0.5,1.3-1,1.3-1c0,0,0.6,0.4,1.3,1c0.7,0.5,1.3,1,1.4,1l0,0l0,0c0,0-0.5-0.6-1-1.4c-0.5-0.7-1-1.3-1-1.3
		c0,0,1.8-2.5,1.9-2.7c0,0,0,0,0,0c-0.2,0.2-2.7,1.9-2.7,1.9C6712.1,247.3,6709.6,245.5,6709.4,245.3
		C6709.4,245.3,6709.4,245.3,6709.4,245.3z"/>
	<path style="fill:#FFFFFF;" d="M6487.5,131.1c0.1,0.1,1.1,1.6,1.1,1.6c0,0-0.2,0.4-0.5,0.8c-0.3,0.4-0.6,0.8-0.6,0.8l0,0l0,0
		c0,0,0.4-0.3,0.8-0.6c0.4-0.3,0.8-0.6,0.8-0.6c0,0,0.4,0.2,0.8,0.6s0.8,0.6,0.8,0.6l0,0l0,0c0,0-0.3-0.4-0.6-0.8
		c-0.3-0.4-0.5-0.8-0.5-0.8c0,0,1-1.4,1.1-1.6c0,0,0,0,0,0c-0.1,0.1-1.6,1.1-1.6,1.1C6489.1,132.3,6487.7,131.2,6487.5,131.1
		C6487.5,131.1,6487.5,131.1,6487.5,131.1z"/>
	<path style="fill:#FFFFFF;" d="M6126.7,527.7c0.3,0,2.9,0.5,2.9,0.5c0,0,0.1,0.6,0.2,1.4c0.1,0.8,0.2,1.4,0.2,1.5l0,0l0,0
		c0,0,0.1-0.7,0.2-1.5c0.1-0.8,0.2-1.4,0.2-1.4c0,0,0.6-0.1,1.4-0.2c0.8-0.1,1.4-0.2,1.5-0.2l0,0l0,0c0,0-0.7-0.1-1.5-0.2
		c-0.8-0.1-1.4-0.2-1.4-0.2c0,0-0.4-2.7-0.5-2.9c0,0,0,0,0,0c0,0.3-0.5,2.9-0.5,2.9S6127,527.6,6126.7,527.7
		C6126.7,527.7,6126.7,527.7,6126.7,527.7z"/>
	<path style="fill:#FFFFFF;" d="M6215.5,444.1c0.1,0.1,1.1,1.6,1.1,1.6c0,0-0.2,0.4-0.5,0.8s-0.6,0.8-0.6,0.8l0,0l0,0
		c0,0,0.4-0.3,0.8-0.6c0.4-0.3,0.8-0.6,0.8-0.6c0,0,0.4,0.2,0.8,0.6c0.4,0.3,0.8,0.6,0.8,0.6l0,0l0,0c0,0-0.3-0.4-0.6-0.8
		c-0.3-0.4-0.5-0.8-0.5-0.8c0,0,1-1.4,1.1-1.6c0,0,0,0,0,0c-0.1,0.1-1.6,1.1-1.6,1.1C6217.1,445.3,6215.7,444.2,6215.5,444.1
		C6215.5,444.1,6215.5,444.1,6215.5,444.1z"/>
	<path style="fill:#FFFFFF;" d="M6830.7,458.3c-0.2,0.2-1.9,2.7-1.9,2.7c0,0,0.4,0.6,1,1.3c0.5,0.7,1,1.3,1,1.4l0,0l0,0
		c0,0-0.6-0.5-1.4-1s-1.3-1-1.3-1c0,0-0.6,0.4-1.3,1c-0.7,0.5-1.3,1-1.4,1l0,0l0,0c0,0,0.5-0.6,1-1.4c0.5-0.7,1-1.3,1-1.3
		c0,0-1.8-2.5-1.9-2.7c0,0,0,0,0,0c0.2,0.2,2.7,1.9,2.7,1.9S6830.5,458.5,6830.7,458.3C6830.7,458.3,6830.7,458.3,6830.7,458.3z"/>
	<path style="fill:#FFFFFF;" d="M6687.6,441.7c-0.1,0.1-1.1,1.6-1.1,1.6c0,0,0.3,0.4,0.6,0.8s0.6,0.8,0.6,0.8l0,0l0,0
		c0,0-0.4-0.3-0.8-0.6s-0.8-0.6-0.8-0.6c0,0-0.4,0.3-0.8,0.6c-0.4,0.3-0.8,0.6-0.8,0.6l0,0l0,0c0,0,0.3-0.4,0.6-0.8
		c0.3-0.4,0.6-0.8,0.6-0.8c0,0-1-1.5-1.1-1.6c0,0,0,0,0,0c0.1,0.1,1.6,1.1,1.6,1.1C6686,442.9,6687.4,441.8,6687.6,441.7
		C6687.6,441.7,6687.6,441.7,6687.6,441.7z"/>
	<path style="fill:#FFFFFF;" d="M6362.5,396.1c-0.1,0.1-1.1,1.6-1.1,1.6c0,0,0.2,0.4,0.5,0.8c0.3,0.4,0.6,0.8,0.6,0.8l0,0l0,0
		c0,0-0.4-0.3-0.8-0.6s-0.8-0.6-0.8-0.6c0,0-0.4,0.2-0.8,0.6c-0.4,0.3-0.8,0.6-0.8,0.6l0,0l0,0c0,0,0.3-0.4,0.6-0.8
		c0.3-0.4,0.5-0.8,0.5-0.8c0,0-1-1.4-1.1-1.6c0,0,0,0,0,0c0.1,0.1,1.6,1.1,1.6,1.1C6361,397.3,6362.4,396.2,6362.5,396.1
		C6362.5,396.1,6362.5,396.1,6362.5,396.1z"/>
	<path style="fill:#FFFFFF;" d="M6410.9,75.1c0.1,0.1,0.6,0.9,0.6,0.9c0,0-0.1,0.2-0.3,0.4c-0.2,0.2-0.3,0.4-0.3,0.4l0,0l0,0
		c0,0,0.2-0.1,0.4-0.3c0.2-0.2,0.4-0.3,0.4-0.3c0,0,0.2,0.1,0.4,0.3c0.2,0.2,0.4,0.3,0.4,0.3l0,0l0,0c0,0-0.1-0.2-0.3-0.4
		c-0.2-0.2-0.3-0.4-0.3-0.4c0,0,0.6-0.8,0.6-0.9c0,0,0,0,0,0c-0.1,0.1-0.9,0.6-0.9,0.6S6411,75.2,6410.9,75.1
		C6410.9,75.1,6410.9,75.1,6410.9,75.1z"/>
	<path style="fill:#FFFFFF;" d="M6285.7,298.9c0,0,0.8,0.4,1.8,0.9c1,0.5,1.9,0.9,1.9,0.9l0,0l0,0c0,0-0.7-0.7-1.5-1.5
		c-0.8-0.8-1.4-1.5-1.4-1.5c0,0,0.4-0.8,0.9-1.8s0.9-1.9,0.9-1.9l0,0l0,0c0,0-0.7,0.7-1.5,1.5s-1.5,1.4-1.5,1.4c0,0-3.4-1.7-3.8-1.9
		c0.3,0.3,2.9,3,2.9,3c0,0-1.7,3.4-1.9,3.8C6283,301.5,6285.7,298.9,6285.7,298.9z"/>
	<path style="fill:#FFFFFF;" d="M6585.1,176.2c0,0,0.6,0.3,1.4,0.7s1.4,0.7,1.4,0.7l0,0l0,0c0,0-0.5-0.5-1.1-1.1s-1.1-1.1-1.1-1.1
		c0,0,0.3-0.6,0.7-1.4s0.7-1.4,0.7-1.4l0,0l0,0c0,0-0.5,0.5-1.1,1.1s-1.1,1.1-1.1,1.1c0,0-2.5-1.3-2.8-1.4c0.2,0.2,2.2,2.2,2.2,2.2
		c0,0-1.3,2.5-1.4,2.8C6583,178.2,6585.1,176.2,6585.1,176.2z"/>
	<path style="fill:#FFFFFF;" d="M6153.1,302.2c0,0,0.6,0.3,1.4,0.7c0.7,0.4,1.4,0.7,1.4,0.7l0,0l0,0c0,0-0.5-0.5-1.1-1.1
		c-0.6-0.6-1.1-1.1-1.1-1.1c0,0,0.3-0.6,0.7-1.4c0.4-0.7,0.7-1.4,0.7-1.4l0,0l0,0c0,0-0.5,0.5-1.1,1.1c-0.6,0.6-1.1,1.1-1.1,1.1
		c0,0-2.5-1.3-2.8-1.4c0.2,0.2,2.2,2.2,2.2,2.2c0,0-1.3,2.5-1.4,2.8C6151,304.2,6153.1,302.2,6153.1,302.2z"/>
	<path style="fill:#FFFFFF;" d="M6049.1,169.2c0,0,0.6,0.3,1.4,0.7s1.4,0.7,1.4,0.7l0,0l0,0c0,0-0.5-0.5-1.1-1.1s-1.1-1.1-1.1-1.1
		c0,0,0.3-0.6,0.7-1.4s0.7-1.4,0.7-1.4l0,0l0,0c0,0-0.5,0.5-1.1,1.1s-1.1,1.1-1.1,1.1c0,0-2.5-1.3-2.8-1.4c0.2,0.2,2.2,2.2,2.2,2.2
		c0,0-1.3,2.5-1.4,2.8C6047,171.2,6049.1,169.2,6049.1,169.2z"/>
	<path style="fill:#FFFFFF;" d="M6516.5,283c0.2,0,2.7,0,2.7,0c0,0,0.2,0.6,0.4,1.2c0.2,0.7,0.4,1.3,0.4,1.3l0,0v0c0,0,0-0.6,0-1.3
		c0-0.7,0-1.3,0-1.3s0.6-0.2,1.2-0.4s1.3-0.4,1.3-0.4l0,0l0,0c0,0-0.6,0-1.3,0c-0.7,0-1.3,0-1.3,0c0,0-0.8-2.3-0.9-2.5c0,0,0,0,0,0
		c0,0.2,0,2.7,0,2.7C6519,282.1,6516.7,282.9,6516.5,283C6516.5,283,6516.5,283,6516.5,283z"/>
	<path style="fill:#FFFFFF;" d="M6649.4,680.9c0.2,0,2.5,0.4,2.5,0.4c0,0,0.1,0.6,0.2,1.2c0.1,0.7,0.2,1.3,0.2,1.3l0,0l0,0
		c0,0,0.1-0.6,0.2-1.3c0.1-0.7,0.2-1.2,0.2-1.2c0,0,0.6-0.1,1.2-0.2c0.7-0.1,1.3-0.2,1.3-0.2l0,0l0,0c0,0-0.6-0.1-1.3-0.2
		c-0.7-0.1-1.2-0.2-1.2-0.2c0,0-0.4-2.3-0.4-2.5c0,0,0,0,0,0c0,0.2-0.4,2.5-0.4,2.5C6651.9,680.5,6649.6,680.9,6649.4,680.9
		C6649.4,680.9,6649.4,680.9,6649.4,680.9z"/>
	<path style="fill:#FFFFFF;" d="M6687.3,765.8c0.2,0,2.3,0,2.3,0c0,0,0.2,0.5,0.4,1.1c0.2,0.6,0.4,1.1,0.4,1.1l0,0v0
		c0,0,0-0.5,0-1.2s0-1.1,0-1.1c0,0,0.5-0.2,1.1-0.4c0.6-0.2,1.1-0.4,1.1-0.4l0,0l0,0c0,0-0.5,0-1.2,0c-0.6,0-1.1,0-1.1,0
		c0,0-0.7-2-0.7-2.2c0,0,0,0,0,0c0,0.2,0,2.3,0,2.3C6689.5,765,6687.5,765.7,6687.3,765.8C6687.3,765.8,6687.3,765.8,6687.3,765.8z"
		/>
	<path style="fill:#FFFFFF;" d="M6758,736.8c0.2-0.2,2.1-2,2.1-2c0,0,0.6,0.3,1.3,0.6c0.7,0.4,1.3,0.6,1.3,0.7l0,0l0,0
		c0,0-0.5-0.5-1-1c-0.6-0.6-1-1-1-1c0,0,0.3-0.6,0.6-1.3c0.4-0.7,0.6-1.3,0.7-1.3l0,0l0,0c0,0-0.5,0.5-1,1c-0.6,0.6-1,1-1,1
		c0,0-2.4-1.2-2.6-1.3c0,0,0,0,0,0c0.2,0.2,2,2.1,2,2.1S6758.1,736.6,6758,736.8C6758,736.8,6758,736.8,6758,736.8z"/>
	<path style="fill:#FFFFFF;" d="M6674.9,339c0.1-0.1,1.1-1.1,1.1-1.1c0,0,0.3,0.2,0.7,0.4s0.7,0.4,0.7,0.4l0,0l0,0
		c0,0-0.3-0.3-0.6-0.6c-0.3-0.3-0.6-0.6-0.6-0.6s0.2-0.3,0.4-0.7c0.2-0.4,0.4-0.7,0.4-0.7l0,0l0,0c0,0-0.3,0.3-0.6,0.6
		c-0.3,0.3-0.6,0.6-0.6,0.6c0,0-1.3-0.7-1.4-0.7c0,0,0,0,0,0c0.1,0.1,1.1,1.1,1.1,1.1S6674.9,338.9,6674.9,339
		C6674.9,339,6674.9,339,6674.9,339z"/>
	<path style="fill:#FFFFFF;" d="M6444.5,785c0.2,0,2.7,0,2.7,0c0,0,0.2,0.6,0.4,1.2c0.2,0.7,0.4,1.3,0.4,1.3l0,0v0c0,0,0-0.6,0-1.3
		c0-0.7,0-1.3,0-1.3s0.6-0.2,1.2-0.4s1.3-0.4,1.3-0.4l0,0l0,0c0,0-0.6,0-1.3,0s-1.3,0-1.3,0c0,0-0.8-2.3-0.9-2.5c0,0,0,0,0,0
		c0,0.2,0,2.7,0,2.7C6447,784.1,6444.7,784.9,6444.5,785C6444.5,785,6444.5,785,6444.5,785z"/>
	<path style="fill:#FFFFFF;" d="M6323.8,648.7c0.2-0.2,2.4-2.4,2.4-2.4c0,0,0.7,0.3,1.5,0.7c0.8,0.4,1.5,0.7,1.5,0.8l0,0l0,0
		c0,0-0.5-0.6-1.2-1.2c-0.6-0.6-1.2-1.2-1.2-1.2c0,0,0.3-0.7,0.7-1.5c0.4-0.8,0.7-1.5,0.8-1.5l0,0l0,0c0,0-0.6,0.5-1.2,1.2
		c-0.6,0.6-1.2,1.2-1.2,1.2c0,0-2.7-1.4-3-1.5c0,0,0,0,0,0c0.2,0.2,2.4,2.4,2.4,2.4C6325.3,645.7,6323.9,648.4,6323.8,648.7
		C6323.8,648.7,6323.8,648.7,6323.8,648.7z"/>
	<path style="fill:#FFFFFF;" d="M6447.3,472.9c0.2,0,2.3,0.4,2.3,0.4c0,0,0.1,0.5,0.2,1.1c0.1,0.6,0.2,1.1,0.2,1.1l0,0l0,0
		c0,0,0.1-0.5,0.2-1.1c0.1-0.6,0.2-1.1,0.2-1.1c0,0,0.5-0.1,1.1-0.2c0.6-0.1,1.1-0.2,1.1-0.2l0,0l0,0c0,0-0.5-0.1-1.1-0.2
		c-0.6-0.1-1.1-0.2-1.1-0.2c0,0-0.3-2.1-0.4-2.3c0,0,0,0,0,0c0,0.2-0.4,2.3-0.4,2.3C6449.5,472.6,6447.5,472.9,6447.3,472.9
		C6447.2,472.9,6447.2,472.9,6447.3,472.9z"/>
	<path style="fill:#FFFFFF;" d="M6482.6,598.5c0.2,0,2.6,0,2.6,0c0,0,0.2,0.5,0.4,1.2c0.2,0.7,0.4,1.2,0.4,1.2l0,0l0,0
		c0,0,0-0.6,0-1.3c0-0.7,0-1.3,0-1.3c0,0,0.5-0.2,1.2-0.4s1.2-0.4,1.2-0.4l0,0l0,0c0,0-0.6,0-1.3,0s-1.3,0-1.3,0
		c0,0-0.8-2.3-0.8-2.5c0,0,0,0,0,0c0,0.2,0,2.6,0,2.6C6485,597.7,6482.8,598.4,6482.6,598.5C6482.5,598.5,6482.5,598.5,6482.6,598.5
		z"/>
	<path style="fill:#FFFFFF;" d="M6546.4,571.9c0.2-0.2,1.9-1.8,1.9-1.8c0,0,0.5,0.3,1.1,0.6c0.6,0.3,1.2,0.6,1.2,0.6l0,0l0,0
		c0,0-0.4-0.4-0.9-0.9c-0.5-0.5-0.9-0.9-0.9-0.9s0.3-0.5,0.6-1.1s0.6-1.2,0.6-1.2l0,0l0,0c0,0-0.4,0.4-0.9,0.9
		c-0.5,0.5-0.9,0.9-0.9,0.9c0,0-2.1-1.1-2.3-1.2c0,0,0,0,0,0c0.2,0.2,1.8,1.9,1.8,1.9C6547.5,569.6,6546.5,571.7,6546.4,571.9
		C6546.4,571.9,6546.4,571.9,6546.4,571.9z"/>
</g>
<g style="opacity:0.6;">
	<path style="fill:#FFFFFF;" d="M7116.9,48.7c0.3,0,2.9,0.5,2.9,0.5c0,0,0.1,0.6,0.2,1.4c0.1,0.8,0.2,1.4,0.2,1.5l0,0l0,0
		c0,0,0.1-0.7,0.2-1.5s0.2-1.4,0.2-1.4c0,0,0.6-0.1,1.4-0.2c0.8-0.1,1.4-0.2,1.5-0.2l0,0l0,0c0,0-0.7-0.1-1.5-0.2
		c-0.8-0.1-1.4-0.2-1.4-0.2c0,0-0.4-2.7-0.5-2.9c0,0,0,0,0,0c0,0.3-0.5,2.9-0.5,2.9C7119.8,48.2,7117.1,48.6,7116.9,48.7
		C7116.9,48.7,7116.9,48.7,7116.9,48.7z"/>
	<path style="fill:#FFFFFF;" d="M7427.6,79.3c0.2,0.2,1.9,2.7,1.9,2.7c0,0-0.4,0.6-1,1.3c-0.5,0.7-1,1.3-1,1.4l0,0l0,0
		c0,0,0.6-0.5,1.4-1c0.7-0.5,1.3-1,1.3-1c0,0,0.6,0.4,1.3,1c0.7,0.5,1.3,1,1.4,1l0,0l0,0c0,0-0.5-0.6-1-1.4c-0.5-0.7-1-1.3-1-1.3
		c0,0,1.8-2.5,1.9-2.7c0,0,0,0,0,0c-0.2,0.2-2.7,1.9-2.7,1.9C7430.4,81.3,7427.9,79.5,7427.6,79.3
		C7427.6,79.3,7427.6,79.3,7427.6,79.3z"/>
	<path style="fill:#FFFFFF;" d="M7493.8,10.7c0.1,0.1,1.1,1.6,1.1,1.6c0,0-0.3,0.4-0.6,0.8c-0.3,0.4-0.6,0.8-0.6,0.8l0,0l0,0
		c0,0,0.4-0.3,0.8-0.6c0.4-0.3,0.8-0.6,0.8-0.6c0,0,0.4,0.3,0.8,0.6c0.4,0.3,0.8,0.6,0.8,0.6l0,0l0,0c0,0-0.3-0.4-0.6-0.8
		c-0.3-0.4-0.6-0.8-0.6-0.8c0,0,1-1.5,1.1-1.6c0,0,0,0,0,0c-0.1,0.1-1.6,1.1-1.6,1.1C7495.4,11.9,7493.9,10.8,7493.8,10.7
		C7493.8,10.7,7493.8,10.7,7493.8,10.7z"/>
	<path style="fill:#FFFFFF;" d="M6844.8,361.7c0.3,0,2.9,0.5,2.9,0.5c0,0,0.1,0.6,0.2,1.4c0.1,0.8,0.2,1.4,0.2,1.5l0,0l0,0
		c0,0,0.1-0.7,0.2-1.5c0.1-0.8,0.2-1.4,0.2-1.4c0,0,0.6-0.1,1.4-0.2c0.8-0.1,1.4-0.2,1.5-0.2l0,0l0,0c0,0-0.7-0.1-1.5-0.2
		c-0.8-0.1-1.4-0.2-1.4-0.2c0,0-0.4-2.7-0.5-2.9c0,0,0,0,0,0c0,0.3-0.5,2.9-0.5,2.9C6847.7,361.2,6845,361.6,6844.8,361.7
		C6844.7,361.7,6844.7,361.7,6844.8,361.7z"/>
	<path style="fill:#FFFFFF;" d="M6933.6,278.1c0.1,0.1,1.1,1.6,1.1,1.6c0,0-0.2,0.4-0.6,0.8s-0.6,0.8-0.6,0.8l0,0l0,0
		c0,0,0.4-0.3,0.8-0.6s0.8-0.6,0.8-0.6c0,0,0.4,0.2,0.8,0.6c0.4,0.3,0.8,0.6,0.8,0.6l0,0l0,0c0,0-0.3-0.4-0.6-0.8
		c-0.3-0.4-0.6-0.8-0.6-0.8c0,0,1-1.4,1.1-1.6c0,0,0,0,0,0c-0.1,0.1-1.6,1.1-1.6,1.1C6935.2,279.3,6933.8,278.2,6933.6,278.1
		C6933.6,278.1,6933.6,278.1,6933.6,278.1z"/>
	<path style="fill:#FFFFFF;" d="M7405.8,275.7c-0.1,0.1-1.1,1.6-1.1,1.6c0,0,0.3,0.4,0.6,0.8s0.6,0.8,0.6,0.8l0,0l0,0
		c0,0-0.4-0.3-0.8-0.6s-0.8-0.6-0.8-0.6c0,0-0.4,0.3-0.8,0.6s-0.8,0.6-0.8,0.6l0,0l0,0c0,0,0.3-0.4,0.6-0.8c0.3-0.4,0.6-0.8,0.6-0.8
		c0,0-1-1.5-1.1-1.6c0,0,0,0,0,0c0.1,0.1,1.6,1.1,1.6,1.1S7405.7,275.8,7405.8,275.7C7405.8,275.7,7405.8,275.7,7405.8,275.7z"/>
	<path style="fill:#FFFFFF;" d="M7080.7,230.1c-0.1,0.1-1.1,1.6-1.1,1.6c0,0,0.2,0.4,0.5,0.8c0.3,0.4,0.6,0.8,0.6,0.8l0,0l0,0
		c0,0-0.4-0.3-0.8-0.6s-0.8-0.6-0.8-0.6c0,0-0.4,0.2-0.8,0.6s-0.8,0.6-0.8,0.6l0,0l0,0c0,0,0.3-0.4,0.6-0.8c0.3-0.4,0.6-0.8,0.6-0.8
		c0,0-1-1.4-1.1-1.6c0,0,0,0,0,0c0.1,0.1,1.6,1.1,1.6,1.1C7079.1,231.3,7080.5,230.2,7080.7,230.1
		C7080.7,230.1,7080.7,230.1,7080.7,230.1z"/>
	<path style="fill:#FFFFFF;" d="M7003.8,132.9c0,0,0.8,0.4,1.8,0.9c1,0.5,1.9,0.9,1.9,0.9l0,0l0,0c0,0-0.7-0.7-1.5-1.5
		c-0.8-0.8-1.4-1.5-1.4-1.5s0.4-0.8,0.9-1.8s0.9-1.9,0.9-1.9l0,0l0,0c0,0-0.7,0.7-1.5,1.5c-0.8,0.8-1.5,1.4-1.5,1.4
		c0,0-3.4-1.7-3.8-1.9c0.3,0.3,2.9,3,2.9,3c0,0-1.7,3.4-1.9,3.8C7001.1,135.5,7003.8,132.9,7003.8,132.9z"/>
	<path style="fill:#FFFFFF;" d="M7303.3,10.2c0,0,0.6,0.3,1.4,0.7c0.7,0.4,1.4,0.7,1.4,0.7l0,0l0,0c0,0-0.5-0.5-1.1-1.1
		c-0.6-0.6-1.1-1.1-1.1-1.1c0,0,0.3-0.6,0.7-1.4c0.4-0.7,0.7-1.4,0.7-1.4l0,0l0,0c0,0-0.5,0.5-1.1,1.1c-0.6,0.6-1.1,1.1-1.1,1.1
		c0,0-2.5-1.3-2.8-1.4c0.2,0.2,2.2,2.2,2.2,2.2c0,0-1.3,2.5-1.4,2.8C7301.2,12.2,7303.3,10.2,7303.3,10.2z"/>
	<path style="fill:#FFFFFF;" d="M6871.1,136.2c0,0,0.6,0.3,1.4,0.7c0.7,0.4,1.4,0.7,1.4,0.7l0,0l0,0c0,0-0.5-0.5-1.1-1.1
		c-0.6-0.6-1.1-1.1-1.1-1.1c0,0,0.3-0.6,0.7-1.4s0.7-1.4,0.7-1.4l0,0l0,0c0,0-0.5,0.5-1.1,1.1c-0.6,0.6-1.1,1.1-1.1,1.1
		c0,0-2.5-1.3-2.8-1.4c0.2,0.2,2.2,2.2,2.2,2.2c0,0-1.3,2.5-1.4,2.8C6869.1,138.2,6871.1,136.2,6871.1,136.2z"/>
	<path style="fill:#FFFFFF;" d="M6767.1,3.2c0,0,0.6,0.3,1.4,0.7c0.7,0.4,1.4,0.7,1.4,0.7l0,0l0,0c0,0-0.5-0.5-1.1-1.1
		c-0.6-0.6-1.1-1.1-1.1-1.1c0,0,0.3-0.6,0.7-1.4c0.4-0.7,0.7-1.4,0.7-1.4l0,0l0,0c0,0-0.5,0.5-1.1,1.1c-0.6,0.6-1.1,1.1-1.1,1.1
		c0,0-2.5-1.3-2.8-1.4c0.2,0.2,2.2,2.2,2.2,2.2c0,0-1.3,2.5-1.4,2.8C6765,5.2,6767.1,3.2,6767.1,3.2z"/>
	<path style="fill:#FFFFFF;" d="M7247.9,113c0.2-0.2,2.4-2.4,2.4-2.4c0,0,0.7,0.3,1.5,0.7s1.5,0.7,1.5,0.8l0,0l0,0
		c0,0-0.5-0.6-1.2-1.2c-0.6-0.6-1.2-1.2-1.2-1.2c0,0,0.3-0.7,0.7-1.5c0.4-0.8,0.7-1.5,0.8-1.5l0,0l0,0c0,0-0.6,0.5-1.2,1.2
		c-0.6,0.6-1.2,1.2-1.2,1.2c0,0-2.7-1.4-3-1.5c0,0,0,0,0,0c0.2,0.2,2.4,2.4,2.4,2.4C7249.4,110,7248,112.7,7247.9,113
		C7247.9,113,7247.9,113,7247.9,113z"/>
	<path style="fill:#FFFFFF;" d="M7367.6,514.9c0.2,0,2.5,0.4,2.5,0.4c0,0,0.1,0.6,0.2,1.2c0.1,0.7,0.2,1.3,0.2,1.3l0,0l0,0
		c0,0,0.1-0.6,0.2-1.3c0.1-0.7,0.2-1.2,0.2-1.2c0,0,0.6-0.1,1.2-0.2s1.3-0.2,1.3-0.2l0,0l0,0c0,0-0.6-0.1-1.3-0.2
		c-0.7-0.1-1.2-0.2-1.2-0.2c0,0-0.4-2.3-0.4-2.5c0,0,0,0,0,0c0,0.2-0.4,2.5-0.4,2.5C7370.1,514.5,7367.8,514.9,7367.6,514.9
		C7367.6,514.9,7367.6,514.9,7367.6,514.9z"/>
	<path style="fill:#FFFFFF;" d="M7405.5,599.8c0.2,0,2.3,0,2.3,0c0,0,0.2,0.5,0.4,1.1c0.2,0.6,0.4,1.1,0.4,1.1l0,0v0
		c0,0,0-0.5,0-1.2s0-1.1,0-1.1s0.5-0.2,1.1-0.4c0.6-0.2,1.1-0.4,1.1-0.4l0,0l0,0c0,0-0.5,0-1.2,0s-1.1,0-1.1,0c0,0-0.7-2-0.7-2.2
		c0,0,0,0,0,0c0,0.2,0,2.3,0,2.3C7407.7,599,7405.7,599.7,7405.5,599.8C7405.5,599.8,7405.5,599.8,7405.5,599.8z"/>
	<path style="fill:#FFFFFF;" d="M7476.3,570.8c0.2-0.2,2.1-2,2.1-2c0,0,0.6,0.3,1.3,0.6c0.7,0.4,1.3,0.6,1.3,0.7l0,0l0,0
		c0,0-0.5-0.5-1-1s-1-1-1-1c0,0,0.3-0.6,0.6-1.3c0.4-0.7,0.6-1.3,0.7-1.3l0,0l0,0c0,0-0.5,0.5-1,1c-0.6,0.6-1,1-1,1
		c0,0-2.4-1.2-2.6-1.3c0,0,0,0,0,0c0.2,0.2,2,2.1,2,2.1S7476.4,570.6,7476.3,570.8C7476.3,570.8,7476.3,570.8,7476.3,570.8z"/>
	<path style="fill:#FFFFFF;" d="M7393.1,173c0.1-0.1,1.1-1.1,1.1-1.1c0,0,0.3,0.2,0.7,0.4c0.4,0.2,0.7,0.4,0.7,0.4l0,0l0,0
		c0,0-0.3-0.3-0.6-0.6c-0.3-0.3-0.6-0.6-0.6-0.6c0,0,0.2-0.3,0.4-0.7c0.2-0.4,0.4-0.7,0.4-0.7l0,0l0,0c0,0-0.3,0.3-0.6,0.6
		s-0.6,0.6-0.6,0.6c0,0-1.3-0.7-1.4-0.7c0,0,0,0,0,0c0.1,0.1,1.1,1.1,1.1,1.1S7393.2,172.9,7393.1,173
		C7393.1,173,7393.1,173,7393.1,173z"/>
	<path style="fill:#FFFFFF;" d="M7162.6,619c0.2,0,2.7,0,2.7,0c0,0,0.2,0.6,0.4,1.2c0.2,0.7,0.4,1.3,0.4,1.3l0,0l0,0
		c0,0,0-0.6,0-1.3s0-1.3,0-1.3s0.6-0.2,1.2-0.4s1.3-0.4,1.3-0.4l0,0l0,0c0,0-0.6,0-1.3,0c-0.7,0-1.3,0-1.3,0c0,0-0.8-2.3-0.9-2.5
		c0,0,0,0,0,0c0,0.2,0,2.7,0,2.7C7165.2,618.1,7162.8,618.9,7162.6,619C7162.6,619,7162.6,619,7162.6,619z"/>
	<path style="fill:#FFFFFF;" d="M7041.9,482.7c0.2-0.2,2.4-2.4,2.4-2.4c0,0,0.7,0.3,1.5,0.7c0.8,0.4,1.5,0.7,1.5,0.8l0,0l0,0
		c0,0-0.5-0.6-1.2-1.2c-0.6-0.6-1.2-1.2-1.2-1.2c0,0,0.3-0.7,0.7-1.5c0.4-0.8,0.7-1.5,0.8-1.5l0,0l0,0c0,0-0.6,0.5-1.2,1.2
		c-0.6,0.6-1.2,1.2-1.2,1.2c0,0-2.7-1.4-3-1.5c0,0,0,0,0,0c0.2,0.2,2.4,2.4,2.4,2.4S7042.1,482.4,7041.9,482.7
		C7041.9,482.7,7041.9,482.7,7041.9,482.7z"/>
	<path style="fill:#FFFFFF;" d="M7165.4,306.9c0.2,0,2.3,0.4,2.3,0.4c0,0,0.1,0.5,0.2,1.1c0.1,0.6,0.2,1.1,0.2,1.1l0,0l0,0
		c0,0,0.1-0.5,0.2-1.1c0.1-0.6,0.2-1.1,0.2-1.1c0,0,0.5-0.1,1.1-0.2c0.6-0.1,1.1-0.2,1.1-0.2l0,0l0,0c0,0-0.5-0.1-1.1-0.2
		c-0.6-0.1-1.1-0.2-1.1-0.2c0,0-0.3-2.1-0.4-2.3c0,0,0,0,0,0c0,0.2-0.4,2.3-0.4,2.3C7167.7,306.6,7165.6,306.9,7165.4,306.9
		C7165.4,306.9,7165.4,306.9,7165.4,306.9z"/>
	<path style="fill:#FFFFFF;" d="M7200.7,432.5c0.2,0,2.6,0,2.6,0c0,0,0.2,0.5,0.4,1.2c0.2,0.7,0.4,1.2,0.4,1.2l0,0l0,0
		c0,0,0-0.6,0-1.3c0-0.7,0-1.3,0-1.3c0,0,0.5-0.2,1.2-0.4s1.2-0.4,1.2-0.4l0,0l0,0c0,0-0.6,0-1.3,0s-1.3,0-1.3,0
		c0,0-0.8-2.3-0.8-2.5c0,0,0,0,0,0c0,0.2,0,2.6,0,2.6C7203.2,431.7,7200.9,432.4,7200.7,432.5
		C7200.7,432.5,7200.7,432.5,7200.7,432.5z"/>
	<path style="fill:#FFFFFF;" d="M7264.6,405.9c0.2-0.2,1.9-1.8,1.9-1.8c0,0,0.5,0.3,1.1,0.6s1.2,0.6,1.2,0.6l0,0l0,0
		c0,0-0.4-0.4-0.9-0.9c-0.5-0.5-0.9-0.9-0.9-0.9c0,0,0.3-0.5,0.6-1.1c0.3-0.6,0.6-1.2,0.6-1.2l0,0l0,0c0,0-0.4,0.4-0.9,0.9
		s-0.9,0.9-0.9,0.9c0,0-2.1-1.1-2.3-1.2c0,0,0,0,0,0c0.2,0.2,1.8,1.9,1.8,1.9C7265.7,403.6,7264.7,405.7,7264.6,405.9
		C7264.6,405.9,7264.6,405.9,7264.6,405.9z"/>
</g>
<g style="opacity:0.6;">
	<path style="fill:#FFFFFF;" d="M259.7,457c0.3,0,2.9-0.5,2.9-0.5c0,0,0.1-0.6,0.2-1.4c0.1-0.8,0.2-1.4,0.2-1.5l0,0l0,0
		c0,0,0.1,0.7,0.2,1.5s0.2,1.4,0.2,1.4c0,0,0.6,0.1,1.4,0.2c0.8,0.1,1.4,0.2,1.5,0.2l0,0l0,0c0,0-0.7,0.1-1.5,0.2
		c-0.8,0.1-1.4,0.2-1.4,0.2c0,0-0.4,2.7-0.5,2.9c0,0,0,0,0,0c0-0.3-0.5-2.9-0.5-2.9S260,457,259.7,457
		C259.7,457,259.7,457,259.7,457z"/>
	<path style="fill:#FFFFFF;" d="M95.4,527.4c0.2-0.2,1.9-2.7,1.9-2.7c0,0-0.4-0.6-1-1.3c-0.5-0.7-1-1.3-1-1.4l0,0l0,0
		c0,0,0.6,0.5,1.4,1s1.3,1,1.3,1c0,0,0.6-0.4,1.3-1s1.3-1,1.4-1l0,0l0,0c0,0-0.5,0.6-1,1.4c-0.5,0.7-1,1.3-1,1.3
		c0,0,1.8,2.5,1.9,2.7c0,0,0,0,0,0c-0.2-0.2-2.7-1.9-2.7-1.9C98.1,525.4,95.6,527.2,95.4,527.4C95.4,527.4,95.4,527.4,95.4,527.4z"
		/>
	<path style="fill:#FFFFFF;" d="M126.5,544c0.1-0.1,1.1-1.6,1.1-1.6c0,0-0.3-0.4-0.6-0.8c-0.3-0.4-0.6-0.8-0.6-0.8l0,0l0,0
		c0,0,0.4,0.3,0.8,0.6c0.4,0.3,0.8,0.6,0.8,0.6c0,0,0.4-0.3,0.8-0.6c0.4-0.3,0.8-0.6,0.8-0.6l0,0l0,0c0,0-0.3,0.4-0.6,0.8
		c-0.3,0.4-0.6,0.8-0.6,0.8c0,0,1,1.5,1.1,1.6c0,0,0,0,0,0c-0.1-0.1-1.6-1.1-1.6-1.1C128.1,542.8,126.7,543.9,126.5,544
		C126.5,544,126.5,544,126.5,544z"/>
	<path style="fill:#FFFFFF;" d="M570.4,426.4c0.2-0.2,1.9-2.7,1.9-2.7c0,0-0.4-0.6-1-1.3c-0.5-0.7-1-1.3-1-1.4l0,0l0,0
		c0,0,0.6,0.5,1.4,1s1.3,1,1.3,1c0,0,0.6-0.4,1.3-1s1.3-1,1.4-1l0,0l0,0c0,0-0.5,0.6-1,1.4c-0.5,0.7-1,1.3-1,1.3
		c0,0,1.8,2.5,1.9,2.7c0,0,0,0,0,0c-0.2-0.2-2.7-1.9-2.7-1.9C573.1,424.4,570.6,426.2,570.4,426.4
		C570.4,426.4,570.4,426.4,570.4,426.4z"/>
	<path style="fill:#FFFFFF;" d="M348.5,540.5c0.1-0.1,1.1-1.6,1.1-1.6c0,0-0.2-0.4-0.6-0.8c-0.3-0.4-0.6-0.8-0.6-0.8l0,0l0,0
		c0,0,0.4,0.3,0.8,0.6c0.4,0.3,0.8,0.6,0.8,0.6c0,0,0.4-0.2,0.8-0.6c0.4-0.3,0.8-0.6,0.8-0.6l0,0l0,0c0,0-0.3,0.4-0.6,0.8
		c-0.3,0.4-0.6,0.8-0.5,0.8c0,0,1,1.4,1.1,1.6c0,0,0,0,0,0c-0.1-0.1-1.6-1.1-1.6-1.1C350.1,539.4,348.7,540.4,348.5,540.5
		C348.5,540.5,348.5,540.5,348.5,540.5z"/>
	<path style="fill:#FFFFFF;" d="M76.5,227.5c0.1-0.1,1.1-1.6,1.1-1.6c0,0-0.2-0.4-0.6-0.8c-0.3-0.4-0.6-0.8-0.6-0.8l0,0l0,0
		c0,0,0.4,0.3,0.8,0.6s0.8,0.6,0.8,0.6c0,0,0.4-0.2,0.8-0.6c0.4-0.3,0.8-0.6,0.8-0.6l0,0l0,0c0,0-0.3,0.4-0.6,0.8
		c-0.3,0.4-0.6,0.8-0.5,0.8c0,0,1,1.4,1.1,1.6c0,0,0,0,0,0c-0.1-0.1-1.6-1.1-1.6-1.1C78.1,226.4,76.7,227.4,76.5,227.5
		C76.5,227.5,76.5,227.5,76.5,227.5z"/>
	<path style="fill:#FFFFFF;" d="M691.7,213.4c-0.2-0.2-1.9-2.7-1.9-2.7c0,0,0.4-0.6,1-1.3c0.5-0.7,1-1.3,1-1.4l0,0l0,0
		c0,0-0.6,0.5-1.4,1c-0.7,0.5-1.3,1-1.3,1c0,0-0.6-0.4-1.3-1c-0.7-0.5-1.3-1-1.4-1l0,0l0,0c0,0,0.5,0.6,1,1.4c0.5,0.7,1,1.3,1,1.3
		c0,0-1.8,2.5-1.9,2.7c0,0,0,0,0,0c0.2-0.2,2.7-1.9,2.7-1.9C689,211.4,691.5,213.2,691.7,213.4C691.7,213.4,691.7,213.4,691.7,213.4
		z"/>
	<path style="fill:#FFFFFF;" d="M548.6,230c-0.1-0.1-1.1-1.6-1.1-1.6c0,0,0.3-0.4,0.6-0.8c0.3-0.4,0.6-0.8,0.6-0.8l0,0l0,0
		c0,0-0.4,0.3-0.8,0.6c-0.4,0.3-0.8,0.6-0.8,0.6c0,0-0.4-0.3-0.8-0.6c-0.4-0.3-0.8-0.6-0.8-0.6l0,0l0,0c0,0,0.3,0.4,0.6,0.8
		c0.3,0.4,0.6,0.8,0.6,0.8c0,0-1,1.5-1.1,1.6c0,0,0,0,0,0c0.1-0.1,1.6-1.1,1.6-1.1S548.4,229.9,548.6,230
		C548.6,230,548.6,230,548.6,230z"/>
	<path style="fill:#FFFFFF;" d="M223.5,275.5c-0.1-0.1-1.1-1.6-1.1-1.6c0,0,0.2-0.4,0.6-0.8c0.3-0.4,0.6-0.8,0.6-0.8l0,0l0,0
		c0,0-0.4,0.3-0.8,0.6c-0.4,0.3-0.8,0.6-0.8,0.6c0,0-0.4-0.2-0.8-0.6c-0.4-0.3-0.8-0.6-0.8-0.6l0,0l0,0c0,0,0.3,0.4,0.6,0.8
		c0.3,0.4,0.6,0.8,0.5,0.8c0,0-1,1.4-1.1,1.6c0,0,0,0,0,0c0.1-0.1,1.6-1.1,1.6-1.1S223.4,275.4,223.5,275.5
		C223.5,275.5,223.5,275.5,223.5,275.5z"/>
	<path style="fill:#FFFFFF;" d="M271.9,596.5c0.1-0.1,0.6-0.9,0.6-0.9c0,0-0.1-0.2-0.3-0.4c-0.2-0.2-0.3-0.4-0.3-0.4l0,0l0,0
		c0,0,0.2,0.1,0.4,0.3c0.2,0.2,0.4,0.3,0.4,0.3c0,0,0.2-0.1,0.4-0.3c0.2-0.2,0.4-0.3,0.4-0.3l0,0l0,0c0,0-0.1,0.2-0.3,0.4
		c-0.2,0.2-0.3,0.4-0.3,0.4c0,0,0.6,0.8,0.6,0.9c0,0,0,0,0,0c-0.1-0.1-0.9-0.6-0.9-0.6S272,596.5,271.9,596.5
		C271.9,596.5,271.9,596.5,271.9,596.5z"/>
	<path style="fill:#FFFFFF;" d="M146.7,372.8c0,0,0.8-0.4,1.8-0.9c1-0.5,1.9-0.9,1.9-0.9l0,0l0,0c0,0-0.7,0.7-1.5,1.5
		c-0.8,0.8-1.4,1.5-1.4,1.5s0.4,0.8,0.9,1.8s0.9,1.9,0.9,1.9l0,0l0,0c0,0-0.7-0.7-1.5-1.5c-0.8-0.8-1.5-1.4-1.5-1.4
		c0,0-3.4,1.7-3.8,1.9c0.3-0.3,2.9-3,2.9-3s-1.7-3.4-1.9-3.8C144,370.1,146.7,372.8,146.7,372.8z"/>
	<path style="fill:#FFFFFF;" d="M446.1,495.5c0,0,0.6-0.3,1.4-0.7c0.7-0.4,1.4-0.7,1.4-0.7l0,0l0,0c0,0-0.5,0.5-1.1,1.1
		c-0.6,0.6-1.1,1.1-1.1,1.1c0,0,0.3,0.6,0.7,1.4c0.4,0.7,0.7,1.4,0.7,1.4l0,0l0,0c0,0-0.5-0.5-1.1-1.1c-0.6-0.6-1.1-1.1-1.1-1.1
		c0,0-2.5,1.3-2.8,1.4c0.2-0.2,2.2-2.2,2.2-2.2s-1.3-2.5-1.4-2.8C444,493.5,446.1,495.5,446.1,495.5z"/>
	<path style="fill:#FFFFFF;" d="M14.1,369.5c0,0,0.6-0.3,1.4-0.7c0.7-0.4,1.4-0.7,1.4-0.7l0,0l0,0c0,0-0.5,0.5-1.1,1.1
		c-0.6,0.6-1.1,1.1-1.1,1.1c0,0,0.3,0.6,0.7,1.4S16,373,16,373l0,0l0,0c0,0-0.5-0.5-1.1-1.1c-0.6-0.6-1.1-1.1-1.1-1.1
		c0,0-2.5,1.3-2.8,1.4c0.2-0.2,2.2-2.2,2.2-2.2c0,0-1.3-2.5-1.4-2.8C12,367.5,14.1,369.5,14.1,369.5z"/>
	<path style="fill:#FFFFFF;" d="M377.5,388.7c0.2,0,2.7,0,2.7,0c0,0,0.2-0.6,0.4-1.2c0.2-0.7,0.4-1.3,0.4-1.3l0,0l0,0
		c0,0,0,0.6,0,1.3s0,1.3,0,1.3c0,0,0.6,0.2,1.2,0.4c0.7,0.2,1.3,0.4,1.3,0.4l0,0l0,0c0,0-0.6,0-1.3,0c-0.7,0-1.3,0-1.3,0
		c0,0-0.8,2.3-0.9,2.5c0,0,0,0,0,0c0-0.2,0-2.7,0-2.7C380,389.6,377.7,388.8,377.5,388.7C377.5,388.7,377.5,388.7,377.5,388.7z"/>
	<path style="fill:#FFFFFF;" d="M535.9,332.7c0.1,0.1,1.1,1.1,1.1,1.1c0,0,0.3-0.2,0.7-0.4s0.7-0.4,0.7-0.4l0,0l0,0
		c0,0-0.3,0.3-0.6,0.6c-0.3,0.3-0.6,0.6-0.6,0.6c0,0,0.2,0.3,0.4,0.7c0.2,0.4,0.4,0.7,0.4,0.7l0,0l0,0c0,0-0.3-0.3-0.6-0.6
		c-0.3-0.3-0.6-0.6-0.6-0.6c0,0-1.3,0.7-1.4,0.7c0,0,0,0,0,0c0.1-0.1,1.1-1.1,1.1-1.1C536.6,334.1,535.9,332.8,535.9,332.7
		C535.9,332.7,535.9,332.7,535.9,332.7z"/>
	<path style="fill:#FFFFFF;" d="M184.8,23c0.2,0.2,2.4,2.4,2.4,2.4c0,0,0.7-0.3,1.5-0.7c0.8-0.4,1.5-0.7,1.5-0.8l0,0l0,0
		c0,0-0.5,0.6-1.2,1.2c-0.6,0.6-1.2,1.2-1.2,1.2c0,0,0.3,0.7,0.7,1.5c0.4,0.8,0.7,1.5,0.8,1.5l0,0l0,0c0,0-0.6-0.5-1.2-1.2
		c-0.6-0.6-1.2-1.2-1.2-1.2c0,0-2.7,1.4-3,1.5c0,0,0,0,0,0c0.2-0.2,2.4-2.4,2.4-2.4C186.3,26,184.9,23.3,184.8,23
		C184.8,23,184.8,23,184.8,23z"/>
	<path style="fill:#FFFFFF;" d="M308.3,198.8c0.2,0,2.3-0.4,2.3-0.4c0,0,0.1-0.5,0.2-1.1c0.1-0.6,0.2-1.1,0.2-1.1l0,0l0,0
		c0,0,0.1,0.5,0.2,1.1c0.1,0.6,0.2,1.1,0.2,1.1c0,0,0.5,0.1,1.1,0.2s1.1,0.2,1.1,0.2l0,0l0,0c0,0-0.5,0.1-1.1,0.2
		c-0.6,0.1-1.1,0.2-1.1,0.2c0,0-0.3,2.1-0.4,2.3c0,0,0,0,0,0c0-0.2-0.4-2.3-0.4-2.3S308.5,198.8,308.3,198.8
		C308.2,198.8,308.2,198.8,308.3,198.8z"/>
	<path style="fill:#FFFFFF;" d="M343.6,73.2c0.2,0,2.6,0,2.6,0c0,0,0.2-0.5,0.4-1.2c0.2-0.7,0.4-1.2,0.4-1.2l0,0l0,0
		c0,0,0,0.6,0,1.3c0,0.7,0,1.3,0,1.3s0.5,0.2,1.2,0.4c0.7,0.2,1.2,0.4,1.2,0.4l0,0l0,0c0,0-0.6,0-1.3,0c-0.7,0-1.3,0-1.3,0
		c0,0-0.8,2.3-0.8,2.5c0,0,0,0,0,0c0-0.2,0-2.6,0-2.6C346,74,343.8,73.3,343.6,73.2C343.5,73.2,343.5,73.2,343.6,73.2z"/>
	<path style="fill:#FFFFFF;" d="M407.4,99.8c0.2,0.2,1.9,1.8,1.9,1.8c0,0,0.5-0.3,1.1-0.6c0.6-0.3,1.2-0.6,1.2-0.6l0,0l0,0
		c0,0-0.4,0.4-0.9,0.9c-0.5,0.5-0.9,0.9-0.9,0.9c0,0,0.3,0.5,0.6,1.1c0.3,0.6,0.6,1.2,0.6,1.2l0,0l0,0c0,0-0.4-0.4-0.9-0.9
		c-0.5-0.5-0.9-0.9-0.9-0.9c0,0-2.1,1.1-2.3,1.2c0,0,0,0,0,0c0.2-0.2,1.8-1.9,1.8-1.9C408.5,102.1,407.5,100,407.4,99.8
		C407.4,99.8,407.4,99.8,407.4,99.8z"/>
</g>
<g style="opacity:0.6;">
	<path style="fill:#FFFFFF;" d="M997.7,540c0.3,0,2.9-0.5,2.9-0.5c0,0,0.1-0.6,0.2-1.4c0.1-0.8,0.2-1.4,0.2-1.5l0,0l0,0
		c0,0,0.1,0.7,0.2,1.5c0.1,0.8,0.2,1.4,0.2,1.4c0,0,0.6,0.1,1.4,0.2s1.4,0.2,1.5,0.2l0,0l0,0c0,0-0.7,0.1-1.5,0.2
		c-0.8,0.1-1.4,0.2-1.4,0.2c0,0-0.4,2.7-0.5,2.9c0,0,0,0,0,0c0-0.3-0.5-2.9-0.5-2.9S998,540,997.7,540
		C997.7,540,997.7,540,997.7,540z"/>
	<path style="fill:#FFFFFF;" d="M833.4,610.4c0.2-0.2,1.9-2.7,1.9-2.7c0,0-0.4-0.6-1-1.3c-0.5-0.7-1-1.3-1-1.4l0,0l0,0
		c0,0,0.6,0.5,1.4,1s1.3,1,1.3,1c0,0,0.6-0.4,1.3-1s1.3-1,1.4-1l0,0l0,0c0,0-0.5,0.6-1,1.4c-0.5,0.7-1,1.3-1,1.3
		c0,0,1.8,2.5,1.9,2.7c0,0,0,0,0,0c-0.2-0.2-2.7-1.9-2.7-1.9C836.1,608.4,833.6,610.2,833.4,610.4
		C833.4,610.4,833.4,610.4,833.4,610.4z"/>
	<path style="fill:#FFFFFF;" d="M864.5,627c0.1-0.1,1.1-1.6,1.1-1.6c0,0-0.3-0.4-0.6-0.8c-0.3-0.4-0.6-0.8-0.6-0.8l0,0l0,0
		c0,0,0.4,0.3,0.8,0.6c0.4,0.3,0.8,0.6,0.8,0.6c0,0,0.4-0.3,0.8-0.6c0.4-0.3,0.8-0.6,0.8-0.6l0,0l0,0c0,0-0.3,0.4-0.6,0.8
		c-0.3,0.4-0.6,0.8-0.6,0.8c0,0,1,1.5,1.1,1.6c0,0,0,0,0,0c-0.1-0.1-1.6-1.1-1.6-1.1C866.1,625.8,864.7,626.9,864.5,627
		C864.5,627,864.5,627,864.5,627z"/>
	<path style="fill:#FFFFFF;" d="M1308.4,509.4c0.2-0.2,1.9-2.7,1.9-2.7c0,0-0.4-0.6-1-1.3c-0.5-0.7-1-1.3-1-1.4l0,0l0,0
		c0,0,0.6,0.5,1.4,1c0.7,0.5,1.3,1,1.3,1c0,0,0.6-0.4,1.3-1c0.7-0.5,1.3-1,1.4-1l0,0l0,0c0,0-0.5,0.6-1,1.4c-0.5,0.7-1,1.3-1,1.3
		c0,0,1.8,2.5,1.9,2.7c0,0,0,0,0,0c-0.2-0.2-2.7-1.9-2.7-1.9C1311.1,507.4,1308.6,509.2,1308.4,509.4
		C1308.4,509.4,1308.4,509.4,1308.4,509.4z"/>
	<path style="fill:#FFFFFF;" d="M1374.5,578c0.1-0.1,1.1-1.6,1.1-1.6c0,0-0.3-0.4-0.6-0.8c-0.3-0.4-0.6-0.8-0.6-0.8l0,0l0,0
		c0,0,0.4,0.3,0.8,0.6s0.8,0.6,0.8,0.6c0,0,0.4-0.3,0.8-0.6c0.4-0.3,0.8-0.6,0.8-0.6l0,0l0,0c0,0-0.3,0.4-0.6,0.8
		c-0.3,0.4-0.6,0.8-0.6,0.8c0,0,1,1.5,1.1,1.6c0,0,0,0,0,0c-0.1-0.1-1.6-1.1-1.6-1.1C1376.1,576.8,1374.7,577.9,1374.5,578
		C1374.5,578,1374.5,578,1374.5,578z"/>
	<path style="fill:#FFFFFF;" d="M1086.5,623.5c0.1-0.1,1.1-1.6,1.1-1.6c0,0-0.2-0.4-0.6-0.8c-0.3-0.4-0.6-0.8-0.6-0.8l0,0l0,0
		c0,0,0.4,0.3,0.8,0.6c0.4,0.3,0.8,0.6,0.8,0.6c0,0,0.4-0.2,0.8-0.6s0.8-0.6,0.8-0.6l0,0l0,0c0,0-0.3,0.4-0.6,0.8
		c-0.3,0.4-0.6,0.8-0.5,0.8c0,0,1,1.4,1.1,1.6c0,0,0,0,0,0c-0.1-0.1-1.6-1.1-1.6-1.1S1086.7,623.4,1086.5,623.5
		C1086.5,623.5,1086.5,623.5,1086.5,623.5z"/>
	<path style="fill:#FFFFFF;" d="M725.7,227c0.3,0,2.9-0.5,2.9-0.5c0,0,0.1-0.6,0.2-1.4c0.1-0.8,0.2-1.4,0.2-1.5l0,0l0,0
		c0,0,0.1,0.7,0.2,1.5c0.1,0.8,0.2,1.4,0.2,1.4c0,0,0.6,0.1,1.4,0.2c0.8,0.1,1.4,0.2,1.5,0.2l0,0l0,0c0,0-0.7,0.1-1.5,0.2
		c-0.8,0.1-1.4,0.2-1.4,0.2c0,0-0.4,2.7-0.5,2.9c0,0,0,0,0,0c0-0.3-0.5-2.9-0.5-2.9S726,227,725.7,227
		C725.7,227,725.7,227,725.7,227z"/>
	<path style="fill:#FFFFFF;" d="M814.5,310.5c0.1-0.1,1.1-1.6,1.1-1.6c0,0-0.2-0.4-0.6-0.8c-0.3-0.4-0.6-0.8-0.6-0.8l0,0l0,0
		c0,0,0.4,0.3,0.8,0.6c0.4,0.3,0.8,0.6,0.8,0.6c0,0,0.4-0.2,0.8-0.6c0.4-0.3,0.8-0.6,0.8-0.6l0,0l0,0c0,0-0.3,0.4-0.6,0.8
		c-0.3,0.4-0.6,0.8-0.5,0.8c0,0,1,1.4,1.1,1.6c0,0,0,0,0,0c-0.1-0.1-1.6-1.1-1.6-1.1C816.1,309.4,814.7,310.4,814.5,310.5
		C814.5,310.5,814.5,310.5,814.5,310.5z"/>
	<path style="fill:#FFFFFF;" d="M1429.7,296.4c-0.2-0.2-1.9-2.7-1.9-2.7c0,0,0.4-0.6,1-1.3c0.5-0.7,1-1.3,1-1.4l0,0l0,0
		c0,0-0.6,0.5-1.4,1c-0.7,0.5-1.3,1-1.3,1c0,0-0.6-0.4-1.3-1c-0.7-0.5-1.3-1-1.4-1l0,0l0,0c0,0,0.5,0.6,1,1.4c0.5,0.7,1,1.3,1,1.3
		c0,0-1.8,2.5-1.9,2.7c0,0,0,0,0,0c0.2-0.2,2.7-1.9,2.7-1.9C1427,294.4,1429.5,296.2,1429.7,296.4
		C1429.7,296.4,1429.7,296.4,1429.7,296.4z"/>
	<path style="fill:#FFFFFF;" d="M1286.6,313c-0.1-0.1-1.1-1.6-1.1-1.6c0,0,0.3-0.4,0.6-0.8c0.3-0.4,0.6-0.8,0.6-0.8l0,0l0,0
		c0,0-0.4,0.3-0.8,0.6c-0.4,0.3-0.8,0.6-0.8,0.6c0,0-0.4-0.3-0.8-0.6c-0.4-0.3-0.8-0.6-0.8-0.6l0,0l0,0c0,0,0.3,0.4,0.6,0.8
		c0.3,0.4,0.6,0.8,0.6,0.8c0,0-1,1.5-1.1,1.6c0,0,0,0,0,0c0.1-0.1,1.6-1.1,1.6-1.1C1285,311.8,1286.4,312.9,1286.6,313
		C1286.6,313,1286.6,313,1286.6,313z"/>
	<path style="fill:#FFFFFF;" d="M961.5,358.5c-0.1-0.1-1.1-1.6-1.1-1.6c0,0,0.2-0.4,0.5-0.8c0.3-0.4,0.6-0.8,0.6-0.8l0,0l0,0
		c0,0-0.4,0.3-0.8,0.6c-0.4,0.3-0.8,0.6-0.8,0.6c0,0-0.4-0.2-0.8-0.6c-0.4-0.3-0.8-0.6-0.8-0.6l0,0l0,0c0,0,0.3,0.4,0.6,0.8
		c0.3,0.4,0.6,0.8,0.5,0.8c0,0-1,1.4-1.1,1.6c0,0,0,0,0,0c0.1-0.1,1.6-1.1,1.6-1.1S961.4,358.4,961.5,358.5
		C961.5,358.5,961.5,358.5,961.5,358.5z"/>
	<path style="fill:#FFFFFF;" d="M1009.9,679.5c0.1-0.1,0.6-0.9,0.6-0.9c0,0-0.1-0.2-0.3-0.4c-0.2-0.2-0.3-0.4-0.3-0.4l0,0l0,0
		c0,0,0.2,0.1,0.4,0.3c0.2,0.2,0.4,0.3,0.4,0.3s0.2-0.1,0.4-0.3c0.2-0.2,0.4-0.3,0.4-0.3l0,0l0,0c0,0-0.1,0.2-0.3,0.4
		c-0.2,0.2-0.3,0.4-0.3,0.4c0,0,0.6,0.8,0.6,0.9c0,0,0,0,0,0c-0.1-0.1-0.9-0.6-0.9-0.6S1010,679.5,1009.9,679.5
		C1009.9,679.5,1009.9,679.5,1009.9,679.5z"/>
	<path style="fill:#FFFFFF;" d="M884.7,455.8c0,0,0.8-0.4,1.8-0.9c1-0.5,1.9-0.9,1.9-0.9l0,0l0,0c0,0-0.7,0.7-1.5,1.5
		c-0.8,0.8-1.4,1.5-1.4,1.5s0.4,0.8,0.9,1.8c0.5,1,0.9,1.9,0.9,1.9l0,0l0,0c0,0-0.7-0.7-1.5-1.5c-0.8-0.8-1.5-1.4-1.5-1.4
		c0,0-3.4,1.7-3.8,1.9c0.3-0.3,2.9-3,2.9-3s-1.7-3.4-1.9-3.8C882,453.1,884.7,455.8,884.7,455.8z"/>
	<path style="fill:#FFFFFF;" d="M1184.1,578.5c0,0,0.6-0.3,1.4-0.7c0.7-0.4,1.4-0.7,1.4-0.7l0,0l0,0c0,0-0.5,0.5-1.1,1.1
		c-0.6,0.6-1.1,1.1-1.1,1.1c0,0,0.3,0.6,0.7,1.4s0.7,1.4,0.7,1.4l0,0l0,0c0,0-0.5-0.5-1.1-1.1s-1.1-1.1-1.1-1.1c0,0-2.5,1.3-2.8,1.4
		c0.2-0.2,2.2-2.2,2.2-2.2c0,0-1.3-2.5-1.4-2.8C1182,576.5,1184.1,578.5,1184.1,578.5z"/>
	<path style="fill:#FFFFFF;" d="M752.1,452.5c0,0,0.6-0.3,1.4-0.7c0.7-0.4,1.4-0.7,1.4-0.7l0,0l0,0c0,0-0.5,0.5-1.1,1.1
		c-0.6,0.6-1.1,1.1-1.1,1.1c0,0,0.3,0.6,0.7,1.4c0.4,0.7,0.7,1.4,0.7,1.4l0,0l0,0c0,0-0.5-0.5-1.1-1.1c-0.6-0.6-1.1-1.1-1.1-1.1
		c0,0-2.5,1.3-2.8,1.4c0.2-0.2,2.2-2.2,2.2-2.2s-1.3-2.5-1.4-2.8C750,450.5,752.1,452.5,752.1,452.5z"/>
	<path style="fill:#FFFFFF;" d="M648.1,585.5c0,0,0.6-0.3,1.4-0.7c0.7-0.4,1.4-0.7,1.4-0.7l0,0l0,0c0,0-0.5,0.5-1.1,1.1
		c-0.6,0.6-1.1,1.1-1.1,1.1c0,0,0.3,0.6,0.7,1.4c0.4,0.7,0.7,1.4,0.7,1.4l0,0l0,0c0,0-0.5-0.5-1.1-1.1c-0.6-0.6-1.1-1.1-1.1-1.1
		c0,0-2.5,1.3-2.8,1.4c0.2-0.2,2.2-2.2,2.2-2.2s-1.3-2.5-1.4-2.8C646,583.5,648.1,585.5,648.1,585.5z"/>
	<path style="fill:#FFFFFF;" d="M1128.7,475.7c0.2,0.2,2.4,2.4,2.4,2.4c0,0,0.7-0.3,1.5-0.7s1.5-0.7,1.5-0.8l0,0l0,0
		c0,0-0.5,0.6-1.2,1.2c-0.6,0.6-1.2,1.2-1.2,1.2c0,0,0.3,0.7,0.7,1.5c0.4,0.8,0.7,1.5,0.8,1.5l0,0l0,0c0,0-0.6-0.5-1.2-1.2
		s-1.2-1.2-1.2-1.2c0,0-2.7,1.4-3,1.5c0,0,0,0,0,0c0.2-0.2,2.4-2.4,2.4-2.4C1130.2,478.7,1128.8,476,1128.7,475.7
		C1128.7,475.7,1128.7,475.7,1128.7,475.7z"/>
	<path style="fill:#FFFFFF;" d="M1248.4,73.8c0.2,0,2.5-0.4,2.5-0.4c0,0,0.1-0.6,0.2-1.2c0.1-0.7,0.2-1.3,0.2-1.3l0,0l0,0
		c0,0,0.1,0.6,0.2,1.3c0.1,0.7,0.2,1.2,0.2,1.2c0,0,0.6,0.1,1.2,0.2c0.7,0.1,1.3,0.2,1.3,0.2l0,0l0,0c0,0-0.6,0.1-1.3,0.2
		c-0.7,0.1-1.2,0.2-1.2,0.2c0,0-0.4,2.3-0.4,2.5c0,0,0,0,0,0c0-0.2-0.4-2.5-0.4-2.5S1248.6,73.8,1248.4,73.8
		C1248.4,73.8,1248.4,73.8,1248.4,73.8z"/>
	<path style="fill:#FFFFFF;" d="M1357,17.9c0.2,0.2,2.1,2,2.1,2c0,0,0.6-0.3,1.3-0.6c0.7-0.4,1.3-0.6,1.3-0.7l0,0l0,0
		c0,0-0.5,0.5-1,1c-0.6,0.6-1,1-1,1c0,0,0.3,0.6,0.6,1.3c0.4,0.7,0.6,1.3,0.7,1.3l0,0l0,0c0,0-0.5-0.5-1-1c-0.6-0.6-1-1-1-1
		c0,0-2.4,1.2-2.6,1.3c0,0,0,0,0,0c0.2-0.2,2-2.1,2-2.1C1358.3,20.5,1357.1,18.1,1357,17.9C1357,17.9,1357,17.9,1357,17.9z"/>
	<path style="fill:#FFFFFF;" d="M1273.9,415.7c0.1,0.1,1.1,1.1,1.1,1.1c0,0,0.3-0.2,0.7-0.4c0.4-0.2,0.7-0.4,0.7-0.4l0,0l0,0
		c0,0-0.3,0.3-0.6,0.6c-0.3,0.3-0.6,0.6-0.6,0.6c0,0,0.2,0.3,0.4,0.7s0.4,0.7,0.4,0.7l0,0l0,0c0,0-0.3-0.3-0.6-0.6
		c-0.3-0.3-0.6-0.6-0.6-0.6c0,0-1.3,0.7-1.4,0.7c0,0,0,0,0,0c0.1-0.1,1.1-1.1,1.1-1.1C1274.6,417.1,1273.9,415.8,1273.9,415.7
		C1273.9,415.7,1273.9,415.7,1273.9,415.7z"/>
	<path style="fill:#FFFFFF;" d="M922.8,106c0.2,0.2,2.4,2.4,2.4,2.4c0,0,0.7-0.3,1.5-0.7c0.8-0.4,1.5-0.7,1.5-0.8l0,0l0,0
		c0,0-0.5,0.6-1.2,1.2c-0.6,0.6-1.2,1.2-1.2,1.2c0,0,0.3,0.7,0.7,1.5c0.4,0.8,0.7,1.5,0.8,1.5l0,0l0,0c0,0-0.6-0.5-1.2-1.2
		c-0.6-0.6-1.2-1.2-1.2-1.2c0,0-2.7,1.4-3,1.5c0,0,0,0,0,0c0.2-0.2,2.4-2.4,2.4-2.4C924.3,109,922.9,106.3,922.8,106
		C922.8,106,922.8,106,922.8,106z"/>
	<path style="fill:#FFFFFF;" d="M1046.3,281.8c0.2,0,2.3-0.4,2.3-0.4c0,0,0.1-0.5,0.2-1.1c0.1-0.6,0.2-1.1,0.2-1.1l0,0l0,0
		c0,0,0.1,0.5,0.2,1.1c0.1,0.6,0.2,1.1,0.2,1.1c0,0,0.5,0.1,1.1,0.2c0.6,0.1,1.1,0.2,1.1,0.2l0,0l0,0c0,0-0.5,0.1-1.1,0.2
		c-0.6,0.1-1.1,0.2-1.1,0.2c0,0-0.3,2.1-0.4,2.3c0,0,0,0,0,0c0-0.2-0.4-2.3-0.4-2.3C1048.5,282.1,1046.5,281.8,1046.3,281.8
		C1046.2,281.8,1046.2,281.8,1046.3,281.8z"/>
	<path style="fill:#FFFFFF;" d="M1081.6,156.2c0.2,0,2.6,0,2.6,0c0,0,0.2-0.5,0.4-1.2s0.4-1.2,0.4-1.2l0,0l0,0c0,0,0,0.6,0,1.3
		c0,0.7,0,1.3,0,1.3s0.5,0.2,1.2,0.4c0.7,0.2,1.2,0.4,1.2,0.4l0,0l0,0c0,0-0.6,0-1.3,0s-1.3,0-1.3,0c0,0-0.8,2.3-0.8,2.5
		c0,0,0,0,0,0c0-0.2,0-2.6,0-2.6C1084,157,1081.8,156.3,1081.6,156.2C1081.5,156.2,1081.5,156.2,1081.6,156.2z"/>
	<path style="fill:#FFFFFF;" d="M1145.4,182.8c0.2,0.2,1.9,1.8,1.9,1.8c0,0,0.5-0.3,1.1-0.6c0.6-0.3,1.2-0.6,1.2-0.6l0,0l0,0
		c0,0-0.4,0.4-0.9,0.9c-0.5,0.5-0.9,0.9-0.9,0.9c0,0,0.3,0.5,0.6,1.1c0.3,0.6,0.6,1.2,0.6,1.2l0,0l0,0c0,0-0.4-0.4-0.9-0.9
		c-0.5-0.5-0.9-0.9-0.9-0.9c0,0-2.1,1.1-2.3,1.2c0,0,0,0,0,0c0.2-0.2,1.8-1.9,1.8-1.9C1146.5,185.1,1145.5,183,1145.4,182.8
		C1145.4,182.8,1145.4,182.8,1145.4,182.8z"/>
</g>
<g style="opacity:0.6;">
	<path style="fill:#FFFFFF;" d="M1784.7,214.7c0.3,0,2.9,0.5,2.9,0.5c0,0,0.1,0.6,0.2,1.4c0.1,0.8,0.2,1.4,0.2,1.5l0,0l0,0
		c0,0,0.1-0.7,0.2-1.5c0.1-0.8,0.2-1.4,0.2-1.4c0,0,0.6-0.1,1.4-0.2c0.8-0.1,1.4-0.2,1.5-0.2l0,0l0,0c0,0-0.7-0.1-1.5-0.2
		c-0.8-0.1-1.4-0.2-1.4-0.2c0,0-0.4-2.7-0.5-2.9c0,0,0,0,0,0c0,0.3-0.5,2.9-0.5,2.9C1787.6,214.2,1785,214.6,1784.7,214.7
		C1784.7,214.7,1784.7,214.7,1784.7,214.7z"/>
	<path style="fill:#FFFFFF;" d="M1620.4,144.3c0.2,0.2,1.9,2.7,1.9,2.7c0,0-0.4,0.6-1,1.3c-0.5,0.7-1,1.3-1,1.4l0,0l0,0
		c0,0,0.6-0.5,1.4-1c0.7-0.5,1.3-1,1.3-1c0,0,0.6,0.4,1.3,1c0.7,0.5,1.3,1,1.4,1l0,0l0,0c0,0-0.5-0.6-1-1.4c-0.5-0.7-1-1.3-1-1.3
		c0,0,1.8-2.5,1.9-2.7c0,0,0,0,0,0c-0.2,0.2-2.7,1.9-2.7,1.9C1623.1,146.3,1620.6,144.5,1620.4,144.3
		C1620.4,144.3,1620.4,144.3,1620.4,144.3z"/>
	<path style="fill:#FFFFFF;" d="M1651.5,127.7c0.1,0.1,1.1,1.6,1.1,1.6c0,0-0.3,0.4-0.6,0.8c-0.3,0.4-0.6,0.8-0.6,0.8l0,0l0,0
		c0,0,0.4-0.3,0.8-0.6c0.4-0.3,0.8-0.6,0.8-0.6c0,0,0.4,0.3,0.8,0.6c0.4,0.3,0.8,0.6,0.8,0.6l0,0l0,0c0,0-0.3-0.4-0.6-0.8
		c-0.3-0.4-0.6-0.8-0.6-0.8c0,0,1-1.5,1.1-1.6c0,0,0,0,0,0c-0.1,0.1-1.6,1.1-1.6,1.1C1653.1,128.9,1651.7,127.8,1651.5,127.7
		C1651.5,127.7,1651.5,127.7,1651.5,127.7z"/>
	<path style="fill:#FFFFFF;" d="M2095.4,245.3c0.2,0.2,1.9,2.7,1.9,2.7c0,0-0.4,0.6-1,1.3c-0.5,0.7-1,1.3-1,1.4l0,0l0,0
		c0,0,0.6-0.5,1.4-1c0.7-0.5,1.3-1,1.3-1c0,0,0.6,0.4,1.3,1c0.7,0.5,1.3,1,1.4,1l0,0l0,0c0,0-0.5-0.6-1-1.4c-0.5-0.7-1-1.3-1-1.3
		c0,0,1.8-2.5,1.9-2.7c0,0,0,0,0,0c-0.2,0.2-2.7,1.9-2.7,1.9C2098.1,247.3,2095.6,245.5,2095.4,245.3
		C2095.4,245.3,2095.4,245.3,2095.4,245.3z"/>
	<path style="fill:#FFFFFF;" d="M1873.5,131.1c0.1,0.1,1.1,1.6,1.1,1.6c0,0-0.2,0.4-0.6,0.8c-0.3,0.4-0.6,0.8-0.6,0.8l0,0l0,0
		c0,0,0.4-0.3,0.8-0.6s0.8-0.6,0.8-0.6c0,0,0.4,0.2,0.8,0.6s0.8,0.6,0.8,0.6l0,0l0,0c0,0-0.3-0.4-0.6-0.8c-0.3-0.4-0.6-0.8-0.5-0.8
		c0,0,1-1.4,1.1-1.6c0,0,0,0,0,0c-0.1,0.1-1.6,1.1-1.6,1.1C1875.1,132.3,1873.7,131.2,1873.5,131.1
		C1873.5,131.1,1873.5,131.1,1873.5,131.1z"/>
	<path style="fill:#FFFFFF;" d="M1512.7,527.7c0.3,0,2.9,0.5,2.9,0.5c0,0,0.1,0.6,0.2,1.4c0.1,0.8,0.2,1.4,0.2,1.5l0,0l0,0
		c0,0,0.1-0.7,0.2-1.5c0.1-0.8,0.2-1.4,0.2-1.4c0,0,0.6-0.1,1.4-0.2c0.8-0.1,1.4-0.2,1.5-0.2l0,0l0,0c0,0-0.7-0.1-1.5-0.2
		c-0.8-0.1-1.4-0.2-1.4-0.2c0,0-0.4-2.7-0.5-2.9c0,0,0,0,0,0c0,0.3-0.5,2.9-0.5,2.9C1515.6,527.2,1513,527.6,1512.7,527.7
		C1512.7,527.7,1512.7,527.7,1512.7,527.7z"/>
	<path style="fill:#FFFFFF;" d="M1601.5,444.1c0.1,0.1,1.1,1.6,1.1,1.6c0,0-0.2,0.4-0.6,0.8c-0.3,0.4-0.6,0.8-0.6,0.8l0,0l0,0
		c0,0,0.4-0.3,0.8-0.6s0.8-0.6,0.8-0.6c0,0,0.4,0.2,0.8,0.6c0.4,0.3,0.8,0.6,0.8,0.6l0,0l0,0c0,0-0.3-0.4-0.6-0.8
		c-0.3-0.4-0.6-0.8-0.5-0.8c0,0,1-1.4,1.1-1.6c0,0,0,0,0,0c-0.1,0.1-1.6,1.1-1.6,1.1S1601.7,444.2,1601.5,444.1
		C1601.5,444.1,1601.5,444.1,1601.5,444.1z"/>
	<path style="fill:#FFFFFF;" d="M2216.7,458.3c-0.2,0.2-1.9,2.7-1.9,2.7c0,0,0.4,0.6,1,1.3c0.5,0.7,1,1.3,1,1.4l0,0l0,0
		c0,0-0.6-0.5-1.4-1s-1.3-1-1.3-1c0,0-0.6,0.4-1.3,1c-0.7,0.5-1.3,1-1.4,1l0,0l0,0c0,0,0.5-0.6,1-1.4c0.5-0.7,1-1.3,1-1.3
		c0,0-1.8-2.5-1.9-2.7c0,0,0,0,0,0c0.2,0.2,2.7,1.9,2.7,1.9S2216.5,458.5,2216.7,458.3C2216.7,458.3,2216.7,458.3,2216.7,458.3z"/>
	<path style="fill:#FFFFFF;" d="M2073.6,441.7c-0.1,0.1-1.1,1.6-1.1,1.6c0,0,0.3,0.4,0.6,0.8c0.3,0.4,0.6,0.8,0.6,0.8l0,0l0,0
		c0,0-0.4-0.3-0.8-0.6s-0.8-0.6-0.8-0.6c0,0-0.4,0.3-0.8,0.6c-0.4,0.3-0.8,0.6-0.8,0.6l0,0l0,0c0,0,0.3-0.4,0.6-0.8
		c0.3-0.4,0.6-0.8,0.6-0.8c0,0-1-1.5-1.1-1.6c0,0,0,0,0,0c0.1,0.1,1.6,1.1,1.6,1.1S2073.4,441.8,2073.6,441.7
		C2073.6,441.7,2073.6,441.7,2073.6,441.7z"/>
	<path style="fill:#FFFFFF;" d="M1748.5,396.1c-0.1,0.1-1.1,1.6-1.1,1.6c0,0,0.2,0.4,0.5,0.8s0.6,0.8,0.6,0.8l0,0l0,0
		c0,0-0.4-0.3-0.8-0.6s-0.8-0.6-0.8-0.6c0,0-0.4,0.2-0.8,0.6c-0.4,0.3-0.8,0.6-0.8,0.6l0,0l0,0c0,0,0.3-0.4,0.6-0.8
		c0.3-0.4,0.5-0.8,0.5-0.8c0,0-1-1.4-1.1-1.6c0,0,0,0,0,0c0.1,0.1,1.6,1.1,1.6,1.1C1747,397.3,1748.4,396.2,1748.5,396.1
		C1748.5,396.1,1748.5,396.1,1748.5,396.1z"/>
	<path style="fill:#FFFFFF;" d="M1796.9,75.1c0.1,0.1,0.6,0.9,0.6,0.9c0,0-0.1,0.2-0.3,0.4c-0.2,0.2-0.3,0.4-0.3,0.4l0,0l0,0
		c0,0,0.2-0.1,0.4-0.3c0.2-0.2,0.4-0.3,0.4-0.3c0,0,0.2,0.1,0.4,0.3c0.2,0.2,0.4,0.3,0.4,0.3l0,0l0,0c0,0-0.1-0.2-0.3-0.4
		c-0.2-0.2-0.3-0.4-0.3-0.4c0,0,0.6-0.8,0.6-0.9c0,0,0,0,0,0c-0.1,0.1-0.9,0.6-0.9,0.6S1797,75.2,1796.9,75.1
		C1796.9,75.1,1796.9,75.1,1796.9,75.1z"/>
	<path style="fill:#FFFFFF;" d="M1671.7,298.9c0,0,0.8,0.4,1.8,0.9c1,0.5,1.9,0.9,1.9,0.9l0,0l0,0c0,0-0.7-0.7-1.5-1.5
		c-0.8-0.8-1.4-1.5-1.4-1.5c0,0,0.4-0.8,0.9-1.8c0.5-1,0.9-1.9,0.9-1.9l0,0l0,0c0,0-0.7,0.7-1.5,1.5c-0.8,0.8-1.5,1.4-1.5,1.4
		c0,0-3.4-1.7-3.8-1.9c0.3,0.3,2.9,3,2.9,3s-1.7,3.4-1.9,3.8C1669,301.5,1671.7,298.9,1671.7,298.9z"/>
	<path style="fill:#FFFFFF;" d="M1971.1,176.2c0,0,0.6,0.3,1.4,0.7c0.7,0.4,1.4,0.7,1.4,0.7l0,0l0,0c0,0-0.5-0.5-1.1-1.1
		c-0.6-0.6-1.1-1.1-1.1-1.1c0,0,0.3-0.6,0.7-1.4s0.7-1.4,0.7-1.4l0,0l0,0c0,0-0.5,0.5-1.1,1.1s-1.1,1.1-1.1,1.1c0,0-2.5-1.3-2.8-1.4
		c0.2,0.2,2.2,2.2,2.2,2.2c0,0-1.3,2.5-1.4,2.8C1969,178.2,1971.1,176.2,1971.1,176.2z"/>
	<path style="fill:#FFFFFF;" d="M1539.1,302.2c0,0,0.6,0.3,1.4,0.7c0.7,0.4,1.4,0.7,1.4,0.7l0,0l0,0c0,0-0.5-0.5-1.1-1.1
		c-0.6-0.6-1.1-1.1-1.1-1.1s0.3-0.6,0.7-1.4c0.4-0.7,0.7-1.4,0.7-1.4l0,0l0,0c0,0-0.5,0.5-1.1,1.1c-0.6,0.6-1.1,1.1-1.1,1.1
		c0,0-2.5-1.3-2.8-1.4c0.2,0.2,2.2,2.2,2.2,2.2c0,0-1.3,2.5-1.4,2.8C1537,304.2,1539.1,302.2,1539.1,302.2z"/>
	<path style="fill:#FFFFFF;" d="M1435.1,169.2c0,0,0.6,0.3,1.4,0.7c0.7,0.4,1.4,0.7,1.4,0.7l0,0l0,0c0,0-0.5-0.5-1.1-1.1
		c-0.6-0.6-1.1-1.1-1.1-1.1c0,0,0.3-0.6,0.7-1.4s0.7-1.4,0.7-1.4l0,0l0,0c0,0-0.5,0.5-1.1,1.1s-1.1,1.1-1.1,1.1c0,0-2.5-1.3-2.8-1.4
		c0.2,0.2,2.2,2.2,2.2,2.2c0,0-1.3,2.5-1.4,2.8C1433,171.2,1435.1,169.2,1435.1,169.2z"/>
	<path style="fill:#FFFFFF;" d="M1902.5,283c0.2,0,2.7,0,2.7,0c0,0,0.2,0.6,0.4,1.2c0.2,0.7,0.4,1.3,0.4,1.3l0,0l0,0
		c0,0,0-0.6,0-1.3c0-0.7,0-1.3,0-1.3c0,0,0.6-0.2,1.2-0.4c0.7-0.2,1.3-0.4,1.3-0.4l0,0l0,0c0,0-0.6,0-1.3,0c-0.7,0-1.3,0-1.3,0
		c0,0-0.8-2.3-0.9-2.5c0,0,0,0,0,0c0,0.2,0,2.7,0,2.7C1905,282.1,1902.7,282.9,1902.5,283C1902.5,283,1902.5,283,1902.5,283z"/>
	<path style="fill:#FFFFFF;" d="M2035.4,680.9c0.2,0,2.5,0.4,2.5,0.4c0,0,0.1,0.6,0.2,1.2c0.1,0.7,0.2,1.3,0.2,1.3l0,0l0,0
		c0,0,0.1-0.6,0.2-1.3c0.1-0.7,0.2-1.2,0.2-1.2c0,0,0.6-0.1,1.2-0.2c0.7-0.1,1.3-0.2,1.3-0.2l0,0l0,0c0,0-0.6-0.1-1.3-0.2
		c-0.7-0.1-1.2-0.2-1.2-0.2c0,0-0.4-2.3-0.4-2.5c0,0,0,0,0,0c0,0.2-0.4,2.5-0.4,2.5C2037.9,680.5,2035.6,680.9,2035.4,680.9
		C2035.4,680.9,2035.4,680.9,2035.4,680.9z"/>
	<path style="fill:#FFFFFF;" d="M2073.3,765.8c0.2,0,2.3,0,2.3,0c0,0,0.2,0.5,0.4,1.1c0.2,0.6,0.4,1.1,0.4,1.1l0,0l0,0
		c0,0,0-0.5,0-1.2s0-1.1,0-1.1c0,0,0.5-0.2,1.1-0.4c0.6-0.2,1.1-0.4,1.1-0.4l0,0l0,0c0,0-0.5,0-1.2,0s-1.1,0-1.1,0
		c0,0-0.7-2-0.7-2.2c0,0,0,0,0,0c0,0.2,0,2.3,0,2.3C2075.5,765,2073.5,765.7,2073.3,765.8C2073.3,765.8,2073.3,765.8,2073.3,765.8z"
		/>
	<path style="fill:#FFFFFF;" d="M2144,736.8c0.2-0.2,2.1-2,2.1-2c0,0,0.6,0.3,1.3,0.6c0.7,0.4,1.3,0.6,1.3,0.7l0,0l0,0
		c0,0-0.5-0.5-1-1c-0.6-0.6-1-1-1-1c0,0,0.3-0.6,0.6-1.3c0.4-0.7,0.6-1.3,0.7-1.3l0,0l0,0c0,0-0.5,0.5-1,1c-0.6,0.6-1,1-1,1
		c0,0-2.4-1.2-2.6-1.3c0,0,0,0,0,0c0.2,0.2,2,2.1,2,2.1S2144.1,736.6,2144,736.8C2144,736.8,2144,736.8,2144,736.8z"/>
	<path style="fill:#FFFFFF;" d="M2060.9,339c0.1-0.1,1.1-1.1,1.1-1.1c0,0,0.3,0.2,0.7,0.4c0.4,0.2,0.7,0.4,0.7,0.4l0,0l0,0
		c0,0-0.3-0.3-0.6-0.6s-0.6-0.6-0.6-0.6c0,0,0.2-0.3,0.4-0.7c0.2-0.4,0.4-0.7,0.4-0.7l0,0l0,0c0,0-0.3,0.3-0.6,0.6
		c-0.3,0.3-0.6,0.6-0.6,0.6c0,0-1.3-0.7-1.4-0.7c0,0,0,0,0,0c0.1,0.1,1.1,1.1,1.1,1.1C2061.6,337.6,2060.9,338.9,2060.9,339
		C2060.9,339,2060.9,339,2060.9,339z"/>
	<path style="fill:#FFFFFF;" d="M1830.5,785c0.2,0,2.7,0,2.7,0c0,0,0.2,0.6,0.4,1.2c0.2,0.7,0.4,1.3,0.4,1.3l0,0l0,0
		c0,0,0-0.6,0-1.3c0-0.7,0-1.3,0-1.3c0,0,0.6-0.2,1.2-0.4c0.7-0.2,1.3-0.4,1.3-0.4l0,0l0,0c0,0-0.6,0-1.3,0c-0.7,0-1.3,0-1.3,0
		c0,0-0.8-2.3-0.9-2.5c0,0,0,0,0,0c0,0.2,0,2.7,0,2.7C1833,784.1,1830.7,784.9,1830.5,785C1830.5,785,1830.5,785,1830.5,785z"/>
	<path style="fill:#FFFFFF;" d="M1709.8,648.7c0.2-0.2,2.4-2.4,2.4-2.4c0,0,0.7,0.3,1.5,0.7c0.8,0.4,1.5,0.7,1.5,0.8l0,0l0,0
		c0,0-0.5-0.6-1.2-1.2c-0.6-0.6-1.2-1.2-1.2-1.2s0.3-0.7,0.7-1.5c0.4-0.8,0.7-1.5,0.8-1.5l0,0l0,0c0,0-0.6,0.5-1.2,1.2
		c-0.6,0.6-1.2,1.2-1.2,1.2c0,0-2.7-1.4-3-1.5c0,0,0,0,0,0c0.2,0.2,2.4,2.4,2.4,2.4C1711.3,645.7,1709.9,648.4,1709.8,648.7
		C1709.8,648.7,1709.8,648.7,1709.8,648.7z"/>
	<path style="fill:#FFFFFF;" d="M1833.3,472.9c0.2,0,2.3,0.4,2.3,0.4c0,0,0.1,0.5,0.2,1.1c0.1,0.6,0.2,1.1,0.2,1.1l0,0l0,0
		c0,0,0.1-0.5,0.2-1.1c0.1-0.6,0.2-1.1,0.2-1.1c0,0,0.5-0.1,1.1-0.2c0.6-0.1,1.1-0.2,1.1-0.2l0,0l0,0c0,0-0.5-0.1-1.1-0.2
		c-0.6-0.1-1.1-0.2-1.1-0.2c0,0-0.3-2.1-0.4-2.3c0,0,0,0,0,0c0,0.2-0.4,2.3-0.4,2.3C1835.5,472.6,1833.5,472.9,1833.3,472.9
		C1833.2,472.9,1833.2,472.9,1833.3,472.9z"/>
	<path style="fill:#FFFFFF;" d="M1868.6,598.5c0.2,0,2.6,0,2.6,0c0,0,0.2,0.5,0.4,1.2c0.2,0.7,0.4,1.2,0.4,1.2l0,0l0,0
		c0,0,0-0.6,0-1.3c0-0.7,0-1.3,0-1.3c0,0,0.5-0.2,1.2-0.4c0.7-0.2,1.2-0.4,1.2-0.4l0,0l0,0c0,0-0.6,0-1.3,0s-1.3,0-1.3,0
		c0,0-0.8-2.3-0.8-2.5c0,0,0,0,0,0c0,0.2,0,2.6,0,2.6C1871,597.7,1868.8,598.4,1868.6,598.5C1868.5,598.5,1868.5,598.5,1868.6,598.5
		z"/>
	<path style="fill:#FFFFFF;" d="M1932.4,571.9c0.2-0.2,1.9-1.8,1.9-1.8c0,0,0.5,0.3,1.1,0.6c0.6,0.3,1.2,0.6,1.2,0.6l0,0l0,0
		c0,0-0.4-0.4-0.9-0.9c-0.5-0.5-0.9-0.9-0.9-0.9s0.3-0.5,0.6-1.1s0.6-1.2,0.6-1.2l0,0l0,0c0,0-0.4,0.4-0.9,0.9
		c-0.5,0.5-0.9,0.9-0.9,0.9c0,0-2.1-1.1-2.3-1.2c0,0,0,0,0,0c0.2,0.2,1.8,1.9,1.8,1.9C1933.5,569.6,1932.5,571.7,1932.4,571.9
		C1932.4,571.9,1932.4,571.9,1932.4,571.9z"/>
</g>
<g style="opacity:0.6;">
	<path style="fill:#FFFFFF;" d="M2502.7,48.7c0.3,0,2.9,0.5,2.9,0.5c0,0,0.1,0.6,0.2,1.4c0.1,0.8,0.2,1.4,0.2,1.5l0,0l0,0
		c0,0,0.1-0.7,0.2-1.5s0.2-1.4,0.2-1.4c0,0,0.6-0.1,1.4-0.2s1.4-0.2,1.5-0.2l0,0l0,0c0,0-0.7-0.1-1.5-0.2c-0.8-0.1-1.4-0.2-1.4-0.2
		c0,0-0.4-2.7-0.5-2.9c0,0,0,0,0,0c0,0.3-0.5,2.9-0.5,2.9C2505.6,48.2,2503,48.6,2502.7,48.7C2502.7,48.7,2502.7,48.7,2502.7,48.7z"
		/>
	<path style="fill:#FFFFFF;" d="M2813.4,79.3c0.2,0.2,1.9,2.7,1.9,2.7c0,0-0.4,0.6-1,1.3c-0.5,0.7-1,1.3-1,1.4l0,0l0,0
		c0,0,0.6-0.5,1.4-1c0.7-0.5,1.3-1,1.3-1c0,0,0.6,0.4,1.3,1c0.7,0.5,1.3,1,1.4,1l0,0l0,0c0,0-0.5-0.6-1-1.4c-0.5-0.7-1-1.3-1-1.3
		c0,0,1.8-2.5,1.9-2.7c0,0,0,0,0,0c-0.2,0.2-2.7,1.9-2.7,1.9C2816.1,81.3,2813.6,79.5,2813.4,79.3
		C2813.4,79.3,2813.4,79.3,2813.4,79.3z"/>
	<path style="fill:#FFFFFF;" d="M2879.5,10.7c0.1,0.1,1.1,1.6,1.1,1.6c0,0-0.3,0.4-0.6,0.8c-0.3,0.4-0.6,0.8-0.6,0.8l0,0l0,0
		c0,0,0.4-0.3,0.8-0.6s0.8-0.6,0.8-0.6c0,0,0.4,0.3,0.8,0.6c0.4,0.3,0.8,0.6,0.8,0.6l0,0l0,0c0,0-0.3-0.4-0.6-0.8
		c-0.3-0.4-0.6-0.8-0.6-0.8c0,0,1-1.5,1.1-1.6c0,0,0,0,0,0c-0.1,0.1-1.6,1.1-1.6,1.1C2881.1,11.9,2879.7,10.8,2879.5,10.7
		C2879.5,10.7,2879.5,10.7,2879.5,10.7z"/>
	<path style="fill:#FFFFFF;" d="M2230.7,361.7c0.3,0,2.9,0.5,2.9,0.5c0,0,0.1,0.6,0.2,1.4c0.1,0.8,0.2,1.4,0.2,1.5l0,0l0,0
		c0,0,0.1-0.7,0.2-1.5c0.1-0.8,0.2-1.4,0.2-1.4c0,0,0.6-0.1,1.4-0.2c0.8-0.1,1.4-0.2,1.5-0.2l0,0l0,0c0,0-0.7-0.1-1.5-0.2
		c-0.8-0.1-1.4-0.2-1.4-0.2c0,0-0.4-2.7-0.5-2.9c0,0,0,0,0,0c0,0.3-0.5,2.9-0.5,2.9C2233.6,361.2,2231,361.6,2230.7,361.7
		C2230.7,361.7,2230.7,361.7,2230.7,361.7z"/>
	<path style="fill:#FFFFFF;" d="M2319.5,278.1c0.1,0.1,1.1,1.6,1.1,1.6c0,0-0.2,0.4-0.6,0.8c-0.3,0.4-0.6,0.8-0.6,0.8l0,0l0,0
		c0,0,0.4-0.3,0.8-0.6c0.4-0.3,0.8-0.6,0.8-0.6c0,0,0.4,0.2,0.8,0.6c0.4,0.3,0.8,0.6,0.8,0.6l0,0l0,0c0,0-0.3-0.4-0.6-0.8
		c-0.3-0.4-0.6-0.8-0.6-0.8c0,0,1-1.4,1.1-1.6c0,0,0,0,0,0c-0.1,0.1-1.6,1.1-1.6,1.1S2319.7,278.2,2319.5,278.1
		C2319.5,278.1,2319.5,278.1,2319.5,278.1z"/>
	<path style="fill:#FFFFFF;" d="M2934.7,292.3c-0.2,0.2-1.9,2.7-1.9,2.7c0,0,0.4,0.6,1,1.3c0.5,0.7,1,1.3,1,1.4l0,0l0,0
		c0,0-0.6-0.5-1.4-1s-1.3-1-1.3-1c0,0-0.6,0.4-1.3,1c-0.7,0.5-1.3,1-1.4,1l0,0l0,0c0,0,0.5-0.6,1-1.4c0.5-0.7,1-1.3,1-1.3
		c0,0-1.8-2.5-1.9-2.7c0,0,0,0,0,0c0.2,0.2,2.7,1.9,2.7,1.9S2934.5,292.5,2934.7,292.3C2934.7,292.3,2934.7,292.3,2934.7,292.3z"/>
	<path style="fill:#FFFFFF;" d="M2791.6,275.7c-0.1,0.1-1.1,1.6-1.1,1.6c0,0,0.3,0.4,0.6,0.8c0.3,0.4,0.6,0.8,0.6,0.8l0,0l0,0
		c0,0-0.4-0.3-0.8-0.6s-0.8-0.6-0.8-0.6c0,0-0.4,0.3-0.8,0.6c-0.4,0.3-0.8,0.6-0.8,0.6l0,0l0,0c0,0,0.3-0.4,0.6-0.8
		c0.3-0.4,0.6-0.8,0.6-0.8c0,0-1-1.5-1.1-1.6c0,0,0,0,0,0c0.1,0.1,1.6,1.1,1.6,1.1S2791.4,275.8,2791.6,275.7
		C2791.6,275.7,2791.6,275.7,2791.6,275.7z"/>
	<path style="fill:#FFFFFF;" d="M2466.5,230.1c-0.1,0.1-1.1,1.6-1.1,1.6c0,0,0.2,0.4,0.6,0.8c0.3,0.4,0.6,0.8,0.6,0.8l0,0l0,0
		c0,0-0.4-0.3-0.8-0.6c-0.4-0.3-0.8-0.6-0.8-0.6c0,0-0.4,0.2-0.8,0.6c-0.4,0.3-0.8,0.6-0.8,0.6l0,0l0,0c0,0,0.3-0.4,0.6-0.8
		c0.3-0.4,0.6-0.8,0.6-0.8c0,0-1-1.4-1.1-1.6c0,0,0,0,0,0c0.1,0.1,1.6,1.1,1.6,1.1C2465,231.3,2466.4,230.2,2466.5,230.1
		C2466.5,230.1,2466.5,230.1,2466.5,230.1z"/>
	<path style="fill:#FFFFFF;" d="M2389.7,132.9c0,0,0.8,0.4,1.8,0.9c1,0.5,1.9,0.9,1.9,0.9l0,0l0,0c0,0-0.7-0.7-1.5-1.5
		s-1.4-1.5-1.4-1.5c0,0,0.4-0.8,0.9-1.8c0.5-1,0.9-1.9,0.9-1.9l0,0l0,0c0,0-0.7,0.7-1.5,1.5c-0.8,0.8-1.5,1.4-1.5,1.4
		c0,0-3.4-1.7-3.8-1.9c0.3,0.3,2.9,3,2.9,3c0,0-1.7,3.4-1.9,3.8C2387,135.5,2389.7,132.9,2389.7,132.9z"/>
	<path style="fill:#FFFFFF;" d="M2689.1,10.2c0,0,0.6,0.3,1.4,0.7c0.7,0.4,1.4,0.7,1.4,0.7l0,0l0,0c0,0-0.5-0.5-1.1-1.1
		c-0.6-0.6-1.1-1.1-1.1-1.1c0,0,0.3-0.6,0.7-1.4c0.4-0.7,0.7-1.4,0.7-1.4l0,0l0,0c0,0-0.5,0.5-1.1,1.1c-0.6,0.6-1.1,1.1-1.1,1.1
		c0,0-2.5-1.3-2.8-1.4c0.2,0.2,2.2,2.2,2.2,2.2c0,0-1.3,2.5-1.4,2.8C2687,12.2,2689.1,10.2,2689.1,10.2z"/>
	<path style="fill:#FFFFFF;" d="M2257.1,136.2c0,0,0.6,0.3,1.4,0.7s1.4,0.7,1.4,0.7l0,0l0,0c0,0-0.5-0.5-1.1-1.1s-1.1-1.1-1.1-1.1
		c0,0,0.3-0.6,0.7-1.4s0.7-1.4,0.7-1.4l0,0l0,0c0,0-0.5,0.5-1.1,1.1c-0.6,0.6-1.1,1.1-1.1,1.1c0,0-2.5-1.3-2.8-1.4
		c0.2,0.2,2.2,2.2,2.2,2.2s-1.3,2.5-1.4,2.8C2255,138.2,2257.1,136.2,2257.1,136.2z"/>
	<path style="fill:#FFFFFF;" d="M2153.1,3.2c0,0,0.6,0.3,1.4,0.7s1.4,0.7,1.4,0.7l0,0l0,0c0,0-0.5-0.5-1.1-1.1
		c-0.6-0.6-1.1-1.1-1.1-1.1c0,0,0.3-0.6,0.7-1.4c0.4-0.7,0.7-1.4,0.7-1.4l0,0l0,0c0,0-0.5,0.5-1.1,1.1c-0.6,0.6-1.1,1.1-1.1,1.1
		c0,0-2.5-1.3-2.8-1.4c0.2,0.2,2.2,2.2,2.2,2.2c0,0-1.3,2.5-1.4,2.8C2151,5.2,2153.1,3.2,2153.1,3.2z"/>
	<path style="fill:#FFFFFF;" d="M2633.7,113c0.2-0.2,2.4-2.4,2.4-2.4c0,0,0.7,0.3,1.5,0.7c0.8,0.4,1.5,0.7,1.5,0.8l0,0l0,0
		c0,0-0.5-0.6-1.2-1.2s-1.2-1.2-1.2-1.2c0,0,0.3-0.7,0.7-1.5c0.4-0.8,0.7-1.5,0.8-1.5l0,0l0,0c0,0-0.6,0.5-1.2,1.2
		c-0.6,0.6-1.2,1.2-1.2,1.2c0,0-2.7-1.4-3-1.5c0,0,0,0,0,0c0.2,0.2,2.4,2.4,2.4,2.4C2635.2,110,2633.8,112.7,2633.7,113
		C2633.7,113,2633.7,113,2633.7,113z"/>
	<path style="fill:#FFFFFF;" d="M2753.4,514.9c0.2,0,2.5,0.4,2.5,0.4c0,0,0.1,0.6,0.2,1.2c0.1,0.7,0.2,1.3,0.2,1.3l0,0l0,0
		c0,0,0.1-0.6,0.2-1.3c0.1-0.7,0.2-1.2,0.2-1.2c0,0,0.6-0.1,1.2-0.2s1.3-0.2,1.3-0.2l0,0l0,0c0,0-0.6-0.1-1.3-0.2
		c-0.7-0.1-1.2-0.2-1.2-0.2c0,0-0.4-2.3-0.4-2.5c0,0,0,0,0,0c0,0.2-0.4,2.5-0.4,2.5C2755.9,514.5,2753.6,514.9,2753.4,514.9
		C2753.4,514.9,2753.4,514.9,2753.4,514.9z"/>
	<path style="fill:#FFFFFF;" d="M2791.3,599.8c0.2,0,2.3,0,2.3,0c0,0,0.2,0.5,0.4,1.1c0.2,0.6,0.4,1.1,0.4,1.1l0,0l0,0
		c0,0,0-0.5,0-1.2s0-1.1,0-1.1c0,0,0.5-0.2,1.1-0.4c0.6-0.2,1.1-0.4,1.1-0.4l0,0l0,0c0,0-0.5,0-1.2,0s-1.1,0-1.1,0
		c0,0-0.7-2-0.7-2.2c0,0,0,0,0,0c0,0.2,0,2.3,0,2.3C2793.5,599,2791.5,599.7,2791.3,599.8C2791.3,599.8,2791.3,599.8,2791.3,599.8z"
		/>
	<path style="fill:#FFFFFF;" d="M2862,570.8c0.2-0.2,2.1-2,2.1-2c0,0,0.6,0.3,1.3,0.6c0.7,0.4,1.3,0.6,1.3,0.7l0,0l0,0
		c0,0-0.5-0.5-1-1c-0.6-0.6-1-1-1-1c0,0,0.3-0.6,0.6-1.3c0.4-0.7,0.6-1.3,0.7-1.3l0,0l0,0c0,0-0.5,0.5-1,1c-0.6,0.6-1,1-1,1
		c0,0-2.4-1.2-2.6-1.3c0,0,0,0,0,0c0.2,0.2,2,2.1,2,2.1S2862.1,570.6,2862,570.8C2862,570.8,2862,570.8,2862,570.8z"/>
	<path style="fill:#FFFFFF;" d="M2778.9,173c0.1-0.1,1.1-1.1,1.1-1.1c0,0,0.3,0.2,0.7,0.4c0.4,0.2,0.7,0.4,0.7,0.4l0,0l0,0
		c0,0-0.3-0.3-0.6-0.6s-0.6-0.6-0.6-0.6c0,0,0.2-0.3,0.4-0.7c0.2-0.4,0.4-0.7,0.4-0.7l0,0l0,0c0,0-0.3,0.3-0.6,0.6
		c-0.3,0.3-0.6,0.6-0.6,0.6c0,0-1.3-0.7-1.4-0.7c0,0,0,0,0,0c0.1,0.1,1.1,1.1,1.1,1.1C2779.6,171.6,2778.9,172.9,2778.9,173
		C2778.9,173,2778.9,173,2778.9,173z"/>
	<path style="fill:#FFFFFF;" d="M2548.5,619c0.2,0,2.7,0,2.7,0c0,0,0.2,0.6,0.4,1.2c0.2,0.7,0.4,1.3,0.4,1.3l0,0v0c0,0,0-0.6,0-1.3
		c0-0.7,0-1.3,0-1.3s0.6-0.2,1.2-0.4s1.3-0.4,1.3-0.4l0,0l0,0c0,0-0.6,0-1.3,0c-0.7,0-1.3,0-1.3,0c0,0-0.8-2.3-0.9-2.5c0,0,0,0,0,0
		c0,0.2,0,2.7,0,2.7C2551,618.1,2548.7,618.9,2548.5,619C2548.5,619,2548.5,619,2548.5,619z"/>
	<path style="fill:#FFFFFF;" d="M2427.8,482.7c0.2-0.2,2.4-2.4,2.4-2.4c0,0,0.7,0.3,1.5,0.7c0.8,0.4,1.5,0.7,1.5,0.8l0,0l0,0
		c0,0-0.5-0.6-1.2-1.2c-0.6-0.6-1.2-1.2-1.2-1.2c0,0,0.3-0.7,0.7-1.5c0.4-0.8,0.7-1.5,0.8-1.5l0,0l0,0c0,0-0.6,0.5-1.2,1.2
		c-0.6,0.6-1.2,1.2-1.2,1.2c0,0-2.7-1.4-3-1.5c0,0,0,0,0,0c0.2,0.2,2.4,2.4,2.4,2.4S2427.9,482.4,2427.8,482.7
		C2427.8,482.7,2427.8,482.7,2427.8,482.7z"/>
	<path style="fill:#FFFFFF;" d="M2551.3,306.9c0.2,0,2.3,0.4,2.3,0.4c0,0,0.1,0.5,0.2,1.1c0.1,0.6,0.2,1.1,0.2,1.1l0,0l0,0
		c0,0,0.1-0.5,0.2-1.1c0.1-0.6,0.2-1.1,0.2-1.1c0,0,0.5-0.1,1.1-0.2c0.6-0.1,1.1-0.2,1.1-0.2l0,0l0,0c0,0-0.5-0.1-1.1-0.2
		c-0.6-0.1-1.1-0.2-1.1-0.2c0,0-0.3-2.1-0.4-2.3c0,0,0,0,0,0c0,0.2-0.4,2.3-0.4,2.3C2553.5,306.6,2551.5,306.9,2551.3,306.9
		C2551.2,306.9,2551.2,306.9,2551.3,306.9z"/>
	<path style="fill:#FFFFFF;" d="M2586.6,432.5c0.2,0,2.6,0,2.6,0c0,0,0.2,0.5,0.4,1.2c0.2,0.7,0.4,1.2,0.4,1.2l0,0v0
		c0,0,0-0.6,0-1.3c0-0.7,0-1.3,0-1.3c0,0,0.5-0.2,1.2-0.4s1.2-0.4,1.2-0.4l0,0l0,0c0,0-0.6,0-1.3,0s-1.3,0-1.3,0
		c0,0-0.8-2.3-0.8-2.5c0,0,0,0,0,0c0,0.2,0,2.6,0,2.6C2589,431.7,2586.8,432.4,2586.6,432.5C2586.5,432.5,2586.5,432.5,2586.6,432.5
		z"/>
	<path style="fill:#FFFFFF;" d="M2650.4,405.9c0.2-0.2,1.9-1.8,1.9-1.8c0,0,0.5,0.3,1.1,0.6s1.2,0.6,1.2,0.6l0,0l0,0
		c0,0-0.4-0.4-0.9-0.9c-0.5-0.5-0.9-0.9-0.9-0.9c0,0,0.3-0.5,0.6-1.1c0.3-0.6,0.6-1.2,0.6-1.2l0,0l0,0c0,0-0.4,0.4-0.9,0.9
		s-0.9,0.9-0.9,0.9c0,0-2.1-1.1-2.3-1.2c0,0,0,0,0,0c0.2,0.2,1.8,1.9,1.8,1.9C2651.5,403.6,2650.5,405.7,2650.4,405.9
		C2650.4,405.9,2650.4,405.9,2650.4,405.9z"/>
</g>
</svg>
