<?xml version="1.0" encoding="utf-8"?>
<!-- Generator: Adobe Illustrator 22.0.1, SVG Export Plug-In . SVG Version: 6.00 Build 0)  -->
<svg version="1.1" id="bonus" xmlns="http://www.w3.org/2000/svg" xmlns:xlink="http://www.w3.org/1999/xlink" x="0px" y="0px"
	 width="7500px" height="1000px" viewBox="0 0 7500 1000" style="enable-background:new 0 0 7500 1000;" xml:space="preserve">
<linearGradient id="SVGID_14_" gradientUnits="userSpaceOnUse" x1="3750" y1="-9.094947e-13" x2="3750" y2="1000">
	<stop  offset="0" style="stop-color:#19123C"/>
	<stop  offset="0.2757" style="stop-color:#231840"/>
	<stop  offset="0.7414" style="stop-color:#3D2A4C"/>
	<stop  offset="1" style="stop-color:#4F3553"/>
</linearGradient>
<rect style="fill:url(#SVGID_14_);" width="7500" height="1000"/>
<g style="opacity:0.1;">
	<g>
		<defs>
			<circle id="SVGID_9_" cx="115.3" cy="171.8" r="48.8"/>
		</defs>
		<use xlink:href="#SVGID_9_"  style="overflow:visible;fill:#9BD6D9;"/>
		<clipPath id="SVGID_17_">
			<use xlink:href="#SVGID_9_"  style="overflow:visible;"/>
		</clipPath>
		<path style="clip-path:url(#SVGID_17_);fill:#69C1C6;" d="M136.5,127.6c0,0,14,8.9,16.6,30.4c2.6,21.3-10.3,56.4-54.6,59.4
			l34.1,19.3l68.5-5.3l7.2-67.4L182.8,130L136.5,127.6z"/>
	</g>
	<circle style="fill:#69C1C6;" cx="118.7" cy="136.5" r="3.1"/>
	<circle style="fill:#69C1C6;" cx="106.7" cy="203.1" r="5.8"/>
	<circle style="fill:#69C1C6;" cx="136.8" cy="161.2" r="4.4"/>
	<circle style="fill:#69C1C6;" cx="76.1" cy="168.3" r="2.7"/>
</g>
<g style="opacity:0.1;">
	<g>
		<defs>
			<circle id="SVGID_15_" cx="548.3" cy="333.3" r="20.8"/>
		</defs>
		<use xlink:href="#SVGID_15_"  style="overflow:visible;fill:#F6B3C0;"/>
		<clipPath id="SVGID_20_">
			<use xlink:href="#SVGID_15_"  style="overflow:visible;"/>
		</clipPath>
		<path style="clip-path:url(#SVGID_20_);fill:#ED6881;" d="M594.4,325.1h-7.2c0.2-0.2,0.4-0.5,0.4-0.9v-0.6c0-0.6-0.5-1.2-1.2-1.2
			h6.4c0.7,0,1.2-0.5,1.2-1.2v-0.6c0-0.6-0.5-1.2-1.2-1.2h-38.3c-0.6,0-1.2,0.5-1.2,1.2v0.6c0,0.6,0.5,1.2,1.2,1.2h-6.4
			c-0.6,0-1.2,0.5-1.2,1.2v0.6c0,0.6,0.5,1.2,1.2,1.2h7.2c-0.2,0.2-0.4,0.5-0.4,0.9v0.6c0,0.4,0.2,0.7,0.4,0.9h-9
			c-0.6,0-1.2,0.5-1.2,1.2v0.6c0,0.6,0.5,1.2,1.2,1.2h38.3c0.6,0,1.2-0.5,1.2-1.2v-0.6c0-0.4-0.2-0.7-0.4-0.9h9
			c0.6,0,1.2-0.5,1.2-1.2v-0.6C595.6,325.6,595,325.1,594.4,325.1z"/>
		<path style="clip-path:url(#SVGID_20_);fill:#ED6881;" d="M547.6,342.1h-7.2c0.2-0.2,0.4-0.5,0.4-0.9v-0.6c0-0.6-0.5-1.2-1.2-1.2
			h6.4c0.7,0,1.2-0.5,1.2-1.2v-0.6c0-0.6-0.5-1.2-1.2-1.2h-38.3c-0.6,0-1.2,0.5-1.2,1.2v0.6c0,0.6,0.5,1.2,1.2,1.2h-6.4
			c-0.6,0-1.2,0.5-1.2,1.2v0.6c0,0.6,0.5,1.2,1.2,1.2h7.2c-0.2,0.2-0.4,0.5-0.4,0.9v0.6c0,0.4,0.2,0.7,0.4,0.9h-9
			c-0.6,0-1.2,0.5-1.2,1.2v0.6c0,0.6,0.5,1.2,1.2,1.2h38.3c0.6,0,1.2-0.5,1.2-1.2v-0.6c0-0.4-0.2-0.7-0.4-0.9h9
			c0.6,0,1.2-0.5,1.2-1.2v-0.6C548.8,342.6,548.3,342.1,547.6,342.1z"/>
		<path style="clip-path:url(#SVGID_20_);fill:#F6B3C0;" d="M557.3,314.4c0,0,6,3.8,7.1,12.9c1.1,9.1-4.4,24-23.3,25.3l14.5,8.2
			l29.2-2.3l3.1-28.7L577,315.5L557.3,314.4z"/>
	</g>
</g>
<g style="opacity:0.1;">
	<g>
		<defs>
			<circle id="SVGID_4_" cx="1289.5" cy="263.5" r="25.5"/>
		</defs>
		<use xlink:href="#SVGID_4_"  style="overflow:visible;fill:#9BD6D9;"/>
		<clipPath id="SVGID_21_">
			<use xlink:href="#SVGID_4_"  style="overflow:visible;"/>
		</clipPath>
		<path style="clip-path:url(#SVGID_21_);fill:#69C1C6;" d="M1300.6,240.4c0,0,7.3,4.6,8.7,15.9c1.4,11.1-5.4,29.5-28.6,31.1
			l17.9,10.1l35.8-2.8l3.8-35.2l-13.4-17.7L1300.6,240.4z"/>
	</g>
	<circle style="fill:#69C1C6;" cx="1291.3" cy="245.1" r="1.6"/>
	<circle style="fill:#69C1C6;" cx="1285" cy="279.9" r="3"/>
	<circle style="fill:#69C1C6;" cx="1300.8" cy="258" r="2.3"/>
	<circle style="fill:#69C1C6;" cx="1269" cy="261.7" r="1.4"/>
</g>
<g style="opacity:0.1;">
	<g>
		<defs>
			<circle id="SVGID_27_" cx="902.3" cy="165.5" r="29.5"/>
		</defs>
		<use xlink:href="#SVGID_27_"  style="overflow:visible;fill:#A98DC8;"/>
		<clipPath id="SVGID_22_">
			<use xlink:href="#SVGID_27_"  style="overflow:visible;"/>
		</clipPath>
		<rect x="867.4" y="134.4" style="clip-path:url(#SVGID_22_);fill:#6F41A3;" width="74.6" height="9.7"/>
		<rect x="863.8" y="160" style="clip-path:url(#SVGID_22_);fill:#6F41A3;" width="82.6" height="9.6"/>
		<rect x="876" y="182.1" style="clip-path:url(#SVGID_22_);fill:#6F41A3;" width="54.3" height="7.8"/>
		<path style="opacity:0.28;clip-path:url(#SVGID_22_);fill:#8276A1;" d="M910,137c0,0,7.4,5.7,10.8,14.5c5.8,14.6,2,41.3-33.4,42.3
			l27.4,9.3l46-10.2l-2.9-40.9l-21.3-17.6L910,137z"/>
		<ellipse style="opacity:0.47;clip-path:url(#SVGID_22_);fill:#8276A1;" cx="903" cy="137.1" rx="8.9" ry="1.2"/>
	</g>
	<path style="opacity:0.21;fill:#447182;" d="M874.1,157.1l-0.5,1.7c0,0,25.4,15.1,52.5,24.3l1-1.1L874.1,157.1z"/>
	<path style="fill:#69C1C6;" d="M930.8,173.5c-0.3,1.1-0.6,2.1-1,3.2c0.3,0.1,0.5,0.3,0.7,0.4c3.4,2,5.8,3.6,7.5,4.9
		c-2.1-0.5-4.9-1.4-8.5-2.7c-0.3-0.1-0.5-0.2-0.8-0.3c-2.5-0.9-5.2-1.9-8.1-3.1c-4.5-1.8-9.4-3.9-14.4-6.1c-1.6-0.7-3.3-1.5-4.9-2.3
		c-5.2-2.4-10.3-5-15-7.4c-4-2.1-7.8-4.2-11.1-6.1c-0.3-0.2-0.7-0.4-1-0.6c-3.4-2-5.8-3.6-7.5-4.9c2.1,0.5,4.9,1.4,8.5,2.7
		c0.4,0.1,0.8,0.3,1.2,0.4c0.5-1,1.1-1.9,1.7-2.9c-11.1-4-18.7-5.7-19.4-4c-0.8,1.7,5.3,6.4,15.5,12.3c1.7,1,3.4,2,5.3,3
		c5.6,3.1,12.1,6.4,19.1,9.7c0.5,0.2,1,0.5,1.5,0.7c6.8,3.2,13.3,6,19.2,8.4c2.8,1.1,5.4,2.1,7.9,3c10.8,3.9,18.2,5.5,19,3.8
		C946.8,184.1,940.8,179.4,930.8,173.5z"/>
</g>
<g style="opacity:0.1;">
	<g>
		<defs>
			<circle id="SVGID_1_" cx="1759.1" cy="170.2" r="35.2"/>
		</defs>
		<use xlink:href="#SVGID_1_"  style="overflow:visible;fill:#9BD6D9;"/>
		<clipPath id="SVGID_23_">
			<use xlink:href="#SVGID_1_"  style="overflow:visible;"/>
		</clipPath>
		<path style="clip-path:url(#SVGID_23_);fill:#69C1C6;" d="M1786.6,147.9c0,0,6.4,10.1,1.5,25c-4.8,14.7-24.1,33.7-54,22l16.4,23.1
			l46.4,17.6l25.4-41.8l-6.2-30L1786.6,147.9z"/>
	</g>
	<path style="opacity:0.21;fill:#447182;" d="M1730.2,148.6l-1.3,1.6c0,0,19.8,29.3,44.3,52.9l1.6-0.7L1730.2,148.6z"/>
	<path style="fill:#69C1C6;" d="M1783.1,195.1c-0.9,1-1.8,2-2.7,2.9c0.2,0.3,0.4,0.6,0.6,0.9c2.6,3.9,4.4,6.8,5.7,9.1
		c-2-1.6-4.5-4-7.9-7.2c-0.2-0.2-0.5-0.5-0.7-0.7c-2.3-2.3-4.7-4.7-7.2-7.4c-4-4.3-8.2-9-12.4-13.9c-1.4-1.6-2.8-3.3-4.2-5
		c-4.4-5.3-8.6-10.6-12.4-15.6c-3.3-4.3-6.3-8.5-8.9-12.3c-0.3-0.4-0.5-0.8-0.8-1.2c-2.6-3.9-4.4-6.8-5.7-9.1c2,1.6,4.5,4,7.9,7.2
		c0.3,0.3,0.7,0.7,1,1c1.1-0.8,2.2-1.5,3.3-2.2c-9.9-10-17.2-15.7-19-14.2c-1.7,1.5,2.5,9.7,10.4,21.2c1.3,1.9,2.7,3.9,4.2,6
		c4.5,6.2,9.8,13,15.7,20.2c0.4,0.5,0.8,1,1.2,1.5c5.7,6.9,11.3,13.3,16.5,18.8c2.4,2.6,4.8,5.1,7,7.3c9.7,9.7,16.9,15.2,18.6,13.8
		C1795.1,214.6,1791,206.5,1783.1,195.1z"/>
	<path style="opacity:0.21;fill:#447182;" d="M1724.4,181.2l0.4,2c0,0,35.2,2.4,69-2.4l0.4-1.7L1724.4,181.2z"/>
	<path style="fill:#69C1C6;" d="M1793.7,168.1c0.3,1.3,0.5,2.6,0.6,3.9c0.3,0,0.7,0,1,0.1c4.7,0.3,8.1,0.7,10.7,1.1
		c-2.5,0.5-5.9,1.1-10.5,1.8c-0.3,0-0.7,0.1-1,0.1c-3.2,0.4-6.6,0.8-10.3,1.1c-5.8,0.5-12.1,0.9-18.6,1.2c-2.1,0.1-4.3,0.2-6.5,0.2
		c-6.9,0.2-13.6,0.3-20,0.2c-5.4-0.1-10.5-0.3-15.1-0.6c-0.5,0-0.9-0.1-1.4-0.1c-4.7-0.3-8.1-0.7-10.7-1.1c2.5-0.5,5.9-1.1,10.5-1.8
		c0.5-0.1,1-0.1,1.4-0.2c0-1.3,0.1-2.7,0.3-4c-14,1.7-22.9,4-22.9,6.2c0.1,2.3,9.2,4,23.1,4.8c2.3,0.1,4.7,0.3,7.3,0.3
		c7.6,0.3,16.3,0.3,25.5,0c0.6,0,1.3,0,1.9-0.1c9-0.3,17.4-0.8,25-1.5c3.6-0.3,6.9-0.7,10.1-1.1c13.6-1.7,22.4-3.9,22.3-6.2
		C1816.5,170.6,1807.5,168.9,1793.7,168.1z"/>
</g>
<g style="opacity:0.1;">
	<g>
		<defs>
			<circle id="SVGID_7_" cx="2203.3" cy="220.8" r="48.8"/>
		</defs>
		<use xlink:href="#SVGID_7_"  style="overflow:visible;fill:#9BD6D9;"/>
		<clipPath id="SVGID_24_">
			<use xlink:href="#SVGID_7_"  style="overflow:visible;"/>
		</clipPath>
		<path style="clip-path:url(#SVGID_24_);fill:#69C1C6;" d="M2224.5,176.6c0,0,14,8.9,16.6,30.4c2.6,21.3-10.3,56.4-54.6,59.4
			l34.1,19.3l68.5-5.3l7.2-67.4l-25.5-33.9L2224.5,176.6z"/>
	</g>
	<circle style="fill:#69C1C6;" cx="2206.7" cy="185.5" r="3.1"/>
	<circle style="fill:#69C1C6;" cx="2194.7" cy="252.1" r="5.8"/>
	<circle style="fill:#69C1C6;" cx="2224.8" cy="210.2" r="4.4"/>
	<circle style="fill:#69C1C6;" cx="2164.1" cy="217.3" r="2.7"/>
</g>
<g style="opacity:0.1;">
	<g>
		<defs>
			<circle id="SVGID_6_" cx="2636.3" cy="344.3" r="31.8"/>
		</defs>
		<use xlink:href="#SVGID_6_"  style="overflow:visible;fill:#F6B3C0;"/>
		<clipPath id="SVGID_25_">
			<use xlink:href="#SVGID_6_"  style="overflow:visible;"/>
		</clipPath>
		<path style="clip-path:url(#SVGID_25_);fill:#ED6881;" d="M2706.9,331.8h-11c0.4-0.3,0.6-0.8,0.6-1.4v-0.9c0-1-0.8-1.8-1.8-1.8
			h9.8c1,0,1.8-0.8,1.8-1.8V325c0-1-0.8-1.8-1.8-1.8h-58.6c-1,0-1.8,0.8-1.8,1.8v0.9c0,1,0.8,1.8,1.8,1.8h-9.8c-1,0-1.8,0.8-1.8,1.8
			v0.9c0,1,0.8,1.8,1.8,1.8h11c-0.4,0.3-0.6,0.8-0.6,1.4v0.9c0,0.5,0.2,1,0.6,1.4h-13.7c-1,0-1.8,0.8-1.8,1.8v0.9
			c0,1,0.8,1.8,1.8,1.8h58.6c1,0,1.8-0.8,1.8-1.8v-0.9c0-0.5-0.2-1-0.6-1.4h13.7c1,0,1.8-0.8,1.8-1.8v-0.9
			C2708.7,332.6,2707.8,331.8,2706.9,331.8z"/>
		<path style="clip-path:url(#SVGID_25_);fill:#ED6881;" d="M2635.3,357.8h-11c0.4-0.3,0.6-0.8,0.6-1.4v-0.9c0-1-0.8-1.8-1.8-1.8
			h9.8c1,0,1.8-0.8,1.8-1.8V351c0-1-0.8-1.8-1.8-1.8h-58.6c-1,0-1.8,0.8-1.8,1.8v0.9c0,1,0.8,1.8,1.8,1.8h-9.8c-1,0-1.8,0.8-1.8,1.8
			v0.9c0,1,0.8,1.8,1.8,1.8h11c-0.4,0.3-0.6,0.8-0.6,1.4v0.9c0,0.5,0.2,1,0.6,1.4h-13.7c-1,0-1.8,0.8-1.8,1.8v0.9
			c0,1,0.8,1.8,1.8,1.8h58.6c1,0,1.8-0.8,1.8-1.8v-0.9c0-0.5-0.2-1-0.6-1.4h13.7c1,0,1.8-0.8,1.8-1.8v-0.9
			C2637.1,358.6,2636.3,357.8,2635.3,357.8z"/>
		<path style="clip-path:url(#SVGID_25_);fill:#F6B3C0;" d="M2650.1,315.5c0,0,9.1,5.8,10.8,19.8c1.7,13.9-6.7,36.7-35.6,38.7
			l22.2,12.6l44.6-3.5l4.7-43.9l-16.6-22.1L2650.1,315.5z"/>
	</g>
</g>
<g style="opacity:0.1;">
	<g>
		<defs>
			<circle id="SVGID_5_" cx="3377.5" cy="263.5" r="25.5"/>
		</defs>
		<use xlink:href="#SVGID_5_"  style="overflow:visible;fill:#9BD6D9;"/>
		<clipPath id="SVGID_26_">
			<use xlink:href="#SVGID_5_"  style="overflow:visible;"/>
		</clipPath>
		<path style="clip-path:url(#SVGID_26_);fill:#69C1C6;" d="M3388.6,240.4c0,0,7.3,4.6,8.7,15.9c1.4,11.1-5.4,29.5-28.6,31.1
			l17.9,10.1l35.8-2.8l3.8-35.2l-13.4-17.7L3388.6,240.4z"/>
	</g>
	<circle style="fill:#69C1C6;" cx="3379.3" cy="245.1" r="1.6"/>
	<circle style="fill:#69C1C6;" cx="3373" cy="279.9" r="3"/>
	<circle style="fill:#69C1C6;" cx="3388.8" cy="258" r="2.3"/>
	<circle style="fill:#69C1C6;" cx="3357" cy="261.7" r="1.4"/>
</g>
<g style="opacity:0.1;">
	<g>
		<defs>
			<circle id="SVGID_3_" cx="2990.3" cy="153.5" r="17.5"/>
		</defs>
		<use xlink:href="#SVGID_3_"  style="overflow:visible;fill:#A98DC8;"/>
		<clipPath id="SVGID_28_">
			<use xlink:href="#SVGID_3_"  style="overflow:visible;"/>
		</clipPath>
		<rect x="2969.6" y="135.1" style="clip-path:url(#SVGID_28_);fill:#6F41A3;" width="44.3" height="5.8"/>
		<rect x="2967.5" y="150.2" style="clip-path:url(#SVGID_28_);fill:#6F41A3;" width="49" height="5.7"/>
		<rect x="2974.7" y="163.4" style="clip-path:url(#SVGID_28_);fill:#6F41A3;" width="32.2" height="4.6"/>
		<path style="opacity:0.28;clip-path:url(#SVGID_28_);fill:#8276A1;" d="M2994.9,136.6c0,0,4.4,3.4,6.4,8.6
			c3.4,8.7,1.2,24.5-19.8,25.1l16.2,5.5l27.3-6l-1.7-24.3l-12.6-10.5L2994.9,136.6z"/>
		<ellipse style="opacity:0.47;clip-path:url(#SVGID_28_);fill:#8276A1;" cx="2990.7" cy="136.7" rx="5.3" ry="0.7"/>
	</g>
	<path style="opacity:0.21;fill:#447182;" d="M2973.6,148.5l-0.3,1c0,0,15.1,9,31.1,14.4l0.6-0.7L2973.6,148.5z"/>
	<path style="fill:#69C1C6;" d="M3007.2,158.3c-0.2,0.6-0.4,1.3-0.6,1.9c0.1,0.1,0.3,0.2,0.4,0.3c2,1.2,3.4,2.1,4.5,2.9
		c-1.2-0.3-2.9-0.8-5.1-1.6c-0.2-0.1-0.3-0.1-0.5-0.2c-1.5-0.5-3.1-1.1-4.8-1.8c-2.7-1.1-5.6-2.3-8.5-3.6c-1-0.4-2-0.9-2.9-1.3
		c-3.1-1.4-6.1-2.9-8.9-4.4c-2.4-1.3-4.6-2.5-6.6-3.6c-0.2-0.1-0.4-0.2-0.6-0.4c-2-1.2-3.4-2.1-4.5-2.9c1.2,0.3,2.9,0.8,5.1,1.6
		c0.2,0.1,0.5,0.2,0.7,0.2c0.3-0.6,0.7-1.1,1-1.7c-6.6-2.4-11.1-3.4-11.5-2.4c-0.5,1,3.2,3.8,9.2,7.3c1,0.6,2,1.2,3.2,1.8
		c3.3,1.8,7.2,3.8,11.3,5.8c0.3,0.1,0.6,0.3,0.9,0.4c4,1.9,7.9,3.6,11.4,5c1.7,0.7,3.2,1.3,4.7,1.8c6.4,2.3,10.8,3.3,11.3,2.3
		C3016.7,164.5,3013.2,161.7,3007.2,158.3z"/>
</g>
<g style="opacity:0.1;">
	<g>
		<defs>
			<circle id="SVGID_2_" cx="3847.1" cy="170.2" r="35.2"/>
		</defs>
		<use xlink:href="#SVGID_2_"  style="overflow:visible;fill:#9BD6D9;"/>
		<clipPath id="SVGID_29_">
			<use xlink:href="#SVGID_2_"  style="overflow:visible;"/>
		</clipPath>
		<path style="clip-path:url(#SVGID_29_);fill:#69C1C6;" d="M3874.6,147.9c0,0,6.4,10.1,1.5,25c-4.8,14.7-24.1,33.7-54,22l16.4,23.1
			l46.4,17.6l25.4-41.8l-6.2-30L3874.6,147.9z"/>
	</g>
	<path style="opacity:0.21;fill:#447182;" d="M3818.2,148.6l-1.3,1.6c0,0,19.8,29.3,44.3,52.9l1.6-0.7L3818.2,148.6z"/>
	<path style="fill:#69C1C6;" d="M3871.1,195.1c-0.9,1-1.8,2-2.7,2.9c0.2,0.3,0.4,0.6,0.6,0.9c2.6,3.9,4.4,6.8,5.7,9.1
		c-2-1.6-4.5-4-7.9-7.2c-0.2-0.2-0.5-0.5-0.7-0.7c-2.3-2.3-4.7-4.7-7.2-7.4c-4-4.3-8.2-9-12.4-13.9c-1.4-1.6-2.8-3.3-4.2-5
		c-4.4-5.3-8.6-10.6-12.4-15.6c-3.3-4.3-6.3-8.5-8.9-12.3c-0.3-0.4-0.5-0.8-0.8-1.2c-2.6-3.9-4.4-6.8-5.7-9.1c2,1.6,4.5,4,7.9,7.2
		c0.3,0.3,0.7,0.7,1,1c1.1-0.8,2.2-1.5,3.3-2.2c-9.9-10-17.2-15.7-19-14.2c-1.7,1.5,2.5,9.7,10.4,21.2c1.3,1.9,2.7,3.9,4.2,6
		c4.5,6.2,9.8,13,15.7,20.2c0.4,0.5,0.8,1,1.2,1.5c5.7,6.9,11.3,13.3,16.5,18.8c2.4,2.6,4.8,5.1,7,7.3c9.7,9.7,16.9,15.2,18.6,13.8
		C3883.1,214.6,3879,206.5,3871.1,195.1z"/>
	<path style="opacity:0.21;fill:#447182;" d="M3812.4,181.2l0.4,2c0,0,35.2,2.4,69-2.4l0.4-1.7L3812.4,181.2z"/>
	<path style="fill:#69C1C6;" d="M3881.7,168.1c0.3,1.3,0.5,2.6,0.6,3.9c0.3,0,0.7,0,1,0.1c4.7,0.3,8.1,0.7,10.7,1.1
		c-2.5,0.5-5.9,1.1-10.5,1.8c-0.3,0-0.7,0.1-1,0.1c-3.2,0.4-6.6,0.8-10.3,1.1c-5.8,0.5-12.1,0.9-18.6,1.2c-2.1,0.1-4.3,0.2-6.5,0.2
		c-6.9,0.2-13.6,0.3-20,0.2c-5.4-0.1-10.5-0.3-15.1-0.6c-0.5,0-0.9-0.1-1.4-0.1c-4.7-0.3-8.1-0.7-10.7-1.1c2.5-0.5,5.9-1.1,10.5-1.8
		c0.5-0.1,1-0.1,1.4-0.2c0-1.3,0.1-2.7,0.3-4c-14,1.7-22.9,4-22.9,6.2c0.1,2.3,9.2,4,23.1,4.8c2.3,0.1,4.7,0.3,7.3,0.3
		c7.6,0.3,16.3,0.3,25.5,0c0.6,0,1.3,0,1.9-0.1c9-0.3,17.4-0.8,25-1.5c3.6-0.3,6.9-0.7,10.1-1.1c13.6-1.7,22.4-3.9,22.3-6.2
		C3904.5,170.6,3895.5,168.9,3881.7,168.1z"/>
</g>
<g style="opacity:0.1;">
	<g>
		<defs>
			<circle id="SVGID_13_" cx="4402.3" cy="171.8" r="48.8"/>
		</defs>
		<use xlink:href="#SVGID_13_"  style="overflow:visible;fill:#9BD6D9;"/>
		<clipPath id="SVGID_30_">
			<use xlink:href="#SVGID_13_"  style="overflow:visible;"/>
		</clipPath>
		<path style="clip-path:url(#SVGID_30_);fill:#69C1C6;" d="M4423.5,127.6c0,0,14,8.9,16.6,30.4c2.6,21.3-10.3,56.4-54.6,59.4
			l34.1,19.3l68.5-5.3l7.2-67.4l-25.5-33.9L4423.5,127.6z"/>
	</g>
	<circle style="fill:#69C1C6;" cx="4405.7" cy="136.5" r="3.1"/>
	<circle style="fill:#69C1C6;" cx="4393.7" cy="203.1" r="5.8"/>
	<circle style="fill:#69C1C6;" cx="4423.8" cy="161.2" r="4.4"/>
	<circle style="fill:#69C1C6;" cx="4363.1" cy="168.3" r="2.7"/>
</g>
<g style="opacity:0.1;">
	<g>
		<defs>
			<circle id="SVGID_12_" cx="4835.3" cy="344.3" r="31.8"/>
		</defs>
		<use xlink:href="#SVGID_12_"  style="overflow:visible;fill:#F6B3C0;"/>
		<clipPath id="SVGID_31_">
			<use xlink:href="#SVGID_12_"  style="overflow:visible;"/>
		</clipPath>
		<path style="clip-path:url(#SVGID_31_);fill:#ED6881;" d="M4905.9,331.8h-11c0.4-0.3,0.6-0.8,0.6-1.4v-0.9c0-1-0.8-1.8-1.8-1.8
			h9.8c1,0,1.8-0.8,1.8-1.8V325c0-1-0.8-1.8-1.8-1.8h-58.6c-1,0-1.8,0.8-1.8,1.8v0.9c0,1,0.8,1.8,1.8,1.8h-9.8c-1,0-1.8,0.8-1.8,1.8
			v0.9c0,1,0.8,1.8,1.8,1.8h11c-0.4,0.3-0.6,0.8-0.6,1.4v0.9c0,0.5,0.2,1,0.6,1.4h-13.7c-1,0-1.8,0.8-1.8,1.8v0.9
			c0,1,0.8,1.8,1.8,1.8h58.6c1,0,1.8-0.8,1.8-1.8v-0.9c0-0.5-0.2-1-0.6-1.4h13.7c1,0,1.8-0.8,1.8-1.8v-0.9
			C4907.7,332.6,4906.8,331.8,4905.9,331.8z"/>
		<path style="clip-path:url(#SVGID_31_);fill:#ED6881;" d="M4834.3,357.8h-11c0.4-0.3,0.6-0.8,0.6-1.4v-0.9c0-1-0.8-1.8-1.8-1.8
			h9.8c1,0,1.8-0.8,1.8-1.8V351c0-1-0.8-1.8-1.8-1.8h-58.6c-1,0-1.8,0.8-1.8,1.8v0.9c0,1,0.8,1.8,1.8,1.8h-9.8c-1,0-1.8,0.8-1.8,1.8
			v0.9c0,1,0.8,1.8,1.8,1.8h11c-0.4,0.3-0.6,0.8-0.6,1.4v0.9c0,0.5,0.2,1,0.6,1.4h-13.7c-1,0-1.8,0.8-1.8,1.8v0.9
			c0,1,0.8,1.8,1.8,1.8h58.6c1,0,1.8-0.8,1.8-1.8v-0.9c0-0.5-0.2-1-0.6-1.4h13.7c1,0,1.8-0.8,1.8-1.8v-0.9
			C4836.1,358.6,4835.3,357.8,4834.3,357.8z"/>
		<path style="clip-path:url(#SVGID_31_);fill:#F6B3C0;" d="M4849.1,315.5c0,0,9.1,5.8,10.8,19.8c1.7,13.9-6.7,36.7-35.6,38.7
			l22.2,12.6l44.6-3.5l4.7-43.9l-16.6-22.1L4849.1,315.5z"/>
	</g>
</g>
<g style="opacity:0.1;">
	<g>
		<defs>
			<circle id="SVGID_11_" cx="5576.5" cy="257.5" r="19.5"/>
		</defs>
		<use xlink:href="#SVGID_11_"  style="overflow:visible;fill:#9BD6D9;"/>
		<clipPath id="SVGID_32_">
			<use xlink:href="#SVGID_11_"  style="overflow:visible;"/>
		</clipPath>
		<path style="clip-path:url(#SVGID_32_);fill:#69C1C6;" d="M5585,239.8c0,0,5.6,3.6,6.7,12.1c1,8.5-4.1,22.6-21.9,23.8l13.7,7.7
			l27.4-2.1l2.9-26.9l-10.2-13.6L5585,239.8z"/>
	</g>
	<circle style="fill:#69C1C6;" cx="5577.9" cy="243.4" r="1.2"/>
	<circle style="fill:#69C1C6;" cx="5573.1" cy="270.1" r="2.3"/>
	<circle style="fill:#69C1C6;" cx="5585.1" cy="253.3" r="1.8"/>
	<circle style="fill:#69C1C6;" cx="5560.8" cy="256.1" r="1.1"/>
</g>
<g style="opacity:0.1;">
	<g>
		<defs>
			<circle id="SVGID_10_" cx="5189.3" cy="165.5" r="29.5"/>
		</defs>
		<use xlink:href="#SVGID_10_"  style="overflow:visible;fill:#A98DC8;"/>
		<clipPath id="SVGID_33_">
			<use xlink:href="#SVGID_10_"  style="overflow:visible;"/>
		</clipPath>
		<rect x="5154.4" y="134.4" style="clip-path:url(#SVGID_33_);fill:#6F41A3;" width="74.6" height="9.7"/>
		<rect x="5150.8" y="160" style="clip-path:url(#SVGID_33_);fill:#6F41A3;" width="82.6" height="9.6"/>
		<rect x="5163" y="182.1" style="clip-path:url(#SVGID_33_);fill:#6F41A3;" width="54.3" height="7.8"/>
		<path style="opacity:0.28;clip-path:url(#SVGID_33_);fill:#8276A1;" d="M5197,137c0,0,7.4,5.7,10.8,14.5
			c5.8,14.6,2,41.3-33.4,42.3l27.4,9.3l46-10.2l-2.9-40.9l-21.3-17.6L5197,137z"/>
		<ellipse style="opacity:0.47;clip-path:url(#SVGID_33_);fill:#8276A1;" cx="5190" cy="137.1" rx="8.9" ry="1.2"/>
	</g>
	<path style="opacity:0.21;fill:#447182;" d="M5161.1,157.1l-0.5,1.7c0,0,25.4,15.1,52.5,24.3l1-1.1L5161.1,157.1z"/>
	<path style="fill:#69C1C6;" d="M5217.8,173.5c-0.3,1.1-0.6,2.1-1,3.2c0.3,0.1,0.5,0.3,0.7,0.4c3.4,2,5.8,3.6,7.5,4.9
		c-2.1-0.5-4.9-1.4-8.5-2.7c-0.3-0.1-0.5-0.2-0.8-0.3c-2.5-0.9-5.2-1.9-8.1-3.1c-4.5-1.8-9.4-3.9-14.4-6.1c-1.6-0.7-3.3-1.5-4.9-2.3
		c-5.2-2.4-10.3-5-15-7.4c-4-2.1-7.8-4.2-11.1-6.1c-0.3-0.2-0.7-0.4-1-0.6c-3.4-2-5.8-3.6-7.5-4.9c2.1,0.5,4.9,1.4,8.5,2.7
		c0.4,0.1,0.8,0.3,1.2,0.4c0.5-1,1.1-1.9,1.7-2.9c-11.1-4-18.7-5.7-19.4-4c-0.8,1.7,5.3,6.4,15.5,12.3c1.7,1,3.4,2,5.3,3
		c5.6,3.1,12.1,6.4,19.1,9.7c0.5,0.2,1,0.5,1.5,0.7c6.8,3.2,13.3,6,19.2,8.4c2.8,1.1,5.4,2.1,7.9,3c10.8,3.9,18.2,5.5,19,3.8
		C5233.8,184.1,5227.8,179.4,5217.8,173.5z"/>
</g>
<g style="opacity:0.1;">
	<g>
		<defs>
			<circle id="SVGID_8_" cx="6046.1" cy="170.2" r="35.2"/>
		</defs>
		<use xlink:href="#SVGID_8_"  style="overflow:visible;fill:#9BD6D9;"/>
		<clipPath id="SVGID_34_">
			<use xlink:href="#SVGID_8_"  style="overflow:visible;"/>
		</clipPath>
		<path style="clip-path:url(#SVGID_34_);fill:#69C1C6;" d="M6073.6,147.9c0,0,6.4,10.1,1.5,25c-4.8,14.7-24.1,33.7-54,22l16.4,23.1
			l46.4,17.6l25.4-41.8l-6.2-30L6073.6,147.9z"/>
	</g>
	<path style="opacity:0.21;fill:#447182;" d="M6017.2,148.6l-1.3,1.6c0,0,19.8,29.3,44.3,52.9l1.6-0.7L6017.2,148.6z"/>
	<path style="fill:#69C1C6;" d="M6070.1,195.1c-0.9,1-1.8,2-2.7,2.9c0.2,0.3,0.4,0.6,0.6,0.9c2.6,3.9,4.4,6.8,5.7,9.1
		c-2-1.6-4.5-4-7.9-7.2c-0.2-0.2-0.5-0.5-0.7-0.7c-2.3-2.3-4.7-4.7-7.2-7.4c-4-4.3-8.2-9-12.4-13.9c-1.4-1.6-2.8-3.3-4.2-5
		c-4.4-5.3-8.6-10.6-12.4-15.6c-3.3-4.3-6.3-8.5-8.9-12.3c-0.3-0.4-0.5-0.8-0.8-1.2c-2.6-3.9-4.4-6.8-5.7-9.1c2,1.6,4.5,4,7.9,7.2
		c0.3,0.3,0.7,0.7,1,1c1.1-0.8,2.2-1.5,3.3-2.2c-9.9-10-17.2-15.7-19-14.2c-1.7,1.5,2.5,9.7,10.4,21.2c1.3,1.9,2.7,3.9,4.2,6
		c4.5,6.2,9.8,13,15.7,20.2c0.4,0.5,0.8,1,1.2,1.5c5.7,6.9,11.3,13.3,16.5,18.8c2.4,2.6,4.8,5.1,7,7.3c9.7,9.7,16.9,15.2,18.6,13.8
		C6082.1,214.6,6078,206.5,6070.1,195.1z"/>
	<path style="opacity:0.21;fill:#447182;" d="M6011.4,181.2l0.4,2c0,0,35.2,2.4,69-2.4l0.4-1.7L6011.4,181.2z"/>
	<path style="fill:#69C1C6;" d="M6080.7,168.1c0.3,1.3,0.5,2.6,0.6,3.9c0.3,0,0.7,0,1,0.1c4.7,0.3,8.1,0.7,10.7,1.1
		c-2.5,0.5-5.9,1.1-10.5,1.8c-0.3,0-0.7,0.1-1,0.1c-3.2,0.4-6.6,0.8-10.3,1.1c-5.8,0.5-12.1,0.9-18.6,1.2c-2.1,0.1-4.3,0.2-6.5,0.2
		c-6.9,0.2-13.6,0.3-20,0.2c-5.4-0.1-10.5-0.3-15.1-0.6c-0.5,0-0.9-0.1-1.4-0.1c-4.7-0.3-8.1-0.7-10.7-1.1c2.5-0.5,5.9-1.1,10.5-1.8
		c0.5-0.1,1-0.1,1.4-0.2c0-1.3,0.1-2.7,0.3-4c-14,1.7-22.9,4-22.9,6.2c0.1,2.3,9.2,4,23.1,4.8c2.3,0.1,4.7,0.3,7.3,0.3
		c7.6,0.3,16.3,0.3,25.5,0c0.6,0,1.3,0,1.9-0.1c9-0.3,17.4-0.8,25-1.5c3.6-0.3,6.9-0.7,10.1-1.1c13.6-1.7,22.4-3.9,22.3-6.2
		C6103.5,170.6,6094.5,168.9,6080.7,168.1z"/>
</g>
<g style="opacity:0.1;">
	<g>
		<defs>
			<circle id="SVGID_19_" cx="6601.3" cy="244.8" r="48.8"/>
		</defs>
		<use xlink:href="#SVGID_19_"  style="overflow:visible;fill:#9BD6D9;"/>
		<clipPath id="SVGID_35_">
			<use xlink:href="#SVGID_19_"  style="overflow:visible;"/>
		</clipPath>
		<path style="clip-path:url(#SVGID_35_);fill:#69C1C6;" d="M6622.5,200.6c0,0,14,8.9,16.6,30.4c2.6,21.3-10.3,56.4-54.6,59.4
			l34.1,19.3l68.5-5.3l7.2-67.4l-25.5-33.9L6622.5,200.6z"/>
	</g>
	<circle style="fill:#69C1C6;" cx="6604.7" cy="209.5" r="3.1"/>
	<circle style="fill:#69C1C6;" cx="6592.7" cy="276.1" r="5.8"/>
	<circle style="fill:#69C1C6;" cx="6622.8" cy="234.2" r="4.4"/>
	<circle style="fill:#69C1C6;" cx="6562.1" cy="241.3" r="2.7"/>
</g>
<g style="opacity:0.1;">
	<g>
		<defs>
			<circle id="SVGID_18_" cx="7034.3" cy="175.8" r="19.3"/>
		</defs>
		<use xlink:href="#SVGID_18_"  style="overflow:visible;fill:#F6B3C0;"/>
		<clipPath id="SVGID_36_">
			<use xlink:href="#SVGID_18_"  style="overflow:visible;"/>
		</clipPath>
		<path style="clip-path:url(#SVGID_36_);fill:#ED6881;" d="M7077.1,168.2h-6.7c0.2-0.2,0.4-0.5,0.4-0.8v-0.5c0-0.6-0.5-1.1-1.1-1.1
			h5.9c0.6,0,1.1-0.5,1.1-1.1v-0.5c0-0.6-0.5-1.1-1.1-1.1h-35.5c-0.6,0-1.1,0.5-1.1,1.1v0.5c0,0.6,0.5,1.1,1.1,1.1h-5.9
			c-0.6,0-1.1,0.5-1.1,1.1v0.5c0,0.6,0.5,1.1,1.1,1.1h6.7c-0.2,0.2-0.4,0.5-0.4,0.8v0.5c0,0.3,0.1,0.6,0.4,0.8h-8.3
			c-0.6,0-1.1,0.5-1.1,1.1v0.5c0,0.6,0.5,1.1,1.1,1.1h35.5c0.6,0,1.1-0.5,1.1-1.1v-0.5c0-0.3-0.1-0.6-0.4-0.8h8.3
			c0.6,0,1.1-0.5,1.1-1.1v-0.5C7078.2,168.7,7077.7,168.2,7077.1,168.2z"/>
		<path style="clip-path:url(#SVGID_36_);fill:#ED6881;" d="M7033.7,184h-6.7c0.2-0.2,0.4-0.5,0.4-0.8v-0.5c0-0.6-0.5-1.1-1.1-1.1
			h5.9c0.6,0,1.1-0.5,1.1-1.1v-0.5c0-0.6-0.5-1.1-1.1-1.1h-35.5c-0.6,0-1.1,0.5-1.1,1.1v0.5c0,0.6,0.5,1.1,1.1,1.1h-5.9
			c-0.6,0-1.1,0.5-1.1,1.1v0.5c0,0.6,0.5,1.1,1.1,1.1h6.7c-0.2,0.2-0.4,0.5-0.4,0.8v0.5c0,0.3,0.1,0.6,0.4,0.8h-8.3
			c-0.6,0-1.1,0.5-1.1,1.1v0.5c0,0.6,0.5,1.1,1.1,1.1h35.5c0.6,0,1.1-0.5,1.1-1.1v-0.5c0-0.3-0.1-0.6-0.4-0.8h8.3
			c0.6,0,1.1-0.5,1.1-1.1v-0.5C7034.8,184.5,7034.3,184,7033.7,184z"/>
		<path style="clip-path:url(#SVGID_36_);fill:#F6B3C0;" d="M7042.7,158.3c0,0,5.5,3.5,6.6,12c1,8.4-4.1,22.3-21.6,23.5l13.5,7.6
			l27-2.1l2.8-26.6l-10.1-13.4L7042.7,158.3z"/>
	</g>
</g>
<g style="opacity:0.1;">
	<g>
		<defs>
			<circle id="SVGID_16_" cx="7388.3" cy="252.5" r="29.5"/>
		</defs>
		<use xlink:href="#SVGID_16_"  style="overflow:visible;fill:#A98DC8;"/>
		<clipPath id="SVGID_37_">
			<use xlink:href="#SVGID_16_"  style="overflow:visible;"/>
		</clipPath>
		<rect x="7353.4" y="221.4" style="clip-path:url(#SVGID_37_);fill:#6F41A3;" width="74.6" height="9.7"/>
		<rect x="7349.8" y="247" style="clip-path:url(#SVGID_37_);fill:#6F41A3;" width="82.6" height="9.6"/>
		<rect x="7362" y="269.1" style="clip-path:url(#SVGID_37_);fill:#6F41A3;" width="54.3" height="7.8"/>
		<path style="opacity:0.28;clip-path:url(#SVGID_37_);fill:#8276A1;" d="M7396,224c0,0,7.4,5.7,10.8,14.5
			c5.8,14.6,2,41.3-33.4,42.3l27.4,9.3l46-10.2l-2.9-40.9l-21.3-17.6L7396,224z"/>
		<ellipse style="opacity:0.47;clip-path:url(#SVGID_37_);fill:#8276A1;" cx="7389" cy="224.1" rx="8.9" ry="1.2"/>
	</g>
	<path style="opacity:0.21;fill:#447182;" d="M7360.1,244.1l-0.5,1.7c0,0,25.4,15.1,52.5,24.3l1-1.1L7360.1,244.1z"/>
	<path style="fill:#69C1C6;" d="M7416.8,260.5c-0.3,1.1-0.6,2.1-1,3.2c0.3,0.1,0.5,0.3,0.7,0.4c3.4,2,5.8,3.6,7.5,4.9
		c-2.1-0.5-4.9-1.4-8.5-2.7c-0.3-0.1-0.5-0.2-0.8-0.3c-2.5-0.9-5.2-1.9-8.1-3.1c-4.5-1.8-9.4-3.9-14.4-6.1c-1.6-0.7-3.3-1.5-4.9-2.3
		c-5.2-2.4-10.3-5-15-7.4c-4-2.1-7.8-4.2-11.1-6.1c-0.3-0.2-0.7-0.4-1-0.6c-3.4-2-5.8-3.6-7.5-4.9c2.1,0.5,4.9,1.4,8.5,2.7
		c0.4,0.1,0.8,0.3,1.2,0.4c0.5-1,1.1-1.9,1.7-2.9c-11.1-4-18.7-5.7-19.4-4c-0.8,1.7,5.3,6.4,15.5,12.3c1.7,1,3.4,2,5.3,3
		c5.6,3.1,12.1,6.4,19.1,9.7c0.5,0.2,1,0.5,1.5,0.7c6.8,3.2,13.3,6,19.2,8.4c2.8,1.1,5.4,2.1,7.9,3c10.8,3.9,18.2,5.5,19,3.8
		C7432.8,271.1,7426.8,266.4,7416.8,260.5z"/>
</g>
<rect x="3922" y="-78" style="display:none;fill:#FFFFFF;" width="375" height="667"/>
</svg>
