<?xml version="1.0" encoding="utf-8"?>
<!-- Generator: Adobe Illustrator 22.0.1, SVG Export Plug-In . SVG Version: 6.00 Build 0)  -->
<svg version="1.1" id="planet3" xmlns="http://www.w3.org/2000/svg" xmlns:xlink="http://www.w3.org/1999/xlink" x="0px" y="0px"
	 width="100px" height="65px" viewBox="0 0 100 65" style="enable-background:new 0 0 100 65;" xml:space="preserve">
<style type="text/css">
	.st0{fill:#6F41A3;}
	.st1{fill:#8C67B5;}
	.st2{opacity:0.172;fill:#6F40A3;enable-background:new    ;}
	.st3{fill:#6F40A3;}
	.st4{opacity:0.255;fill:#447182;enable-background:new    ;}
	.st5{fill:#69C1C6;}
</style>
<g id="planet">
	<circle id="bg" class="st0" cx="50.2" cy="32.5" r="27"/>
	<path class="st1" d="M58.1,7.1c-1.4,0.4-4.1,0.6-7.2,0.6c-4.5,0-8.1-0.5-8.2-1.1c-4.2,1.2-8,3.5-11,6.3h31.8
		C61.3,10.1,59.1,8.1,58.1,7.1z"/>
	<path class="st1" d="M69.1,27.5H23.8c-0.3,1.7-0.5,3.3-0.5,5c0,1.3,0.1,2.5,0.3,3.7h45.2C69.2,33.3,69.3,30.3,69.1,27.5z"/>
	<path class="st1" d="M63.3,47.7H27.9c1.9,2.8,4.3,5.2,7.1,7.1h18.7C57.8,53,61,50.5,63.3,47.7z"/>
	<path class="st2" d="M50.2,59.5c5.6,0,10.8-1.7,15.2-4.7H53.7c-3.4,1.5-7.5,2.7-12.3,3.2C44.2,59,47.1,59.5,50.2,59.5z"/>
	<path class="st2" d="M76.9,36.2h-8.2c-0.8,4-2.4,8.1-5.3,11.4h9.2C74.8,44.4,76.3,40.4,76.9,36.2z"/>
	<path class="st2" d="M68.8,12.9h-5.4c1.4,1.9,2.7,4.2,3.7,6.7c0.9,2.3,1.6,5,1.9,7.8h7.7C75.6,21.8,72.8,16.8,68.8,12.9z"/>
	<path class="st1" d="M58.6,6.9C58.5,7,58.3,7,58,7.1c1.1,0.9,3.3,3,5.4,5.9h5.4C66,10.3,62.5,8.1,58.6,6.9z"/>
	<path class="st2" d="M58.6,6.9C58.5,7,58.3,7,58,7.1c1.1,0.9,3.3,3,5.4,5.9h5.4C66,10.3,62.5,8.1,58.6,6.9z"/>
	<path class="st1" d="M77.2,32.5c0-1.7-0.1-3.5-0.5-5h-7.6c0.3,2.8,0.2,5.8-0.4,8.8H77C77.1,35,77.2,33.8,77.2,32.5z"/>
	<path class="st2" d="M77.2,32.5c0-1.7-0.1-3.5-0.5-5h-7.6c0.3,2.8,0.2,5.8-0.4,8.8H77C77.1,35,77.2,33.8,77.2,32.5z"/>
	<path class="st1" d="M72.5,47.7h-9.2c-2.4,2.8-5.5,5.2-9.6,7.1h11.6C68.2,52.9,70.6,50.5,72.5,47.7z"/>
	<path class="st2" d="M72.5,47.7h-9.2c-2.4,2.8-5.5,5.2-9.6,7.1h11.6C68.2,52.9,70.6,50.5,72.5,47.7z"/>
	<path class="st3" d="M50.9,7.7c3.1,0,5.8-0.2,7.2-0.6C58.3,7,58.5,7,58.6,6.9C56,6,53.2,5.5,50.2,5.5c-2.6,0-5.1,0.4-7.5,1.1
		C42.8,7.2,46.4,7.7,50.9,7.7z"/>
</g>
<g id="rings" transform="translate(0 11)">
	<path id="ring2" class="st4" d="M24.5,14.4l-0.4,1.5c0,0,22.9,13.9,47.4,22.3l0.9-1L24.5,14.4z"/>
	<path id="ring1" class="st5" d="M75.7,29.4c-0.3,1-0.6,1.9-0.9,2.9c0.2,0.1,0.4,0.3,0.6,0.4c3,1.9,5.2,3.3,6.8,4.5
		c-1.9-0.5-4.4-1.3-7.7-2.4l-0.7-0.3c-2.3-0.9-4.7-1.8-7.3-2.8c-4.1-1.7-8.5-3.6-13-5.6c-1.5-0.6-2.9-1.4-4.5-2.1
		c-4.7-2.2-9.3-4.5-13.5-6.8c-3.6-1.9-7-3.8-10-5.6c-0.3-0.2-0.6-0.4-0.9-0.6c-3-1.9-5.2-3.3-6.8-4.5c1.9,0.5,4.4,1.3,7.7,2.4
		c0.4,0.1,0.7,0.2,1,0.4c0.5-0.9,1-1.8,1.6-2.6C18.2,3,11.3,1.5,10.6,3.1S15.4,9,24.6,14.4c1.5,0.9,3.1,1.8,4.8,2.7
		c5,2.8,10.9,5.8,17.2,8.9c0.4,0.2,0.9,0.4,1.3,0.6c6.1,2.9,12,5.5,17.3,7.7c2.5,1,4.9,1.9,7.1,2.7c9.8,3.6,16.5,5,17.1,3.5
		C90.1,39.1,84.8,34.7,75.7,29.4"/>
</g>
</svg>
