<?xml version="1.0" encoding="utf-8"?>
<!-- Generator: Adobe Illustrator 22.0.1, SVG Export Plug-In . SVG Version: 6.00 Build 0)  -->
<svg version="1.1" id="Layer_1" xmlns="http://www.w3.org/2000/svg" xmlns:xlink="http://www.w3.org/1999/xlink" x="0px" y="0px"
	 width="100px" height="65px" viewBox="0 0 100 65" style="enable-background:new 0 0 100 65;" xml:space="preserve">
<style type="text/css">
	.st0{fill:#9BD6D9;}
	.st1{fill:none;}
	.st2{clip-path:url(#SVGID_2_);}
	.st3{fill:#69C1C6;}
	.st4{opacity:0.62;fill:#1D8989;enable-background:new    ;}
</style>
<g id="Page_1" transform="translate(0 -0.099)">
	<path id="Fill_1" class="st0" d="M71.8,42.3C67.2,54,53.9,59.7,42.2,55c-0.1-0.1-0.2-0.1-0.4-0.1c-11.8-5.1-17.3-18.6-12.4-30.5
		C34.2,12.7,47.5,7,59.2,11.7c0.1,0.1,0.2,0.1,0.4,0.1C71.3,16.9,76.8,30.4,71.8,42.3"/>
	<g id="Group_5" transform="translate(20 7)">
		<path id="Clip_4-2" class="st1" d="M9.6,17.4c-4.9,11.8,0.6,25.3,12.3,30.4l0,0c11.6,4.9,24.9-0.6,29.8-12.3
			c0.1-0.1,0.1-0.2,0.1-0.4l0,0c4.9-11.8-0.6-25.3-12.3-30.4l0,0C36.6,3.7,33.7,3,30.7,3l0,0C21.4,3.1,13,8.8,9.6,17.4z"/>
		<g>
			<g>
				<defs>
					<path id="SVGID_1_" d="M9.6,17.4c-4.9,11.8,0.6,25.3,12.3,30.4l0,0c11.6,4.9,24.9-0.6,29.8-12.3c0.1-0.1,0.1-0.2,0.1-0.4l0,0
						c4.9-11.8-0.6-25.3-12.3-30.4l0,0C36.6,3.7,33.7,3,30.7,3l0,0C21.4,3.1,13,8.8,9.6,17.4z"/>
				</defs>
				<clipPath id="SVGID_2_">
					<use xlink:href="#SVGID_1_"  style="overflow:visible;"/>
				</clipPath>
				<g id="Group_5-2" class="st2">
					<path id="Fill_3" class="st3" d="M47.8,10.7c0,0,4.4,6.5,1.7,16.4C46.8,36.9,34.9,50,15.1,43.2L26.5,58l30.7,10.2l15.3-28.4
						l-5-19.6L47.8,10.7z"/>
				</g>
			</g>
		</g>
	</g>
	<g id="Group_14">
		<path id="Fill_6" class="st3" d="M32.1,18.5l-0.8,1.1c0,0,13.5,18.2,30,32.6l1-0.5L32.1,18.5z"/>
		<path id="Fill_8" class="st3" d="M66.5,46.8c-0.5,0.6-1.1,1.4-1.6,1.9c0.1,0.1,0.3,0.4,0.4,0.5c1.8,2.4,3,4.2,3.9,5.7
			c-1.3-1-3-2.4-5.2-4.4c-0.1-0.1-0.3-0.3-0.5-0.4c-1.5-1.4-3.2-2.9-4.8-4.5c-2.7-2.7-5.5-5.5-8.4-8.6c-0.9-1-1.9-2-2.8-3.1
			c-2.9-3.2-5.8-6.5-8.5-9.7c-2.2-2.7-4.3-5.2-6-7.6c-0.2-0.2-0.4-0.5-0.6-0.7c-1.8-2.4-3-4.2-3.9-5.7c1.3,1,3,2.4,5.2,4.4
			c0.2,0.2,0.4,0.4,0.7,0.6c0.6-0.6,1.4-1.1,2.1-1.5c-6.7-6.1-11.6-9.5-12.7-8.5c-1.1,0.9,1.9,6.1,7.3,13.3c0.9,1.1,1.9,2.4,2.9,3.7
			c3.1,3.9,6.7,8.1,10.6,12.5c0.3,0.3,0.6,0.6,0.9,0.9c3.9,4.2,7.7,8.2,11.2,11.6c1.6,1.6,3.2,3.1,4.7,4.4
			c6.5,5.9,11.3,9.2,12.3,8.3C74.6,59,71.8,53.9,66.5,46.8"/>
		<path id="Fill_10" class="st4" d="M29.4,39.6l0.4,1.3c0,0,22.5,0.5,43.9-3.6l0.2-1.1L29.4,39.6z"/>
		<path id="Fill_12" class="st3" d="M72.4,29.2c0.2,0.9,0.4,1.6,0.5,2.5h0.6c3,0.1,5.2,0.2,6.9,0.4c-1.6,0.4-3.7,0.9-6.7,1.4
			l-0.6,0.1c-2,0.4-4.2,0.7-6.5,1c-3.7,0.5-7.7,1-11.9,1.4c-1.4,0.1-2.7,0.2-4.2,0.4c-4.4,0.4-8.7,0.6-12.8,0.7
			c-3.5,0.1-6.7,0.1-9.7,0.1c-0.3,0-0.6,0-0.9,0c-3-0.1-5.2-0.2-6.9-0.4c1.6-0.4,7.8-1.5,7.8-1.5c0.4-0.1,0-1.1,0-2.1
			c-8.8,1.4-14.6,2.6-14.5,4.1c0.1,1.4,6,2.3,15,2.4c1.5,0,3.1,0,4.7,0c4.9-0.1,10.5-0.3,16.4-0.7c0.4,0,0.8-0.1,1.2-0.1
			c5.7-0.4,11.2-1,16-1.6c2.3-0.3,4.4-0.6,6.5-1c8.7-1.5,14.2-3.2,14.1-4.7c-0.1-1.4-3.9-2.3-12.8-2.4"/>
	</g>
</g>
</svg>
