<svg xmlns="http://www.w3.org/2000/svg" viewBox="0 0 122 122">
  <defs>
    <style>
      .cls-1 {
        fill: none;
      }

      .cls-2 {
        fill: #fff;
      }
    </style>
  </defs>
  <g id="bonus1" transform="translate(29 28)">
    <rect id="bg" class="cls-1" width="122" height="122" rx="10" transform="translate(-29 -28)"/>
    <path id="element5" class="cls-2" d="M4.95,9.945A4.973,4.973,0,1,1,9.9,4.973,4.967,4.967,0,0,1,4.95,9.945Zm0-8.287a3.315,3.315,0,1,0,3.3,3.315A3.311,3.311,0,0,0,4.95,1.658Z" transform="translate(40.5 27.123)"/>
    <path id="main" class="cls-2" d="M56.31,66H3.51a.827.827,0,0,1-.827-.824V61.241a3.21,3.21,0,0,1,3.21-3.2h.246V53.522a.827.827,0,0,1,.826-.825h3.719A29.939,29.939,0,0,1,0,29.844,29.922,29.922,0,0,1,49.32,7.14l1.716-.248,2.307-4.645a.828.828,0,0,1,1.482,0l2.307,4.645,5.16.745a.832.832,0,0,1,.668.562.818.818,0,0,1-.211.847L59.018,12.66l.881,5.1a.817.817,0,0,1-.329.807.832.832,0,0,1-.87.064l-1.378-.72A29.679,29.679,0,0,1,57,42.461,30.2,30.2,0,0,1,49.133,52.7h3.722a.827.827,0,0,1,.826.825v4.516h.246a3.211,3.211,0,0,1,3.211,3.2v3.934A.827.827,0,0,1,56.31,66ZM5.893,59.688a1.557,1.557,0,0,0-1.557,1.553V64.35H55.483V61.241a1.557,1.557,0,0,0-1.557-1.553Zm1.9-5.341v3.692H52.027V54.347ZM29.91,1.65A28.183,28.183,0,0,0,13.266,52.63a.179.179,0,0,1,.035.037.239.239,0,0,0,.026.029H46.464l0,0A28.171,28.171,0,0,0,54.9,16.68a.059.059,0,0,1-.006-.019.073.073,0,0,0,0-.015l-.81-.423-4.615,2.412a.83.83,0,0,1-.384.094.819.819,0,0,1-.486-.158.827.827,0,0,1-.328-.807l.88-5.1L45.419,9.045a.83.83,0,0,1-.211-.847.821.821,0,0,1,.669-.562l1.21-.175A28.438,28.438,0,0,0,29.91,1.65ZM54.085,14.467a.826.826,0,0,1,.383.094L57.984,16.4l-.67-3.886a.827.827,0,0,1,.238-.733l2.839-2.75-3.926-.567a.825.825,0,0,1-.622-.45L54.085,4.47,52.325,8.013a.826.826,0,0,1-.623.45l-3.926.567,2.84,2.75a.827.827,0,0,1,.238.733l-.67,3.886L53.7,14.561A.833.833,0,0,1,54.085,14.467Z"/>
    <path id="element4" class="cls-2" d="M16.2,18.082a.943.943,0,0,1-.407-.092L10.35,15.368,4.9,17.99a.955.955,0,0,1-.408.092.92.92,0,0,1-.518-.156.784.784,0,0,1-.349-.793l1.039-5.547L.267,7.657a.763.763,0,0,1-.224-.832.867.867,0,0,1,.711-.553l6.086-.81L9.561.414a.959.959,0,0,1,1.578,0l2.721,5.049,6.087.81a.867.867,0,0,1,.711.553.763.763,0,0,1-.224.832l-4.4,3.929,1.039,5.547a.786.786,0,0,1-.349.793A.929.929,0,0,1,16.2,18.082ZM10.35,13.643a.949.949,0,0,1,.408.092l4.274,2.058-.814-4.352a.772.772,0,0,1,.255-.72L17.92,7.642l-4.77-.635a.878.878,0,0,1-.662-.442L10.35,2.6,8.212,6.566a.879.879,0,0,1-.663.442L2.78,7.642l3.448,3.079a.772.772,0,0,1,.255.72l-.815,4.352,4.274-2.058A.951.951,0,0,1,10.35,13.643Z" transform="translate(9 24.411)"/>
    <path id="element3" class="cls-2" d="M12.568,15.37a.876.876,0,0,1-.4-.1L8.1,13.147,4.036,15.271a.873.873,0,0,1-.916-.068.864.864,0,0,1-.345-.85L3.55,9.859.265,6.676A.87.87,0,0,1,.746,5.19l4.543-.655L7.32.444a.908.908,0,0,1,1.561,0l2.03,4.091,4.543.655a.87.87,0,0,1,.481,1.486L12.651,9.859l.775,4.493a.863.863,0,0,1-.346.85A.873.873,0,0,1,12.568,15.37ZM8.1,11.3a.875.875,0,0,1,.4.1l2.908,1.519L10.857,9.7a.872.872,0,0,1,.252-.772l2.343-2.27L10.21,6.192a.871.871,0,0,1-.655-.475L8.1,2.788,6.646,5.717a.875.875,0,0,1-.656.475L2.749,6.66,5.091,8.93a.872.872,0,0,1,.252.772L4.79,12.913,7.7,11.394A.879.879,0,0,1,8.1,11.3Z" transform="translate(24.3 7.233)"/>
    <path id="element2" class="cls-2" d="M6.348,2.411h-1.9V.754A.807.807,0,0,0,3.6,0a.807.807,0,0,0-.852.754V2.411H.852A.807.807,0,0,0,0,3.164a.807.807,0,0,0,.852.754h1.9V5.575a.807.807,0,0,0,.852.754.807.807,0,0,0,.852-.754V3.918h1.9A.807.807,0,0,0,7.2,3.164.807.807,0,0,0,6.348,2.411Z" transform="translate(29.7 42.493)"/>
    <path id="element1" class="cls-2" d="M.852,3.918h1.9V5.575a.807.807,0,0,0,.852.754.807.807,0,0,0,.852-.754V3.918h1.9A.807.807,0,0,0,7.2,3.164a.807.807,0,0,0-.852-.754h-1.9V.754A.807.807,0,0,0,3.6,0a.807.807,0,0,0-.852.754V2.411H.852A.807.807,0,0,0,0,3.164.807.807,0,0,0,.852,3.918Z" transform="translate(10.8 13.562)"/>
  </g>
</svg>
