<?xml version="1.0" encoding="utf-8"?>
<!-- Generator: Adobe Illustrator 22.0.1, SVG Export Plug-In . SVG Version: 6.00 Build 0)  -->
<svg version="1.1" id="lock" xmlns="http://www.w3.org/2000/svg" xmlns:xlink="http://www.w3.org/1999/xlink" x="0px" y="0px"
	 width="100px" height="100px" viewBox="0 0 100 100" style="enable-background:new 0 0 100 100;" xml:space="preserve">
<style type="text/css">
	.st0{fill:#FFFFFF;}
</style>
<path id="lock2" class="st0" d="M62.5,76.9H33.6l-0.7-0.2c-1.3-0.3-2.5-1-3.3-2.1c-0.8-1.1-1.3-2.4-1.3-3.8c0-6.8,0-13.6,0-20.4
	c0-1.6,0.6-3.2,1.8-4.4c1.1-1.1,2.5-1.7,4.1-1.7c0.1,0,0.1,0,0.2,0h27.3c0.1,0,0.1,0,0.2,0c1.4,0,2.8,0.5,3.8,1.5
	c1.1,1,1.8,2.3,2,3.7c0,0.1,0.1,0.2,0.1,0.3v21.6c0,0.1-0.1,0.2-0.1,0.3c-0.3,2.2-1.8,4.1-4,4.8c-0.3,0.1-0.6,0.2-0.9,0.2
	C62.7,76.8,62.6,76.9,62.5,76.9L62.5,76.9z M48.1,54.4c-1.5,0-2.9,0.9-3.6,2.3c-0.8,1.5-0.5,3.4,0.7,4.6c0.7,0.6,1,1.5,0.8,2.3
	c0,0.2,0,0.4,0,0.6c0,0.1,0,0.2,0,0.3v2.1c0,1.1,0.8,2.1,2,2.1h0c1.1,0,2-0.9,2-2c0-0.9,0-1.8,0-2.7c0-0.4,0-0.9,0-1.4
	c0-0.3,0.1-0.6,0.4-0.8c1.3-0.9,1.9-2.5,1.5-4.1c-0.3-1.7-1.7-3-3.4-3.3C48.4,54.4,48.2,54.4,48.1,54.4z"/>
<path id="lock1" class="st0" d="M48.9,23.9c1.1,0.2,2.2,0.3,3.3,0.6c3.1,0.9,5.7,2.9,7.2,5.7c1.7,3,2.5,6.4,2.4,9.9v2.1H56v-0.7
	c0.1-1.9-0.1-3.8-0.5-5.6c-0.7-2.5-1.9-4.6-4.4-5.4c-2.9-0.9-5.7-0.8-8.1,1.4c-1.4,1.3-2.2,3.1-2.4,5c-0.2,1.2-0.2,2.5-0.3,3.8
	c0,0.5,0,1,0,1.5h-5.9v-1.8c-0.1-3,0.5-6,1.7-8.7c1.7-4,5.4-6.9,9.7-7.5l1.4-0.2H48.9z"/>
</svg>
