<svg xmlns="http://www.w3.org/2000/svg" viewBox="0 0 123 122">
  <defs>
    <style>
      .cls-1 {
        opacity: 0.21;
      }

      .cls-2 {
        fill: #fff;
      }

      .cls-3 {
        fill: none;
      }
    </style>
  </defs>
  <g id="lock" transform="translate(40 32)">
    <g id="icon" class="cls-1">
      <path id="Shape" class="cls-2" d="M34.154,32.6H5.313l-.671-.169a5.829,5.829,0,0,1-3.331-2.122A6.178,6.178,0,0,1,.025,26.488C-.008,19.722-.008,12.862.025,6.1A6.176,6.176,0,0,1,1.793,1.714,5.72,5.72,0,0,1,5.872,0c.07,0,.141,0,.21,0H33.375c.066,0,.132,0,.2,0A5.755,5.755,0,0,1,37.4,1.474a6.121,6.121,0,0,1,1.971,3.714,2.25,2.25,0,0,0,.093.292V27.113a3.143,3.143,0,0,0-.1.339A5.912,5.912,0,0,1,35.4,32.265a6.522,6.522,0,0,1-.878.246c-.121.028-.246.057-.367.088ZM19.762,10.14a3.952,3.952,0,0,0-3.556,2.318,3.858,3.858,0,0,0,.7,4.564,2.506,2.506,0,0,1,.841,2.326c-.01.179-.007.364,0,.56,0,.1,0,.2,0,.3v2.072a2.034,2.034,0,0,0,1.959,2.1h.037a2.037,2.037,0,0,0,1.993-2.024c.017-.908.011-1.831.006-2.724,0-.448-.006-.909-.006-1.363A.835.835,0,0,1,22.1,17.5a3.959,3.959,0,0,0,1.538-4.059,3.993,3.993,0,0,0-3.371-3.272A3.843,3.843,0,0,0,19.762,10.14Z" transform="translate(0.262 20.401)"/>
      <path id="Shape-2" data-name="Shape" class="cls-2" d="M14.692,0c1.092.207,2.21.329,3.282.631A11.959,11.959,0,0,1,25.19,6.312a19.423,19.423,0,0,1,2.405,9.9v2.062H21.708V17.6a19.838,19.838,0,0,0-.513-5.591c-.682-2.47-1.913-4.59-4.431-5.39C13.862,5.671,11.041,5.8,8.626,8A8.3,8.3,0,0,0,6.19,13.033c-.195,1.235-.221,2.5-.3,3.758-.031.482,0,.965,0,1.489H0V16.451A20.3,20.3,0,0,1,1.7,7.706,12.438,12.438,0,0,1,11.441.212L12.887,0Z" transform="translate(6.205)"/>
    </g>
    <rect id="bg" class="cls-3" width="123" height="122" rx="10" transform="translate(-40 -32)"/>
  </g>
</svg>
