<?xml version="1.0" encoding="utf-8"?>
<!-- Generator: Adobe Illustrator 22.0.1, SVG Export Plug-In . SVG Version: 6.00 Build 0)  -->
<svg version="1.1" xmlns="http://www.w3.org/2000/svg" xmlns:xlink="http://www.w3.org/1999/xlink" x="0px" y="0px"
	 viewBox="0 0 5000 1000" style="enable-background:new 0 0 5000 1000;" xml:space="preserve">
<g id="background">
	<rect y="0" className="st0" width="5000" height="1000"/>
	<g id="backgroundText">
		<rect x="428.3" y="481" className="st1" width="78" height="26.7"/>
		<text transform="matrix(1 0 0 1 428.3333 498.04)" className="st2 st3 st4">500px</text>
		<rect x="918.3" y="481" className="st1" width="78" height="26.7"/>
		<text transform="matrix(1 0 0 1 918.3333 498.04)" className="st2 st3 st4">1000px</text>
		<rect x="1440.3" y="481" className="st1" width="78" height="26.7"/>
		<text transform="matrix(1 0 0 1 1440.3333 498.04)" className="st2 st3 st4">1500px</text>
		<rect x="1930.3" y="481" className="st1" width="78" height="26.7"/>
		<text transform="matrix(1 0 0 1 1930.3333 498.04)" className="st2 st3 st4">2000px</text>
		<rect x="2469.7" y="481" className="st1" width="78" height="26.7"/>
		<text transform="matrix(1 0 0 1 2469.6711 498.04)" className="st2 st3 st4">2500px</text>
		<rect x="2959.7" y="481" className="st1" width="78" height="26.7"/>
		<text transform="matrix(1 0 0 1 2959.6711 498.04)" className="st2 st3 st4">3000px</text>
		<rect x="3481.7" y="481" className="st1" width="78" height="26.7"/>
		<text transform="matrix(1 0 0 1 3481.6711 498.04)" className="st2 st3 st4">3500px</text>
		<rect x="3976.6" y="481" className="st1" width="78" height="26.7"/>
		<text transform="matrix(1 0 0 1 3976.6465 498.04)" className="st2 st3 st4">4000px</text>
		<rect x="4501" y="477" className="st1" width="78" height="26.7"/>
		<text transform="matrix(1 0 0 1 4501.0044 494.04)" className="st2 st3 st4">4500px</text>
	</g>
</g>
<g id="bonus" className="st5">
	<linearGradient id="bg_1_" gradientUnits="userSpaceOnUse" x1="2490.5" y1="968.3333" x2="2490.5" y2="-193.6512">
		<stop  offset="0" style="stop-color:#1A466C"/>
		<stop  offset="1" style="stop-color:#0A1E31"/>
	</linearGradient>
	<rect id="bg" x="-17" y="-0.7" className="st6" width="5015" height="1000"/>
	<g id="text" className="st7">
		<rect x="428.3" y="481" className="st1" width="78" height="26.7"/>
		<text transform="matrix(1 0 0 1 428.3333 498.04)" className="st8 st3 st4">500px</text>
		<rect x="918.3" y="481" className="st1" width="78" height="26.7"/>
		<text transform="matrix(1 0 0 1 918.3333 498.04)" className="st8 st3 st4">1000px</text>
		<rect x="1440.3" y="481" className="st1" width="78" height="26.7"/>
		<text transform="matrix(1 0 0 1 1440.3333 498.04)" className="st8 st3 st4">1500px</text>
		<rect x="1930.3" y="481" className="st1" width="78" height="26.7"/>
		<text transform="matrix(1 0 0 1 1930.3333 498.04)" className="st8 st3 st4">2000px</text>
		<rect x="2469.7" y="481" className="st1" width="78" height="26.7"/>
		<text transform="matrix(1 0 0 1 2469.6711 498.04)" className="st8 st3 st4">2500px</text>
		<rect x="2959.7" y="481" className="st1" width="78" height="26.7"/>
		<text transform="matrix(1 0 0 1 2959.6711 498.04)" className="st8 st3 st4">3000px</text>
		<rect x="3481.7" y="481" className="st1" width="78" height="26.7"/>
		<text transform="matrix(1 0 0 1 3481.6711 498.04)" className="st8 st3 st4">3500px</text>
		<rect x="3976.6" y="481" className="st1" width="78" height="26.7"/>
		<text transform="matrix(1 0 0 1 3976.6465 498.04)" className="st8 st3 st4">4000px</text>
		<rect x="4501" y="477" className="st1" width="78" height="26.7"/>
		<text transform="matrix(1 0 0 1 4501.0044 494.04)" className="st8 st3 st4">4500px</text>
	</g>
</g>
<g id="Layer_2">
</g>
</svg>
